<?xml version="1.0" encoding="UTF-8" standalone="no"?>
<!-- Created with Inkscape (http://www.inkscape.org/) -->

<svg
   version="1.1"
   id="svg1"
   width="1648"
   height="1978.5601"
   viewBox="0 0 1648 1978.5601"
   sodipodi:docname="Aufbauplan Aula.svg"
   xml:space="preserve"
   inkscape:version="1.1.2 (0a00cf5339, 2022-02-04)"
   xmlns:inkscape="http://www.inkscape.org/namespaces/inkscape"
   xmlns:sodipodi="http://sodipodi.sourceforge.net/DTD/sodipodi-0.dtd"
   xmlns:xlink="http://www.w3.org/1999/xlink"
   xmlns="http://www.w3.org/2000/svg"
   xmlns:svg="http://www.w3.org/2000/svg"><defs
     id="defs1"><pattern
       inkscape:collect="always"
       xlink:href="#pattern25"
       preserveAspectRatio="xMidYMid"
       id="pattern26"
       patternTransform="matrix(0.28284271,-0.28284271,0.28284271,0.28284271,95.08622,55.911433)" /><pattern
       inkscape:collect="always"
       xlink:href="#FloorTiles"
       preserveAspectRatio="xMidYMid"
       id="pattern25"
       patternTransform="matrix(0.28284271,-0.28284271,0.28284271,0.28284271,0,0)"
       x="0"
       y="0" /><pattern
       patternUnits="userSpaceOnUse"
       width="90"
       height="90"
       id="FloorTiles"
       preserveAspectRatio="xMidYMid"
       patternTransform="rotate(-45)"
       style="fill:#000000"
       inkscape:label="Parkett"
       inkscape:collect="always"
       inkscape:isstock="true"><path
         id="rect1"
         style="stroke-width:5;stroke-miterlimit:10"
         d="M 0,0 V 1 H 15 V 15 H 0 v 1 44 0.5 0.5 14 1 h 30 v 14 h 1 V 76 h 14 v 14 h 1 V 61 h 14 v 29 h 1 V 46 h 14 v 29 0.5 0.5 14 h 1 V 76 H 90 V 75 H 76 V 31 H 90 V 30 H 75 46 V 16 H 61 90 V 15 H 61 V 1 H 90 V 0 H 61 60 V 0.5 15 H 46 V 0 H 45 V 15 15.5 16 30 H 31 V 0 H 30 15 Z M 16,1 H 30 V 30 30.5 31 45 H 16 V 16 15 Z M 1,16 H 15 V 45 45.5 46 60 H 1 Z M 31,31 H 46 75 V 45 H 61 31 Z M 16,46 H 31 60 V 60 H 46 16 Z M 1,61 H 16 45 V 75 H 31 1 Z" /></pattern><clipPath
       clipPathUnits="userSpaceOnUse"
       id="clipPath27"><rect
         style="fill:none;stroke:#000000;stroke-width:0.999999;stroke-linecap:butt;stroke-linejoin:bevel;paint-order:stroke markers fill;stop-color:#000000"
         id="rect28-6"
         width="46.160622"
         height="39.922417"
         x="86.574379"
         y="420.06253" /></clipPath><pattern
       inkscape:collect="always"
       xlink:href="#pattern11"
       preserveAspectRatio="xMidYMid"
       id="pattern12"
       patternTransform="matrix(0.5,0,0,0.5,193.95033,114.5564)" /><pattern
       inkscape:collect="always"
       xlink:href="#pattern10"
       preserveAspectRatio="xMidYMid"
       id="pattern11"
       patternTransform="matrix(0.5,0,0,0.5,93.075757,55.361111)" /><pattern
       inkscape:collect="always"
       xlink:href="#pattern9"
       preserveAspectRatio="xMidYMid"
       id="pattern10"
       patternTransform="matrix(0.5,0,0,0.5,1,1)"
       x="0"
       y="0" /><pattern
       patternUnits="userSpaceOnUse"
       width="100"
       height="87"
       preserveAspectRatio="xMidYMid"
       patternTransform="translate(1,1) scale(0.5,0.5)"
       style="fill:#000000"
       id="pattern9"
       inkscape:label="Honigwaben"
       inkscape:collect="always"
       inkscape:isstock="true"><path
         id="path8"
         style="stroke:none"
         d="M 23.246093,0 0,13.382812 V 44.689453 L 0.0839844,44.640625 24.033203,58.505859 24.001953,86.332031 22.841796,87 h 4.478516 L 26.068359,86.275391 26.099609,58.449219 50.083984,44.640625 74.033203,58.505859 74.001953,86.332031 72.841796,87 h 4.478516 L 76.068359,86.275391 76.099609,58.449219 100,44.689453 V 13.365234 L 76.919921,0 H 73.246093 L 50.015625,13.373047 26.919921,0 Z M 25.083984,1.25 49.033203,15.115234 49.001953,42.941406 25.017578,56.75 1.0019531,42.845703 l 0.033203,-27.75 z m 50,0 24.017576,13.904297 -0.0352,27.75 L 75.017578,56.75 51.068359,42.884766 51.099609,15.058594 Z" /></pattern><linearGradient
       id="swatch1"
       inkscape:swatch="solid"><stop
         style="stop-color:#000000;stop-opacity:1;"
         offset="0"
         id="stop1" /></linearGradient></defs><sodipodi:namedview
     id="namedview1"
     pagecolor="#505050"
     bordercolor="#ffffff"
     borderopacity="1"
     inkscape:showpageshadow="0"
     inkscape:pageopacity="0"
     inkscape:pagecheckerboard="1"
     inkscape:deskcolor="#505050"
     inkscape:zoom="0.6796463"
     inkscape:cx="489.12347"
     inkscape:cy="1282.3004"
     inkscape:window-width="1718"
     inkscape:window-height="1128"
     inkscape:window-x="202"
     inkscape:window-y="0"
     inkscape:window-maximized="0"
     inkscape:current-layer="layer2"
     inkscape:pageshadow="0"
     showgrid="false" /><g
     inkscape:groupmode="layer"
     inkscape:label="Image"
     id="g1"
     style="display:none"><image
       width="1648"
       height="1978.5601"
       preserveAspectRatio="none"
       style="display:inline;image-rendering:optimizeQuality"
       xlink:href="file:///Q:/ASTA/Aufbauplan%20Aula_Hintergrund.png"
       id="image1-1"
       x="0"
       y="-0.89619094"
       inkscape:label="Hintergrund" /><image
       width="1648"
       height="1978.5601"
       preserveAspectRatio="none"
       style="display:none;image-rendering:optimizeQuality"
       xlink:href="file:///Q:/ASTA/Aufbauplan%20Aula_Grundriss.png"
       id="image1"
       inkscape:label="Grundriss" /><image
       width="1648"
       height="1978.5601"
       preserveAspectRatio="none"
       style="display:none;image-rendering:optimizeQuality"
       xlink:href="file:///Q:/ASTA/Aufbauplan%20Aula_Leinwand.png"
       id="image1-6"
       x="0"
       y="-0.89619094"
       inkscape:label="Leinwand" /><image
       width="1648"
       height="1978.5601"
       preserveAspectRatio="none"
       style="display:none;image-rendering:optimizeQuality"
       xlink:href="file:///Q:/ASTA/Aufbauplan%20Aula_Deckenkonstruktion.png"
       id="image1-7"
       x="0"
       y="-0.89619094"
       inkscape:label="Decke" /><image
       width="1648"
       height="1978.5601"
       preserveAspectRatio="none"
       style="display:none;opacity:0.5;image-rendering:optimizeQuality"
       xlink:href="file:///Q:/ASTA/Aufbauplan%20Aula_KinoReff.png"
       id="image1-9"
       x="0"
       y="-0.89619094"
       inkscape:label="Kino Reff" /></g><g
     inkscape:groupmode="layer"
     id="layer2"
     inkscape:label="Hintergrund"><rect
       style="fill:#ececec;stroke:#000000"
       id="rect2"
       width="1646.597"
       height="1977.3972"
       x="0.60242641"
       y="0.603055"
       inkscape:label="Weiß"
       ry="0" /><g
       inkscape:groupmode="layer"
       id="layer6"
       inkscape:label="Fluchtwege"
       style="opacity:0.195"><path
         style="fill:#00ff00;stroke:#000000"
         d="m 841.79815,96.925416 -52.60089,89.016894 -288.38529,0.18391 1.28743,-85.52242 z"
         id="path7" /><path
         style="fill:#00ff00;stroke:#000000"
         d="m 547.77275,1975.2071 157.10101,-549.3333 59.82324,-72.3081 398.995,16.1263 107.1616,80.6313 -100.6677,363.9476 145.9399,163.2283 -258.2226,-0.3679 -61.06117,-70.6249 -268.03897,36.9684 -10.40404,34.0733 z"
         id="path4" /><path
         style="fill:#00ff00;stroke:#000000"
         d="m 1429.3852,871.20836 -81.2816,-46.68813 169.3677,-279.15384 76.3627,43.69739 z"
         id="path6" /></g><g
       inkscape:groupmode="layer"
       id="layer7"
       inkscape:label="Bühne"
       style="opacity:0.761"><path
         style="fill:#4d4d4d;stroke:#000000"
         d="m 697.51355,1289.6414 -6.89697,-81.1084 -287.83354,-168.1021 -77.98174,43.4049 -45.9798,-27.22 -61.98077,-2.7588 -7.17285,134.9967 408.11669,237.4397 z"
         id="path9" /></g><path
       style="fill:#000000"
       d="m 544.96,1978.3622 c 0,-0.1089 14.40672,-49.1582 32.01493,-108.9984 17.60821,-59.8403 31.96439,-108.8511 31.90261,-108.9129 -0.1187,-0.1187 -62.27477,-17.636 -63.14832,-17.797 l -0.50965,-0.094 -10.0076,32.6668 -10.0076,32.6669 -0.55899,0.8531 -0.55899,0.8532 h -0.969 -0.969 l -4.51419,-2.181 c -21.00785,-10.1493 -33.86409,-24.3835 -38.57225,-42.7062 l -0.92321,-3.5928 -0.50937,-3.9494 -0.50937,-3.9494 v -4.715 c 0,-7.4925 1.03373,-15.4665 3.02136,-23.3062 l 0.75045,-2.96 h -0.51448 c -0.28297,0 -7.79163,-2.1191 -16.68591,-4.7091 l -16.17142,-4.709 -0.88,-0.8664 -0.88,-0.8663 v -0.8773 -0.8773 l 23.21288,-78.5478 c 12.76708,-43.2013 23.12586,-78.6376 23.0195,-78.7473 -0.10635,-0.1098 -55.73082,-16.8469 -123.60993,-37.1937 l -123.41657,-36.9942 -0.9157,-0.839 -0.91571,-0.839 0.15507,-1.3668 c 0.0853,-0.7518 14.94885,-51.2629 33.03013,-112.2469 18.08128,-60.984 32.93384,-111.096 33.00569,-111.36 l 0.13062,-0.48 -51.23578,-30.0536 -51.23578,-30.0537 -0.53221,-0.8124 -0.53221,-0.8123 0.0637,-3.214 c 0.035,-1.7677 5.53967,-91.702 12.23257,-199.85397 6.6929,-108.152 12.20825,-197.39513 12.25634,-198.31806 l 0.0874,-1.67805 -61.76,-36.82721 -61.76,-36.82721 -1.0413,-1.02137 -1.04129,-1.02137 -0.28507,-0.99396 -0.28506,-0.99397 0.55759,-1.2394 c 0.30667,-0.68168 61.08255,-105.13541 135.0575,-232.11942 l 134.49992,-230.88 0.22732,-1.42062 0.22733,-1.42062 1.00658,-0.89938 1.00658,-0.89938 8.87495,-0.008 c 4.88122,-0.004 91.44593,-0.21299 192.36602,-0.46375 l 183.49107,-0.45595 0.18893,-0.33892 c 0.10391,-0.18641 8.02498,-13.86851 17.60238,-30.40467 l 17.41345,-30.06573 1.55336,0.86841 1.55336,0.86842 1.51319,1.54324 1.51319,1.54324 -1.18226,1.01676 -1.18227,1.01676 -16.48261,28.48 -16.48261,28.48 -0.94998,0.64 c -0.52249,0.352 -1.09873,0.95638 -1.28055,1.34307 -0.18182,0.38669 -0.66266,0.92066 -1.06853,1.18661 l -0.73796,0.48352 -191.30081,0.46427 c -105.21545,0.25534 -191.34596,0.51337 -191.40114,0.57339 -0.27398,0.29803 -268.65006,461.20388 -268.64256,461.36349 0.005,0.10212 24.28887,14.65766 53.96461,32.34566 29.67574,17.688 57.69614,34.39812 62.26755,37.13361 l 8.31166,4.9736 0.47434,0.90531 0.47434,0.90531 -0.20085,1.00109 c -0.22779,1.13534 -13.87718,218.85365 -13.73258,219.04515 0.0515,0.068 12.79674,0.9531 28.3227,1.9664 l 28.22902,1.8424 0.42024,0.5747 0.42025,0.5748 -0.0139,1.1388 c -0.008,0.6264 -0.35239,11.0748 -0.76615,23.2188 l -0.75228,22.08 0.36614,0.3604 c 0.3841,0.3781 43.04018,25.2466 44.25047,25.7981 l 0.698,0.318 37.70884,-20.8835 37.70884,-20.8834 0.41815,-0.5948 0.41814,-0.5948 h 0.74195 0.74195 l 144.59991,84.5825 144.5999,84.5825 -0.0779,0.6175 c -0.0428,0.3397 0.1349,1.6255 0.395,2.8575 l 0.47289,2.24 2.58089,34.72 c 1.41949,19.096 2.64848,35.044 2.73109,35.44 l 0.15021,0.72 h 0.61502 c 0.33826,0 0.69827,0.1347 0.80002,0.2994 0.10176,0.1646 0.93825,0.6492 1.85889,1.0769 0.92063,0.4276 17.72988,9.3781 37.35388,19.8899 l 35.68,19.1125 20.8,0.9482 20.8,0.9482 1.22519,0.8037 1.22519,0.8037 0.44764,1.0713 0.44763,1.0713 0.0872,3.0572 0.0872,3.0571 -0.88,0.8831 -0.88,0.883 h -1.31275 -1.31274 l -0.92726,-1.0378 -0.92725,-1.0378 v -1.0537 -1.0538 l -0.4,-0.4923 -0.4,-0.4923 -16.64,-0.7024 c -9.152,-0.3863 -18.20911,-0.7912 -20.1269,-0.8998 l -3.48691,-0.1975 -1.01628,-0.8923 -1.01627,-0.8923 -10.69682,-5.7318 c -5.88325,-3.1525 -21.28082,-11.3826 -34.21682,-18.2892 -12.936,-6.9066 -24.29362,-12.986 -25.23916,-13.5098 l -1.71916,-0.9523 -0.23262,0.2648 c -0.12794,0.1457 -2.75016,4.5848 -5.82717,9.8648 -3.077,5.28 -20.53378,35.137 -38.79284,66.3488 -18.25906,31.2117 -33.15121,56.7887 -33.09367,56.8376 0.38066,0.3238 68.41708,42.7507 68.77549,42.8879 l 0.44913,0.1718 5.83644,-20.883 c 3.21005,-11.4857 5.93025,-21.3151 6.04491,-21.8431 0.3429,-1.579 1.07898,-2.8152 2.38173,-4 0.67736,-0.616 13.54927,-16.0128 28.60424,-34.2152 L 760,1353.4895 v -0.5797 -0.5797 l 0.93367,-1.045 0.93366,-1.0451 25.37099,-0.086 25.37098,-0.086 0.25045,-0.3943 c 0.13775,-0.2168 0.25265,-1.4062 0.25535,-2.6431 l 0.005,-2.2488 0.52182,-0.745 0.52182,-0.745 1.07818,-0.4505 1.07818,-0.4504 1.09511,0.4575 1.09511,0.4576 0.54344,0.8294 0.54345,0.8294 -0.27856,5.1412 -0.27855,5.1412 0.20117,0.3761 0.20117,0.3761 -0.90834,32 c -0.49959,17.6 -0.91412,33.6405 -0.92117,35.6456 l -0.0128,3.6455 3.6,-0.2189 c 7.67555,-0.4669 16.11566,-2.036 22.8,-4.2388 6.58035,-2.1686 11.08522,-4.3787 16.76494,-8.225 l 3.32493,-2.2516 3.67865,-3.5364 3.67864,-3.5365 1.99571,-2.5619 c 3.149,-4.0425 5.46941,-7.8097 7.83919,-12.727 l 2.19514,-4.555 1.46308,-4.2843 c 1.52689,-4.4712 3.40859,-11.7181 4.03913,-15.5557 l 0.36804,-2.24 0.45365,-0.72 0.45365,-0.72 h 0.75465 0.75464 l 0.87009,1.1408 0.87008,1.1407 0.42323,3.4193 c 0.67795,5.4771 1.37611,9.1685 2.71121,14.3348 l 1.24963,4.8356 1.60734,4.1244 c 3.84678,9.8708 8.36977,16.8079 15.42915,23.6644 8.04294,7.8117 17.37035,12.9747 30.01484,16.6142 3.98529,1.1471 11.05907,2.6185 14.1331,2.9398 l 1.83522,0.1918 0.16942,-1.4029 c 0.26525,-2.1963 2.14299,-69.4726 2.13226,-76.3949 l -0.01,-6.192 1.088,-1.088 1.088,-1.088 h 1.024 1.024 l 1.088,1.088 1.088,1.088 v 3.1582 3.1581 l 96.39996,4.4064 96.4,4.4065 1.1582,0.2628 1.1582,0.2628 54.3618,41.3565 c 29.899,22.7461 54.8298,41.8441 55.4018,42.44 l 1.04,1.0833 v 1.1567 1.1567 l -1.04,1.0366 c -0.572,0.5701 -1.2106,1.0957 -1.419,1.168 l -0.379,0.1314 -49.461,178.4963 c -27.2036,98.1729 -49.461,178.6803 -49.461,178.9053 0,0.2249 33.0647,37.5496 73.4772,82.9437 l 73.4772,82.5348 -4.2523,0.09 -4.2524,0.09 -0.1848,-0.2753 c -0.1017,-0.1514 -32.7289,-36.8238 -72.5049,-81.4941 -39.776,-44.6704 -72.5144,-81.4957 -72.752,-81.8342 l -0.432,-0.6153 v -1.1383 -1.1384 l 0.6992,-0.9457 c 0.3846,-0.5202 0.8709,-1.5385 1.0806,-2.263 l 0.3814,-1.3173 -1.025,-0.9789 c -0.8856,-0.8458 -141.8249,-175.0288 -143.7194,-177.6189 l -0.7021,-0.96 4.0612,-130.7868 c 2.2336,-71.9327 3.9952,-130.8506 3.9146,-130.9286 -0.1605,-0.1553 -64.35863,-3.156 -64.45764,-3.0128 -0.0336,0.049 -0.52747,16.5042 -1.09754,36.5682 -0.57007,20.064 -1.10002,36.7999 -1.17767,37.1908 l -0.14117,0.7108 -0.67408,0.3607 -0.67409,0.3608 -1.16214,-0.4747 -1.16213,-0.4748 -4.58167,-0.7011 c -13.87406,-2.123 -25.97719,-6.8218 -36.29944,-14.0925 l -2.95298,-2.08 -3.94286,-3.8246 -3.94286,-3.8246 -2.19787,-2.8954 c -6.10508,-8.0426 -10.22352,-16.6741 -12.94664,-27.134 -0.87871,-3.3752 -2.33642,-10.1891 -2.43406,-11.3776 -0.0101,-0.1231 -0.59835,1.8642 -1.30721,4.4162 -2.85119,10.2648 -6.86776,18.9326 -12.38176,26.72 l -1.81265,2.56 -4.64,4.6541 -4.64,4.6541 -2.94858,2.0518 c -11.91175,8.289 -26.14826,12.7804 -43.25409,13.6462 l -4.10054,0.2075 -0.8131,-0.2041 -0.8131,-0.204 -0.20356,-0.5305 -0.20356,-0.5305 0.99844,-35.8154 0.99844,-35.8155 -0.21675,-0.2168 -0.21674,-0.2169 -24.85343,-0.085 -24.85343,-0.085 -28.86232,34.8583 -28.86233,34.8582 -7.34212,26.187 c -4.03816,14.4029 -7.44795,26.691 -7.57731,27.307 -0.12936,0.616 -7.77602,26.8833 -16.99258,58.3717 l -16.75738,57.2516 -0.56298,0.7933 c -0.30964,0.4362 -0.6674,0.953 -0.79503,1.1483 -0.12763,0.1953 -1.65961,4.9631 -3.4044,10.5951 l -3.17235,10.24 0.2044,1.2299 0.2044,1.2299 31.18922,10.0632 31.18922,10.0631 0.57078,0.5166 0.57078,0.5165 v 0.5716 c 0,0.3143 -0.144,0.6605 -0.32,0.7692 -0.176,0.1088 -0.32,0.4973 -0.32,0.8634 v 0.6656 l -2.51926,4.89 c -3.40367,6.6067 -6.63901,11.8794 -10.26717,16.7327 l -3.02644,4.0483 -4.17356,4.1811 -4.17357,4.1811 -2.81621,2.0911 c -6.83494,5.0752 -14.1256,8.2335 -22.46379,9.7313 l -3.2,0.5748 -5.76,-0.01 -5.76,-0.01 -3.2,-0.5385 c -3.06016,-0.5151 -9.04711,-1.8604 -10.09949,-2.2695 l -0.4995,-0.1942 -42.7005,145.1306 -42.70051,145.1307 -3.28,4e-4 c -1.804,2e-4 -3.28,-0.089 -3.28,-0.1975 z m -12.37054,-205.9136 c 5.5718,-18.2333 10.13054,-33.3231 10.13054,-33.5328 0,-0.2097 0.29093,-0.9515 0.6465,-1.6485 l 0.64651,-1.2672 h 1.41764 1.41765 l 31.90553,8.9743 31.90553,8.9743 0.22889,-0.2543 c 0.12589,-0.1399 4.74618,-15.6623 10.26732,-34.4943 l 10.03843,-34.2401 1.011,-1.04 1.011,-1.04 h 1.01713 1.01713 l 1.2831,1.2578 1.2831,1.2578 4.05177,0.9622 c 5.00873,1.1896 7.57588,1.5757 12.25116,1.8427 l 3.64736,0.2083 3.83662,-0.3931 3.83663,-0.3932 3.52,-0.9079 c 16.50081,-4.2562 30.25492,-17.4888 41.30842,-39.7419 0.84891,-1.7091 1.47488,-3.176 1.39104,-3.2599 -0.25512,-0.2551 -62.71819,-20.352 -63.28816,-20.3624 -0.29222,-0.01 -2.1873,-0.5045 -4.2113,-1.1093 l -3.68,-1.0996 -0.88,-0.9758 -0.88,-0.9757 v -0.987 -0.987 l 1.088,-1.088 1.088,-1.088 h 0.78114 c 0.42963,0 1.48131,0.2108 2.33707,0.4683 0.85576,0.2576 1.58485,0.4376 1.6202,0.4 0.10085,-0.1071 5.56559,-17.7353 5.56559,-17.9535 0,-0.1071 -0.324,-0.2001 -0.72,-0.2067 -0.396,-0.01 -18.21177,-5.1734 -39.59061,-11.4818 l -38.8706,-11.4699 -1.59095,3.8818 c -4.59382,11.2087 -10.50318,20.6278 -17.46784,27.8425 -9.87538,10.2298 -20.86989,15.8009 -34.81639,17.642 l -3.61639,0.4773 h -5.50557 -5.50557 l -4.04468,-0.4731 c -2.22457,-0.2602 -5.87459,-0.8309 -8.11116,-1.2683 l -4.06649,-0.7952 -0.44688,-0.3708 -0.44687,-0.3709 v -0.7427 -0.7427 l 0.58217,-0.4181 0.58217,-0.4182 9.2055,-31.4656 c 5.06303,-17.3061 9.15705,-31.5024 9.09783,-31.5472 -0.23395,-0.1771 -7.10021,-2.1013 -7.18736,-2.0141 -0.28511,0.2851 -45.25014,153.0189 -45.13559,153.3131 l 0.13777,0.3539 13.71875,3.9721 c 7.54532,2.1847 14.1261,4.1742 14.62397,4.4213 l 0.90521,0.4491 0.47381,1.1339 0.47381,1.134 -0.32237,0.9248 -0.32238,0.9248 h 0.29726 c 0.16349,0 0.38511,0.35 0.49249,0.7778 l 0.19524,0.7779 -0.5048,1.7364 c -0.71224,2.4501 -2.01474,8.5759 -2.61204,12.2848 l -0.50616,3.1431 -0.17928,6.5881 -0.17928,6.5881 0.37235,3.1572 c 1.25898,10.6751 4.54099,19.0765 10.68286,27.3466 l 2.25771,3.04 3.22518,3.2056 c 5.6604,5.6261 11.79408,9.953 20.30281,14.322 l 4.91763,2.5251 0.23183,-0.2664 c 0.12751,-0.1465 4.79058,-15.1845 10.36237,-33.4178 z m 685.65944,-144.4218 48.6669,-175.6532 -0.5779,-0.5523 c -0.3178,-0.3037 -23.9059,-18.3112 -52.4179,-40.0167 l -51.84,-39.4644 -3.04,-0.2409 c -4.4698,-0.3541 -124.4813,-5.8088 -124.5985,-5.6632 -0.055,0.068 -0.702,20.1399 -1.4381,44.6039 -0.736,24.464 -1.4252,46.0786 -1.5314,48.0325 l -0.1931,3.5524 3.9971,-0.1539 3.9972,-0.154 4.7634,0.3825 c 29.3494,2.3571 60.1748,18.4078 93.8953,48.8913 31.9333,28.8678 48.1683,58.5118 52.5371,95.9292 l 0.411,3.52 -0.011,11.36 -0.011,11.36 -0.561,4.8 c -1.9647,16.8086 -6.6728,37.3181 -12.1696,53.0129 -10.2039,29.1351 -24.4715,49.5351 -43.5679,62.294 -1.936,1.2935 -3.52,2.4475 -3.52,2.5643 0,0.3452 38.3933,47.7259 38.471,47.4767 0.039,-0.1253 21.9711,-79.2718 48.7379,-175.8811 z m -84.0089,122.4351 c 3.43,-2.3672 8.495,-6.5672 11.0062,-9.1267 l 2.0462,-2.0856 -1.2812,-0.345 c -2.9531,-0.7952 -36.385,-8.956 -36.4321,-8.8932 -0.028,0.038 4.2848,5.4239 9.5847,11.9692 l 9.6362,11.9005 1.44,-0.8262 c 0.792,-0.4544 2.592,-1.6213 4,-2.593 z m 17.5109,-16.1418 c 3.5146,-4.1329 8.3666,-11.1913 11.415,-16.606 l 1.0167,-1.8059 -15.53,-9.6341 c -8.5415,-5.2987 -15.6386,-9.6323 -15.7713,-9.6301 -0.1327,0 -0.8788,1.1181 -1.6579,2.48 -1.7778,3.1076 -6.1026,9.6501 -7.7557,11.7328 l -1.2514,1.5767 0.4118,0.3818 c 1.9727,1.8289 27.2511,23.1848 27.4432,23.1848 0.138,0 0.8939,-0.756 1.6796,-1.68 z m -9.038,-0.2029 c -0.6121,-0.5075 -5.9178,-5.0221 -11.7904,-10.0322 l -10.6775,-9.1094 -2.8619,3.1498 c -1.574,1.7324 -4.1479,4.3029 -5.7198,5.7122 -1.5718,1.4094 -2.8231,2.5703 -2.7806,2.58 0.042,0.01 7.7813,1.9379 17.1973,4.2851 9.416,2.3472 17.2608,4.2834 17.4329,4.3025 0.1721,0.019 -0.1879,-0.3804 -0.8,-0.888 z m -29.7991,-15.65 5.2338,-5.2476 -0.2738,-0.2612 c -1.444,-1.3775 -23.2874,-19.8115 -23.3735,-19.7253 -0.063,0.063 2.4434,7.2483 5.5695,15.9677 l 5.6839,15.8534 0.9631,-0.6697 c 0.5298,-0.3684 3.3184,-3.0312 6.197,-5.9173 z m -18.0242,-14.2442 c -2.6691,-7.4454 -4.9528,-13.7975 -5.0749,-14.1159 l -0.2221,-0.5788 -3.5213,3.5719 -3.5213,3.5719 8.5223,10.544 c 4.6872,5.7992 8.5555,10.544 8.5961,10.544 0.041,0 -2.1098,-6.0917 -4.7788,-13.5371 z m 72.4424,5.5929 c 2.602,-5.1852 7.708,-17.6151 7.708,-18.7643 v -0.3992 l -16.2643,-6.7549 c -8.9454,-3.7151 -16.4817,-6.8382 -16.7475,-6.9402 l -0.4832,-0.1854 -1.6855,4.2541 c -0.927,2.3397 -2.5376,6.045 -3.5792,8.234 -1.0415,2.1889 -1.8534,4.1008 -1.8042,4.2485 0.091,0.2728 30.6058,19.3645 31.041,19.4208 0.1304,0.017 0.9471,-1.3841 1.8149,-3.1134 z m -45.1956,-2.0558 c 3.1962,-4.3316 8.3201,-12.6103 8.0017,-12.9286 -0.066,-0.066 -6.9337,-4.3453 -15.2618,-9.51 l -15.1422,-9.3903 -1.8214,2.7544 c -1.0017,1.515 -2.7074,3.9018 -3.7905,5.3041 -1.083,1.4024 -1.9315,2.645 -1.8856,2.7615 0.1172,0.2976 27.5296,23.6489 27.7617,23.6489 0.1045,0 1.0666,-1.188 2.1381,-2.64 z m -37.0529,-18.0226 4.1937,-4.3426 2.813,-3.7374 c 8.3168,-11.0501 13.0418,-22.0453 15.0137,-34.9375 l 0.5629,-3.68 -0.019,-8.16 -0.019,-8.16 -0.3891,-4.64 c -1.1126,-13.2689 -3.5246,-23.6285 -7.2478,-31.1301 -1.7911,-3.6086 -5.2608,-8.8196 -8.9955,-13.5099 l -2.8029,-3.52 -5.9364,-5.9482 c -6.6661,-6.6797 -11.0916,-10.4945 -15.9837,-13.7786 -7.363,-4.9427 -14.8701,-7.7948 -23.9724,-9.1076 l -3.4202,-0.4933 -4.8523,-0.056 c -2.6687,-0.031 -4.9257,0.017 -5.0155,0.106 -0.09,0.089 -0.7397,18.6559 -1.4443,41.2594 l -1.2811,41.0971 0.3766,0.5257 c 1.3336,1.8617 53.8292,66.5557 54.0063,66.5557 0.1211,0 2.1073,-1.9542 4.4138,-4.3426 z m 48.5334,-1.5421 c 1.632,-3.4334 5.3101,-12.415 5.1498,-12.5754 -0.041,-0.04 -7.3368,-3.0909 -16.214,-6.7786 l -16.1401,-6.705 -0.9958,2.4518 c -0.5476,1.3485 -1.6835,3.8149 -2.5241,5.4808 l -1.5284,3.029 0.7339,0.491 c 2.4113,1.6134 29.3082,18.2297 29.524,18.2394 0.1443,0.01 1.0419,-1.6285 1.9947,-3.633 z m 43.9597,-4.5954 c 2.3542,-7.5269 5.3503,-19.1797 5.0171,-19.5129 -0.1849,-0.1849 -34.8626,-8.0805 -34.9811,-7.9648 -0.037,0.036 -0.5685,2.0035 -1.181,4.3718 -0.6125,2.3683 -1.6455,6.0339 -2.2956,8.1459 -0.65,2.112 -1.2439,4.128 -1.3197,4.48 l -0.1377,0.64 16.5807,6.924 c 9.1194,3.8082 16.6843,6.9402 16.8109,6.96 0.1267,0.02 0.8045,-1.8 1.5064,-4.044 z m -36.3541,-15.28 c 1.5478,-5.064 3.5006,-12.6635 3.3044,-12.8597 -0.2888,-0.2888 -33.9365,-7.799 -34.3061,-7.6572 l -0.366,0.1405 -0.2049,1.7082 c -0.1127,0.9395 -0.6397,3.4225 -1.1713,5.5177 -0.5315,2.0952 -0.9115,3.8643 -0.8445,3.9314 0.3737,0.3736 32.0768,13.4048 32.2303,13.2478 0.1014,-0.1038 0.7125,-1.9167 1.3581,-4.0287 z m 43.5163,-13.68 c 1.1355,-5.922 2.1738,-12.7278 2.6363,-17.28 l 0.2195,-2.16 -1.5573,-0.01 c -0.8565,0 -8.4693,-0.2885 -16.9173,-0.6345 -8.448,-0.3459 -15.9403,-0.6314 -16.6495,-0.6344 l -1.2895,-0.01 -0.5557,4.88 c -0.3057,2.684 -0.8986,6.6101 -1.3177,8.7247 -0.419,2.1145 -0.8126,4.1933 -0.8747,4.6194 l -0.1129,0.7747 17.12,3.9072 c 9.416,2.149 17.3445,3.9223 17.6189,3.9407 l 0.4989,0.033 z m -38.3862,-7.04 c 0.8857,-4.6217 2.0465,-13.5677 1.7883,-13.7814 -0.1731,-0.1432 -37.1448,-1.5651 -37.2636,-1.4331 -0.047,0.052 -0.1431,2.7704 -0.2142,6.0409 l -0.1291,5.9464 16.973,3.8659 c 9.3351,2.1262 17.1977,3.8783 17.4724,3.8936 l 0.4993,0.028 z m 41.5981,-18.24 c 0.4133,-5.3101 -0.029,-20.745 -0.6114,-21.3273 -0.1223,-0.1224 -36.6959,4.4102 -36.8143,4.5624 -0.019,0.025 0.084,0.9089 0.2302,1.9649 0.1458,1.056 0.3632,5.124 0.483,9.04 l 0.2178,7.12 1.792,0.025 c 0.9856,0.014 7.768,0.2819 15.072,0.5958 7.304,0.3138 14.6627,0.5905 16.3526,0.6148 l 3.0725,0.044 z m -39.5986,-5.76 c -0.1239,-3.74 -0.3258,-7.592 -0.4487,-8.56 l -0.2234,-1.76 -0.96,-0.074 c -0.528,-0.041 -9.0233,0.97 -18.8784,2.2457 l -17.9183,2.3194 0.084,1.1143 c 0.046,0.6128 0.222,3.1146 0.3903,5.5595 0.1683,2.4448 0.35,4.4892 0.4037,4.543 0.1439,0.1438 29.1672,1.3192 33.8072,1.3691 l 3.9687,0.043 z m -634.88785,-2.1571 4.50425,-0.3076 3.45689,-0.6671 c 4.36407,-0.8422 9.31317,-2.4573 13.2623,-4.328 l 3.07158,-1.455 3.52037,-2.3496 3.52036,-2.3496 2.4,-2.1971 c 8.87951,-8.1291 15.52894,-18.2406 20.92524,-31.82 l 1.47476,-3.7111 v -0.8809 -0.8809 l 1.088,-1.088 1.088,-1.088 h 0.92473 0.92473 l 39.18727,11.5445 c 21.553,6.3495 39.50376,11.7479 39.89058,11.9965 l 0.70332,0.4519 0.14395,-0.2364 c 0.14024,-0.2304 20.39965,-69.4063 20.486,-69.9497 l 0.0434,-0.2732 -14.22694,-3.801 -14.22695,-3.801 -0.79716,-0.7972 -0.79716,-0.7971 0.006,-1.2086 c 0.003,-0.6648 0.44271,-3.4296 0.97644,-6.1442 l 0.9704,-4.9355 0.86286,-0.7422 c 0.47457,-0.4082 1.23251,-0.835 1.6843,-0.9484 l 0.82144,-0.2061 14.72487,3.7357 c 8.09868,2.0546 14.75281,3.6944 14.78696,3.6439 0.19479,-0.2882 7.72329,-26.4597 8.25048,-28.6813 l 0.63345,-2.6695 -0.27451,-0.2484 c -0.15098,-0.1366 -15.74283,-9.9144 -34.64856,-21.7284 l -34.37405,-21.48 -0.9806,0.5727 -0.98061,0.5727 -18.16643,30.2252 -18.16642,30.2251 -0.67437,0.56 -0.67437,0.56 h -0.7524 -0.75241 l -2.97214,-2.4439 c -1.63468,-1.3441 -5.13748,-4.6201 -7.784,-7.28 l -4.81185,-4.8361 -2.87922,-3.84 c -7.03083,-9.3769 -10.85151,-17.8379 -12.81559,-28.3804 l -0.49548,-2.6596 -0.17261,-5.6 -0.17261,-5.6 0.36669,-3.3576 c 0.20168,-1.8468 0.73625,-5.1588 1.18794,-7.36 l 0.82125,-4.0024 1.53334,-4.64 c 0.84333,-2.552 2.27353,-6.3569 3.17821,-8.4553 l 1.64487,-3.8154 -0.34814,-1.0549 -0.34814,-1.0548 0.72483,-2.2506 0.72483,-2.2505 -0.30324,-0.2799 c -0.37047,-0.3419 -238.01435,-139.8185 -238.62706,-140.0536 l -0.43567,-0.1672 -32.25508,109.0003 -32.25508,109.0003 0.27483,0.2377 c 0.27338,0.2364 254.29776,76.3925 256.43483,76.8787 0.616,0.1402 1.51381,0.3314 1.99513,0.4249 l 0.87512,0.1701 0.18854,0.7512 0.18854,0.7512 -9.82728,33.5639 c -5.405,18.4602 -9.84365,33.7706 -9.86366,34.0232 l -0.0364,0.4592 1.12,0.2452 c 2.55897,0.5602 8.4013,1.3219 11.84,1.5436 2.024,0.1304 3.968,0.2565 4.32,0.2802 0.352,0.024 2.66691,-0.095 5.14425,-0.2646 z m 106.53595,-44.3248 c -16.71988,-4.8081 -30.5692,-8.8626 -30.77626,-9.01 l -0.37647,-0.2681 8.13963,-28.32 c 4.47679,-15.576 8.28766,-28.86 8.46859,-29.52 l 0.32898,-1.2 h 0.49682 c 0.7113,0 61.02695,17.2871 61.3331,17.5787 l 0.25459,0.2425 -7.87563,27.4894 c -9.74727,34.0223 -9.09675,31.8153 -9.3671,31.7795 -0.12455,-0.017 -13.90636,-3.9639 -30.62625,-8.772 z m 37.85722,-21.3192 c 4.44784,-15.5106 8.01606,-28.272 7.92937,-28.3587 -0.14089,-0.1409 -57.30571,-16.5814 -58.39159,-16.7933 l -0.44481,-0.087 -8.08035,28.16 c -4.44419,15.488 -8.02674,28.2173 -7.96121,28.2874 0.0935,0.1 58.04372,16.8476 58.69639,16.9633 0.0909,0.016 3.80437,-12.6612 8.2522,-28.1718 z M 474.08,1536.117 c -14.256,-4.2907 -39.312,-11.8248 -55.68,-16.7424 -26.95101,-8.0972 -54.34219,-16.3299 -126.84591,-38.1249 -13.44525,-4.0418 -24.55498,-7.416 -24.68829,-7.4984 l -0.24238,-0.1498 0.77176,-2.8007 c 0.42447,-1.5404 2.98578,-10.7928 5.69181,-20.5608 l 4.92005,-17.76 0.44173,-0.089 c 0.24295,-0.049 28.23137,8.2753 62.19648,18.4984 126.94146,38.2079 155.02027,46.656 164.31475,49.4374 3.96,1.185 7.30544,2.2489 7.43431,2.3642 l 0.2343,0.2097 -6.07813,20.2975 c -3.34298,11.1636 -6.18442,20.3926 -6.31431,20.5088 L 500,1543.9183 Z m 25.86382,3.163 c 3.07604,-9.8858 10.54406,-35.2987 10.41195,-35.4309 -0.0897,-0.09 -20.31238,-6.2269 -44.93939,-13.6383 -24.62701,-7.4115 -76.52677,-23.0313 -115.3328,-34.7107 l -70.55643,-21.2352 -0.20149,0.2276 c -0.3491,0.3942 -10.60247,37.8574 -10.41311,38.0468 0.18553,0.1855 3.6876,1.2443 74.92745,22.6543 106.89156,32.1246 136.66203,41.0784 145.28,43.6944 5.104,1.5493 9.45374,2.8294 9.66608,2.8445 l 0.38608,0.027 z m 142.97719,-46.3236 c -9.04144,-2.1822 -16.50614,-4.0348 -16.58822,-4.1169 -0.11409,-0.1141 6.67023,-29.1224 7.47994,-31.9826 l 0.16509,-0.5831 0.4708,0.1806 c 0.25895,0.099 7.9677,1.9756 17.13057,4.1693 9.16286,2.1937 16.72771,4.0566 16.81076,4.1396 0.083,0.083 -0.44183,2.5733 -1.1664,5.5339 -0.72457,2.9606 -2.44821,10.1348 -3.83031,15.9428 l -2.51291,10.56 -0.76016,0.062 c -0.4181,0.034 -8.15771,-1.7235 -17.19916,-3.9057 z m 16.91899,2.2865 c 0,-0.064 1.58491,-6.7115 3.52203,-14.7713 1.93712,-8.0598 3.4836,-14.6926 3.43664,-14.7396 -0.26006,-0.26 -31.61981,-7.5775 -31.78147,-7.4158 -0.2237,0.2237 -7.23908,29.4086 -7.10208,29.5456 0.17686,0.1769 30.4961,7.4278 31.20488,7.4627 0.396,0.02 0.72,-0.017 0.72,-0.082 z M 313.6,1415.96 l -15.84,-4.1477 -0.91841,-0.9942 -0.91841,-0.9941 0.20881,-1.792 0.20882,-1.792 1.45309,-4.598 1.45309,-4.598 0.76196,-0.762 0.76196,-0.762 0.73454,-0.037 c 1.35224,-0.068 1.95918,0.083 15.61455,3.8768 7.48,2.0782 14.20545,3.9402 14.94545,4.1377 l 1.34545,0.3592 0.96367,0.8108 0.96367,0.8109 0.20305,1.0824 0.20305,1.0823 -1.21872,5.2184 -1.21871,5.2183 -1.02146,1.04 -1.02145,1.04 -0.912,-0.026 c -0.5016,-0.014 -8.04,-1.8926 -16.752,-4.1739 z m 137.84,-12.3594 c -14.212,-8.2194 -25.84,-15.0619 -25.84,-15.2054 0,-0.2218 27.69949,-48.8139 28.02034,-49.155 0.062,-0.066 11.45881,6.4318 25.32621,14.4395 13.8674,8.0077 25.53745,14.7268 25.93345,14.9312 0.396,0.2044 0.72,0.5198 0.72,0.7009 0,0.4107 -27.92437,49.251 -28.15332,49.2408 -0.0917,0 -11.79468,-6.7325 -26.00668,-14.952 z m 38.64,-10.22 c 7.216,-12.61 13.15878,-23.0834 13.20617,-23.274 l 0.0862,-0.3466 -24.53101,-14.1685 c -13.49206,-7.7926 -24.56324,-14.1286 -24.60264,-14.08 -0.30422,0.3759 -26.39869,46.1323 -26.39869,46.2899 0,0.1816 48.5673,28.4406 48.96,28.4876 0.088,0.011 6.064,-10.2983 13.28,-22.9084 z m -125.84384,-39.4388 c -31.02212,-17.5458 -56.53765,-32.0365 -56.70119,-32.2016 l -0.29735,-0.3002 14.07387,-24.786 c 7.74062,-13.6323 14.12488,-24.837 14.18723,-24.8994 0.11184,-0.1118 113.07399,65.0439 113.54324,65.4909 l 0.24196,0.2305 -14.2032,24.0766 c -7.81175,13.2421 -14.25663,24.1248 -14.32195,24.1836 -0.0653,0.059 -25.5005,-14.2486 -56.52261,-31.7944 z m 69.44912,7.3412 c 7.3509,-12.484 13.4354,-22.8837 13.5211,-23.1105 l 0.15583,-0.4125 -55.57189,-32.0977 -55.57189,-32.0978 -0.37995,0.4178 c -0.20897,0.2297 -6.3212,10.9027 -13.58273,23.7176 l -13.20278,23.2998 0.2014,0.2014 c 0.252,0.252 110.68657,62.7548 110.90563,62.7694 0.088,0.01 6.17438,-10.2035 13.52528,-22.6875 z M 1133.76,1611.5031 c 7.304,-0.927 13.312,-1.7064 13.3511,-1.7321 0.2198,-0.1439 -1.7019,-8.3006 -2.8268,-11.9988 -0.7249,-2.3827 -1.3901,-4.5842 -1.4784,-4.8922 l -0.1605,-0.56 h -0.3946 c -0.3276,0 -23.3238,6.7131 -32.3675,9.4487 l -2.5967,0.7855 0.5516,2.3229 c 0.3034,1.2776 0.8028,3.9894 1.1097,6.0261 l 0.558,3.7032 5.4871,-0.7089 c 3.0178,-0.3899 11.463,-1.4673 18.767,-2.3944 z m 35.0554,-4.5122 18.2553,-2.3164 -0.1225,-0.9772 c -0.7027,-5.6057 -2.7262,-15.05 -4.4146,-20.6044 l -0.8107,-2.6671 -0.5415,0.2146 c -0.2978,0.118 -8.3894,2.5271 -17.9814,5.3535 -9.592,2.8264 -17.5513,5.2365 -17.6873,5.3559 l -0.2474,0.2169 0.4827,1.1552 c 0.7727,1.8494 2.9527,9.8094 3.536,12.9116 0.6429,3.4192 0.7056,3.6427 1.026,3.6602 0.1375,0.01 8.4649,-1.0288 18.5054,-2.3028 z m -44.6953,-12.7786 16.7601,-4.9323 0.1513,-0.3924 0.1512,-0.3925 -2.5657,-5.2757 c -1.4112,-2.9016 -3.3748,-6.6503 -4.3636,-8.3304 l -1.7978,-3.0548 -8.8678,4.5262 c -17.7366,9.0529 -21.8606,11.2191 -21.7544,11.4274 1.1386,2.2321 2.7286,5.9184 3.4733,8.0522 0.5221,1.496 1.0189,2.915 1.104,3.1532 l 0.1547,0.4333 0.3973,-0.141 c 0.2185,-0.078 7.9394,-2.3605 17.1574,-5.0732 z m 38.5216,-11.3628 c 9.8991,-2.9208 18.024,-5.3345 18.0554,-5.3638 0.1372,-0.1279 -3.7886,-9.6423 -5.279,-12.7937 -1.8567,-3.9262 -5.7143,-10.99 -6.148,-11.2581 l -0.287,-0.1773 -16.0915,8.21 c -8.8504,4.5156 -16.4745,8.4058 -16.9426,8.645 l -0.851,0.4349 2.2628,3.9268 c 2.084,3.6166 5.554,10.6691 6.2943,12.793 l 0.3116,0.8937 h 0.3384 c 0.1861,0 8.4376,-2.3897 18.3366,-5.3105 z m -32.2822,-13.584 0.2795,-0.2565 -1.5595,-2.239 c -2.0548,-2.9501 -7.0828,-9.4136 -8.8201,-11.338 l -1.3794,-1.5281 -12.32,10.434 c -6.776,5.7387 -12.5062,10.6137 -12.7338,10.8333 l -0.4138,0.3993 2.6085,3.4948 c 1.4347,1.9221 2.9016,4.0027 3.2599,4.6235 l 0.6514,1.1287 15.0739,-7.6478 c 8.2907,-4.2063 15.1997,-7.7632 15.3534,-7.9042 z m -25.2978,-7.8032 11.6945,-9.8978 -2.7187,-2.9617 c -1.4952,-1.6289 -4.066,-4.1985 -5.7129,-5.7102 l -2.9943,-2.7486 -11.0927,12.0209 -11.0927,12.0209 3.1476,3.3861 c 1.7311,1.8623 3.5549,3.8736 4.0528,4.4695 l 0.9053,1.0835 1.0583,-0.8824 c 0.582,-0.4854 6.3208,-5.3365 12.7528,-10.7802 z m 45.5888,-2.4223 c 9.1848,-4.664 16.7018,-8.6019 16.7045,-8.7509 0.01,-0.4699 -5.3861,-8.2027 -8.6292,-12.3691 -1.7125,-2.2 -4.3728,-5.4132 -5.9118,-7.1405 l -2.7981,-3.1406 -0.528,0.4487 c -0.2903,0.2468 -6.6479,5.6066 -14.1279,11.9106 -7.48,6.3041 -13.7265,11.5731 -13.8811,11.709 l -0.2811,0.2471 0.7611,0.9281 c 4.2487,5.1811 7.63,9.5171 9.2944,11.9189 l 2.0085,2.8984 0.3446,-0.09 c 0.1895,-0.049 7.8593,-3.9059 17.0441,-8.5699 z m -58.8466,-8.9488 c 6.0038,-6.5058 10.9161,-11.9597 10.9161,-12.1197 0,-0.4268 -5.0417,-4.6665 -10.1197,-8.5099 l -4.4306,-3.3534 -0.2266,0.3859 c -0.1246,0.2123 -3.9755,6.4339 -8.5576,13.8259 l -8.3312,13.44 1.1862,0.96 c 0.6524,0.528 2.7732,2.3539 4.7128,4.0575 1.9397,1.7036 3.6184,3.1076 3.7306,3.12 0.1121,0.012 5.1161,-5.3004 11.12,-11.8063 z m -14.7083,-12.1266 8.3698,-13.5554 -0.5727,-0.4238 c -2.3641,-1.7495 -14.7083,-8.7075 -14.9414,-8.4219 -0.052,0.064 -2.7003,6.3805 -5.8843,14.0365 -3.1841,7.656 -6.0089,14.4438 -6.2773,15.0839 l -0.4881,1.1639 3.9092,1.9351 c 2.1501,1.0643 4.6292,2.4343 5.5092,3.0443 l 1.6,1.1092 0.2029,-0.2082 c 0.1117,-0.1145 3.9694,-6.3081 8.5727,-13.7636 z m 56.5732,-0.7058 14.1813,-11.9788 -4.5651,-4.4862 c -5.144,-5.0552 -10.7704,-10.2298 -10.9165,-10.0398 -0.1136,0.1475 -22.5687,24.5875 -24.0108,26.1331 l -0.9769,1.0471 5.7471,5.7537 5.7471,5.7538 0.3063,-0.1021 c 0.1684,-0.056 6.6878,-5.4925 14.4875,-12.0808 z m -72.6892,-8.5393 c 3.2452,-7.7883 5.9004,-14.2847 5.9004,-14.4365 0,-0.5543 -13.151,-5.3308 -15.2937,-5.5548 l -0.8438,-0.088 -3.4295,16 c -1.8863,8.8 -3.4754,16.3444 -3.5313,16.7654 l -0.1017,0.7653 2.9344,0.5939 c 1.6139,0.3266 3.9899,0.9257 5.28,1.3314 l 2.3456,0.7375 0.4196,-0.9767 c 0.2308,-0.5372 3.0748,-7.349 6.32,-15.1373 z m -16.9344,-4.0641 c 1.9867,-9.3195 3.5813,-16.9657 3.5435,-16.9916 -0.2406,-0.1645 -6.0785,-1.1769 -8.9741,-1.5561 l -3.4654,-0.4539 -1.1393,0.7731 c -1.3151,0.8925 -1.8326,0.9451 -3.0499,0.3102 l -0.88,-0.4591 -0.028,0.861 c -0.015,0.4736 -0.2673,8.349 -0.56,17.501 l -0.5323,16.64 4.64,0.1802 c 2.552,0.099 5.1334,0.1712 5.7364,0.16 l 1.0965,-0.02 z m 71.5023,-0.3354 c 5.6668,-6.16 11.2631,-12.2116 12.4364,-13.4481 l 2.1331,-2.2482 -4.6077,-3.8318 c -5.1911,-4.317 -15.736,-12.3144 -16.2272,-12.307 -0.1772,0 -4.6555,7.013 -9.9518,15.5784 l -9.6297,15.5734 4.3497,3.285 c 2.3923,1.8067 5.7897,4.5087 7.5497,6.0044 1.76,1.4956 3.2999,2.6911 3.4221,2.6566 0.1221,-0.034 4.8586,-5.1027 10.5254,-11.2627 z m -18.6428,-18.3922 9.5931,-15.5122 -2.1246,-1.4253 c -5.6293,-3.7764 -18.4558,-11.1743 -18.7917,-10.8384 -0.1943,0.1943 -14.5409,34.6034 -14.4508,34.659 0.038,0.024 1.8864,0.9913 4.1074,2.1507 3.8244,1.9963 10.6484,6.0166 11.3059,6.6607 l 0.304,0.2977 0.2318,-0.24 c 0.1275,-0.132 4.5487,-7.2205 9.8249,-15.7522 z m -21.6595,-11.5047 c 3.837,-9.2074 7.0554,-16.9898 7.152,-17.2944 l 0.1758,-0.5537 -2.5135,-1.1489 c -3.6189,-1.6542 -8.3306,-3.485 -12.3795,-4.8102 -3.6762,-1.2031 -8.2364,-2.5014 -8.3297,-2.3715 -0.03,0.042 -1.8183,8.3821 -3.9743,18.5344 l -3.92,18.4587 0.2109,0.3413 c 0.116,0.1877 0.4296,0.3412 0.697,0.3412 0.729,0 9.8273,3.0682 12.7561,4.3017 1.408,0.593 2.6925,1.0475 2.8544,1.0101 0.1619,-0.037 3.4338,-7.6013 7.2708,-16.8087 z m -22.9626,-8.4008 3.924,-18.3423 -0.3433,-0.2074 c -0.1888,-0.1141 -2.2153,-0.5254 -4.5033,-0.914 l -4.16,-0.7065 -7.8866,-0.1643 -7.8866,-0.1644 -0.1929,3.3183 c -0.1061,1.8251 -0.3368,8.8623 -0.5128,15.6383 -0.1759,6.776 -0.3961,13.4432 -0.4893,14.816 l -0.1694,2.496 0.6277,-0.336 c 0.3453,-0.1848 1.0582,-0.336 1.5843,-0.336 h 0.9565 l 0.9475,0.7973 0.9476,0.7973 3.637,0.4775 c 2.0003,0.2626 4.933,0.7412 6.517,1.0635 l 2.88,0.5861 0.099,-0.2386 c 0.055,-0.1312 1.865,-8.4926 4.0233,-18.5808 z m -456.63205,-25.387 17.56851,-29.2848 1.35689,-3.0126 c 0.7463,-1.6569 1.71299,-3.4907 2.14822,-4.0752 0.43523,-0.5845 11.73616,-19.7827 25.11318,-42.6627 13.37703,-22.88 30.96261,-52.9521 39.07908,-66.8269 l 14.75721,-25.227 -0.2791,-0.533 -0.2791,-0.5331 -0.0431,-2.72 c -0.0524,-3.3106 -5.58346,-75.4262 -5.79923,-75.6127 -0.19593,-0.1694 -285.03569,-166.7262 -285.97799,-167.2224 l -0.70486,-0.3712 -38.49514,21.3194 c -21.17233,11.7256 -38.81848,21.4432 -39.21366,21.5946 l -0.71853,0.2754 -1.04147,-0.9008 c -0.57282,-0.4954 -10.89938,-6.6334 -22.94792,-13.64 l -21.90644,-12.7393 -14.89356,-0.746 -14.89356,-0.746 -1.07045,0.3494 -1.07046,0.3494 -1.16954,-0.4888 -1.16955,-0.4887 -11.62841,-0.5311 c -6.39562,-0.292 -11.66694,-0.4838 -11.71404,-0.4261 -0.0973,0.1193 -8.15793,130.3136 -8.07283,130.392 0.0304,0.028 78.46328,46.0679 174.29528,102.3108 l 174.24,102.2598 0.55832,0.8912 0.55831,0.8911 10e-4,0.8 10e-4,0.8 -2.10167,3.52 c -1.15592,1.936 -2.27919,3.664 -2.49615,3.84 -0.47997,0.3894 -3.58447,7.5573 -4.98942,11.52 -1.49763,4.2242 -3.07318,10.656 -3.69526,15.0851 l -0.54567,3.8851 0.14642,6.1949 0.14642,6.1949 0.70764,3.4812 c 0.3892,1.9146 1.20761,5.0074 1.81868,6.8729 l 1.11105,3.3917 1.87341,3.8471 1.87341,3.8471 2.22319,3.36 c 2.97083,4.49 5.63808,7.8004 9.51221,11.8058 3.48831,3.6065 9.42033,8.9698 9.93773,8.9849 l 0.32102,0.01 z M 276.56432,1050.96 c 0.0976,-2.244 0.12982,-4.1287 0.0716,-4.1882 -0.0582,-0.06 -4.58246,1.5244 -10.0539,3.52 l -9.94808,3.6282 0.83843,0.1047 c 0.90487,0.113 15.01693,0.8989 17.44105,0.9713 l 1.47345,0.044 z m -16.50964,-1.8288 10.82532,-3.9617 -0.48,-0.1578 c -0.264,-0.087 -5.27264,-0.5493 -11.13032,-1.0277 l -10.65032,-0.87 -0.22968,0.2288 -0.22968,0.2288 -0.10295,4.9631 -0.10294,4.963 0.63762,-0.2023 c 0.3507,-0.1114 5.50902,-1.9852 11.46295,-4.1642 z m -22.33876,3.8381 c -0.26397,-0.264 -16.34706,-7.8856 -16.42863,-7.7853 -0.107,0.1314 -0.50046,6.9649 -0.40424,7.0207 0.11001,0.064 13.17668,0.8051 15.25028,0.8651 0.95334,0.028 1.6655,-0.018 1.58259,-0.1005 z m 7.08408,-5.2748 v -4.7855 l -1.04,-0.1654 c -0.572,-0.091 -5.7561,-0.5535 -11.52022,-1.0276 l -10.48023,-0.8622 -0.23977,0.2569 -0.23978,0.2569 0.32,0.1264 c 0.176,0.07 5.36,2.5572 11.52,5.5282 6.16,2.971 11.308,5.4144 11.44,5.4298 l 0.24,0.028 z m 32.11145,-7.6145 c 0.1122,-1.188 0.20502,-2.9852 0.20628,-3.9939 l 0.002,-1.8339 -0.72,-0.1485 c -0.81604,-0.1683 -25.44025,-1.7976 -27.04,-1.7892 l -1.04,0.01 v 3.68 c 0,2.024 0.036,3.691 0.08,3.7045 0.044,0.013 6.344,0.5718 14,1.241 7.656,0.6691 14.00718,1.2341 14.11373,1.2556 0.10655,0.021 0.28552,-0.9331 0.39772,-2.1211 z m -32.00454,-4.2975 c 0.11258,-1.9676 0.1454,-3.6368 0.0729,-3.7093 -0.10149,-0.1015 -20.83072,-1.6409 -22.45271,-1.6674 l -0.35287,-0.01 -0.21985,3.4006 c -0.12092,1.8704 -0.14065,3.4799 -0.0438,3.5767 0.17184,0.1718 18.87955,1.864 21.48054,1.9429 l 1.31111,0.04 z M 277.24,1029.72 c 0.23773,-1.1886 0.27,-6.36 0.0397,-6.36 -0.4543,0 -25.25009,-1.9262 -26.95969,-2.0943 l -2,-0.1966 v 3.8655 3.8654 l 0.4,0.021 c 0.22,0.011 6.016,0.4249 12.88,0.9189 6.864,0.4939 13.146,0.9165 13.96,0.9391 l 1.48,0.041 z m -32.12,-5.08 v -3.84 h -0.65117 c -0.35815,0 -5.34297,-0.3671 -11.07739,-0.8159 -5.73441,-0.4488 -10.46239,-0.7728 -10.50661,-0.72 -0.0442,0.053 -0.17861,1.8348 -0.29863,3.9601 l -0.21823,3.8643 9.37602,0.6528 c 5.1568,0.359 10.27601,0.6721 11.37601,0.6958 l 2,0.043 z m 32.6351,-9.5055 0.005,-4.2255 -1.04,-0.1635 c -1.81605,-0.2855 -23.59903,-1.5731 -23.76724,-1.4049 -0.0886,0.089 0.0567,0.6826 0.32304,1.32 0.78425,1.877 0.48034,4.6475 -0.65591,5.9794 -0.22522,0.264 -0.45683,0.6906 -0.51469,0.948 l -0.1052,0.468 12.64,0.9805 12.64,0.9806 0.2351,-0.3286 0.2351,-0.3285 z m -36.35862,0.6513 -0.75648,-1.4942 v -1.2361 -1.236 l 0.4922,-1.178 c 0.27072,-0.6479 0.70007,-1.4077 0.95411,-1.6884 l 0.46191,-0.5104 -9.29206,-0.5767 c -5.11063,-0.3172 -9.37309,-0.4957 -9.47213,-0.3967 -0.17879,0.1788 -0.82078,8.2605 -0.66524,8.3745 0.099,0.072 16.25643,1.3309 17.87769,1.3924 l 1.15647,0.044 z M 713.793,1977.8401 c 0.12987,-0.396 2.79454,-8.7717 5.92148,-18.6127 l 5.68536,-17.8926 0.76969,-0.7697 0.76968,-0.7697 1.22987,-0.2774 c 0.67643,-0.1525 61.54243,-8.2321 135.25778,-17.9546 l 134.02791,-17.6773 0.87262,0.6397 c 0.47993,0.3519 1.10884,1.1025 1.39757,1.668 l 0.52494,1.0283 30.6751,34.2808 c 16.8712,18.8543 31.2272,34.9054 31.9022,35.6689 l 1.2272,1.3883 h -4.2864 -4.2864 l -30.3715,-33.9496 -30.37149,-33.9496 -1.12931,0.1742 c -0.62111,0.096 -59.7373,7.8904 -131.3693,17.3213 -71.632,9.4308 -130.528,17.2103 -130.88,17.2878 l -0.64,0.141 -3.50517,11.1274 c -1.92784,6.1201 -4.27538,13.5395 -5.21677,16.4875 l -1.7116,5.36 h -3.36479 -3.3648 z m 444.5601,-629.3672 -0.5269,-0.3076 -23.3131,-0.8012 c -12.8222,-0.4407 -53.1211,-1.8026 -89.5531,-3.0265 -36.432,-1.224 -68.133,-2.3154 -70.44667,-2.4254 l -4.20668,-0.2001 -0.23206,1.6873 -0.23207,1.6874 -0.89665,0.8966 -0.89664,0.8966 h -1.12006 -1.12007 l -0.94657,-0.7965 -0.94658,-0.7964 -0.15844,-0.8289 c -0.0871,-0.4558 0.0166,-2.4395 0.23049,-4.4082 l 0.38893,-3.5794 0.39729,-0.7424 0.39729,-0.7423 1.04383,-0.4362 1.04382,-0.4361 0.77042,0.1894 c 0.42373,0.1042 0.94031,0.3219 1.14795,0.4838 l 0.37754,0.2943 22.50246,0.7724 c 96.56427,3.3146 165.01757,5.5954 165.62277,5.5183 l 0.7204,-0.092 136.3196,-232.9151 c 74.9758,-128.10329 136.3121,-233.00729 136.3028,-233.11998 -0.01,-0.11269 -2.8302,-1.86089 -6.2687,-3.88489 l -6.2519,-3.68 -0.4851,-0.92954 -0.4851,-0.92953 0.1802,-1.11016 c 0.2468,-1.52081 0.7367,-1.9726 3.7125,-3.42346 1.4162,-0.6905 2.5737,-1.33463 2.5721,-1.43139 0,-0.0968 -13.3985,-8.1498 -29.7709,-17.89566 l -29.768,-17.71973 -0.593,0.53667 -0.593,0.53667 -1.0372,2.78306 -1.0372,2.78306 -0.646,0.71072 c -0.3552,0.39089 -1.1265,0.86931 -1.7138,1.06316 l -1.068,0.35244 -0.6716,-0.21318 c -0.3694,-0.11725 -12.5037,-7.49859 -26.9651,-16.40297 l -26.2933,-16.18979 -1.573,-0.20962 -1.573,-0.20962 -0.747,-0.86841 -0.747,-0.86842 v -1.2088 -1.20881 l 3.8706,-5.57335 c 2.1288,-3.06534 4.0968,-5.82725 4.3734,-6.13757 l 0.5028,-0.56423 7.6208,-197.99578 c 4.1914,-108.89768 7.5874,-199.12155 7.5466,-200.4975 l -0.074,-2.50172 -241.0881,-138.5435 C 949.35343,167.61413 840.83599,105.30791 840.80202,105.35478 c -0.034,0.0469 -1.97366,3.25322 -4.31043,7.12522 -2.33677,3.872 -4.51373,7.31841 -4.8377,7.65869 l -0.58903,0.61868 -1.88761,0.13653 -1.8876,0.13654 -5.24483,-2.5736 c -9.79564,-4.80667 -17.72213,-7.18063 -27.00482,-8.08787 l -3.84,-0.3753 -3.84,0.19897 c -11.33299,0.58722 -21.15189,3.94619 -31.44647,10.75762 l -3.78921,2.50714 0.12859,10.3513 0.1286,10.3513 0.52924,0.51378 c 0.29109,0.28258 9.81725,7.25389 21.16925,15.49182 11.352,8.23792 21.036,15.34166 21.52,15.78609 l 0.88,0.80805 v 0.67613 c 0,0.37188 -0.1728,0.84894 -0.384,1.06014 l -0.384,0.384 -0.816,-0.005 -0.816,-0.005 -20.8,-15.16228 c -11.44,-8.33925 -20.8343,-15.13081 -20.87623,-15.09236 -0.0419,0.0384 0.0176,8.15961 0.13236,18.04702 l 0.20858,17.97711 h 17.48365 17.48364 l 0.384,0.384 0.384,0.384 v 0.832 0.832 l -0.384,0.384 -0.384,0.384 h -52.39854 -52.39854 l -0.41982,0.88 -0.41983,0.88 -0.88018,0.1015 -0.88018,0.1015 -0.55745,-0.97989 -0.55746,-0.97989 -89.40247,0.002 -89.40248,0.002 -0.43752,-0.36312 -0.43753,-0.36311 v -0.90193 -0.90193 l 0.32,-0.19777 0.32,-0.19778 v -42.31995 -42.31995 l 0.45395,-0.620819 0.45395,-0.620814 170.34605,-1.658105 170.34605,-1.658104 0.75676,0.489223 0.75677,0.489222 -0.168,1.035234 -0.16799,1.035234 241.65126,138.847439 241.6512,138.84744 1.84,1.80455 1.84,1.80455 v 2.4063 c 0,1.32346 -3.4558,92.38605 -7.6796,202.36132 -4.2238,109.97526 -7.6798,200.28515 -7.68,200.68864 l -4e-4,0.73361 -1.4283,1.50639 c -0.7855,0.82851 -2.2928,2.75898 -3.3494,4.28993 l -1.9211,2.78355 25.2932,15.55384 25.2931,15.55384 1.3806,-0.52723 1.3805,-0.52722 -0.016,-0.69016 c -0.01,-0.37959 0.082,-0.90904 0.2017,-1.17655 l 0.2176,-0.48639 -2.8872,-1.70923 c -1.5879,-0.94007 -3.4626,-2.1261 -4.166,-2.63562 l -1.2788,-0.92639 v -0.60482 -0.60482 l 34.96,-58.38694 c 19.228,-32.11281 35.176,-58.75515 35.44,-59.20518 0.264,-0.45003 11.604,-19.32252 25.2,-41.93885 13.596,-22.61633 24.72,-41.25751 24.72,-41.42484 0,-0.16733 0.324,-0.7144 0.72,-1.21572 0.396,-0.50131 9.7381,-15.96473 20.7601,-34.36315 l 20.0401,-33.45167 -0.2574,-0.68118 -0.2574,-0.68118 0.4754,-0.67882 0.4755,-0.67882 h 0.6791 0.6791 l 18.4551,10.56 18.4551,10.56 1.2477,0.003 1.2476,0.003 1.6844,0.7842 1.6844,0.7842 0.8612,1.38322 0.8612,1.38322 15.7622,9.02946 15.7621,9.02945 h 0.9083 0.9082 l 0.384,0.384 c 0.2112,0.2112 0.384,0.73918 0.384,1.17328 v 0.78929 l -7.3995,12.64223 c -4.0698,6.95322 -7.6116,13.15725 -7.8707,13.78671 -0.2591,0.62947 -0.7299,1.43249 -1.0462,1.78449 -0.6172,0.68691 -15.8078,26.55881 -16.534,28.16 -0.2395,0.528 -0.7108,1.32 -1.0473,1.76 -0.8407,1.09933 -128.9837,220.37116 -128.9765,220.69794 0,0.14414 1.2573,0.98207 2.7868,1.86207 1.5295,0.88 3.1109,1.94502 3.5141,2.36672 l 0.7333,0.76673 v 1.35012 1.35012 l -0.6632,0.84315 c -0.3648,0.46374 -0.8328,0.84316 -1.04,0.84316 l -0.3768,10e-6 -137.5811,235.06486 -137.5812,235.0649 -0.782,0.6151 -0.782,0.6151 -0.9969,-0.01 c -0.5482,-0.01 -1.2339,-0.1482 -1.5237,-0.3174 z m 272.0283,-483.3932 c 0.3765,-0.63819 0.6428,-1.19275 0.5916,-1.23237 -0.051,-0.0396 -1.1094,-0.66947 -2.3516,-1.39967 l -2.2586,-1.32763 h -0.6869 -0.6869 l -0.2182,1.16285 -0.2181,1.16285 0.4436,0.26399 c 0.2441,0.1452 1.2357,0.76247 2.2037,1.37172 0.968,0.60925 1.9258,1.11917 2.1284,1.13316 l 0.3684,0.0254 z m 18.6167,-31.84984 c 8.8671,-15.16359 16.164,-27.74029 16.2154,-27.94822 l 0.093,-0.37806 -1.91,-1.01804 -1.9101,-1.01803 -2.5429,4.24626 c -16.4994,27.55064 -30.4775,51.21942 -30.3337,51.36319 0.4128,0.41279 3.5788,2.27427 3.9078,2.29764 l 0.3582,0.0254 z m -6.8755,-4.39883 c 9.0559,-15.19643 16.4229,-27.66302 16.3713,-27.70354 -0.052,-0.0405 -2.6859,-1.5202 -5.8539,-3.28818 l -5.76,-3.2145 -4.16,-0.97923 c -15.6167,-3.67602 -28.5979,-3.47845 -40.96,0.62339 l -3.84,1.27414 -3.84,1.86282 -3.84,1.86282 -3.36,2.22828 c -6.3121,4.18608 -13.4408,10.85222 -18.3927,17.19945 l -2.2286,2.85645 0.3107,0.1136 c 0.1708,0.0625 13.4146,7.9417 29.4306,17.50938 16.016,9.56768 29.2409,17.37086 29.3887,17.34039 0.1478,-0.0305 7.678,-12.48884 16.7339,-27.68527 z M 1365.92,816.87979 c 1.232,-1.60807 4.0398,-4.7865 6.2396,-7.06318 l 3.9996,-4.13942 3.2004,-2.57576 c 1.7602,-1.41667 4.4964,-3.43006 6.0804,-4.4742 l 2.88,-1.89844 4.48,-2.17537 4.48,-2.17537 3.52,-1.16159 c 4.3967,-1.4509 10.0026,-2.58766 15.2,-3.08227 l 4,-0.38066 5.12,0.20211 c 2.816,0.11116 6.5576,0.40906 8.3146,0.662 1.757,0.25294 3.2276,0.42688 3.2679,0.38653 0.1168,-0.1168 -46.87,-26.44415 -47.1953,-26.44415 -0.309,0 -31.7331,52.18904 -31.9616,53.08173 l -0.1327,0.51827 2.9735,1.81379 c 1.6355,0.99758 3.0456,1.81737 3.1336,1.82176 0.088,0.004 1.168,-1.30772 2.4,-2.91578 z m 105.1304,-21.35977 c 1.9885,-3.432 3.8096,-6.54178 4.047,-6.91063 l 0.4315,-0.67063 -18.6822,-10.76319 c -10.2752,-5.91976 -18.9532,-10.86337 -19.2844,-10.98581 -0.3313,-0.12244 -1.0343,-0.53532 -1.5623,-0.91751 -0.528,-0.38219 -8.7867,-5.19485 -18.3528,-10.6948 l -17.3927,-9.9999 -0.3182,0.3182 c -0.175,0.17502 -2.2455,3.53452 -4.601,7.46556 l -4.2828,7.14735 0.8588,0.44997 c 0.4723,0.24748 13.4802,7.5336 28.9063,16.19137 l 28.0476,15.74141 5.4584,1.86121 c 3.0021,1.02367 6.2274,2.23611 7.1674,2.69431 l 1.709,0.83309 0.16,1.39166 0.16,1.39165 1.76,1.04758 1.76,1.04757 0.1975,-0.19923 c 0.1086,-0.10957 1.8244,-3.00723 3.8129,-6.43923 z m 9.1096,-15.55739 c 1.584,-2.74169 2.88,-5.14912 2.88,-5.34987 v -0.36498 l -17.44,-3.08384 c -9.592,-1.6961 -17.4796,-3.0502 -17.5281,-3.0091 -0.098,0.0835 28.7958,16.78371 29.0481,16.78919 0.088,0.002 1.456,-2.23972 3.04,-4.9814 z m 8.0307,-13.7837 c 1.5294,-2.5856 2.7962,-4.8863 2.815,-5.11267 l 0.034,-0.41157 -17.8656,-10.72733 c -9.826,-5.90004 -17.9638,-10.72734 -18.0839,-10.72734 -0.1201,0 -1.6168,2.3366 -3.326,5.19244 l -3.1076,5.19244 0.2964,0.29641 c 0.3473,0.34728 35.8991,20.92137 36.2317,20.9675 0.1237,0.0172 1.4763,-2.08428 3.0057,-4.66988 z m -24.838,-4.03303 c -7.124,-4.09977 -13.7614,-7.91527 -14.7497,-8.47889 l -1.797,-1.02477 -3.083,5.14459 c -1.6957,2.82953 -3.083,5.24489 -3.083,5.36747 0,0.19726 33.4388,6.31401 35.0327,6.4083 l 0.6326,0.0374 z m -22.0872,-6.72687 c 1.4515,-2.43155 2.5886,-4.46484 2.5268,-4.51841 -0.2304,-0.19987 -29.1808,-16.8206 -29.2984,-16.8206 -0.1497,0 19.8394,22.20916 22.1025,24.55745 l 1.6167,1.67745 0.2066,-0.23745 c 0.1136,-0.1306 1.3943,-2.2269 2.8458,-4.65844 z m -9.7849,2.58099 c -0.6826,-0.748 -6.2736,-6.94218 -12.4245,-13.76484 l -11.1836,-12.40484 -0.3712,0.40484 c -0.2043,0.22266 -1.5581,2.39429 -3.0087,4.82584 l -2.6373,4.421 0.2109,0.21085 c 0.2225,0.22254 30.3271,17.62599 30.5346,17.65201 0.066,0.008 -0.4377,-0.59686 -1.1202,-1.34486 z m 65.4473,-6.77985 c 1.9465,-3.33293 3.506,-6.08597 3.4656,-6.11789 -0.9369,-0.73989 -36.1775,-21.26496 -36.3002,-21.14221 -0.097,0.0974 -1.8015,2.88219 -3.7869,6.18849 l -3.6098,6.01146 0.3717,0.22552 c 0.2044,0.12403 8.3637,5.03188 18.1317,10.90634 l 17.76,10.68082 0.2145,-0.34634 c 0.1179,-0.19048 1.807,-3.07327 3.7534,-6.40619 z m -48.278,-8.02015 c 1.4649,-2.464 2.8623,-4.79131 3.1051,-5.17181 l 0.4417,-0.69181 -17.5945,-10.55922 -17.5944,-10.55922 -3.3747,5.64424 -3.3747,5.64424 0.27,0.27001 c 0.1485,0.14851 8.1004,4.78142 17.6708,10.29537 l 17.4008,10.02536 0.1932,-0.20858 c 0.1062,-0.11472 1.3917,-2.22458 2.8567,-4.68858 z m 56.9041,-6.70303 c 1.7853,-3.07066 3.246,-5.71675 3.246,-5.8802 0,-0.16344 -7.884,-4.65972 -17.52,-9.99172 -9.636,-5.33201 -17.8257,-9.89049 -18.1993,-10.12996 l -0.6794,-0.43541 -3.0553,5.05016 c -1.6804,2.77759 -3.1027,5.22986 -3.1606,5.44949 l -0.1054,0.39932 17.76,10.53315 c 9.768,5.79323 17.9193,10.54553 18.114,10.56067 l 0.354,0.0275 z m -47.9245,-8.27527 3.7082,-6.17831 -11.3578,-6.70169 c -6.2468,-3.68594 -14.1945,-8.37276 -17.6615,-10.41516 l -6.3037,-3.71346 -3.6134,6.04077 c -1.9873,3.32243 -3.5263,6.12777 -3.42,6.2341 0.2627,0.26273 34.577,20.88206 34.7794,20.89878 0.088,0.007 1.8293,-2.76696 3.8688,-6.16503 z m 56.1887,-5.87311 2.9309,-5.01141 -16.8545,-9.56558 c -9.27,-5.26107 -17.4391,-9.90789 -18.1535,-10.32626 l -1.2989,-0.76068 -3.1465,5.26558 c -1.7306,2.89606 -3.0901,5.32028 -3.0211,5.38716 0.3471,0.33653 36.0117,20.00547 36.2891,20.01337 l 0.3236,0.009 z m -48.3005,-7.23542 c 1.2748,-2.15224 2.6807,-4.51466 3.1242,-5.24981 l 0.8065,-1.33664 -17.6842,-9.80522 c -9.7263,-5.39287 -17.8118,-9.83138 -17.9677,-9.86336 -0.1559,-0.032 -1.5801,2.0848 -3.165,4.70394 l -2.8816,4.76208 0.4451,0.26348 c 0.2447,0.14492 8.077,4.79293 17.405,10.32891 9.328,5.53599 17.104,10.07541 17.28,10.08761 l 0.32,0.0222 z m 55.5269,-5.11317 c 1.3559,-2.332 2.8257,-4.83511 3.2661,-5.56247 l 0.8008,-1.32247 -17.5157,-10.25789 c -9.6337,-5.64185 -17.7318,-10.3402 -17.9958,-10.44079 l -0.48,-0.18289 -3.4705,5.78608 c -1.9088,3.18235 -3.4208,5.83135 -3.36,5.88667 0.4022,0.36606 35.6969,20.31135 35.9601,20.3213 l 0.3295,0.0125 z m -46.7215,-9.6 3.1154,-5.2 -0.5252,-0.38886 c -0.9254,-0.68519 -35.0407,-19.99136 -35.1278,-19.87913 -0.482,0.62098 -6.2654,10.51303 -6.2652,10.71608 3e-4,0.22534 35.0134,19.87121 35.5236,19.93229 0.09,0.0108 1.5658,-2.32038 3.2792,-5.18038 z m 54.7969,-4.15984 c 1.232,-2.14617 2.632,-4.57808 3.1111,-5.40424 l 0.8711,-1.50212 -17.7453,-10.2669 c -9.7599,-5.64679 -17.8559,-10.26262 -17.9911,-10.25738 -0.1352,0.005 -1.6365,2.34524 -3.3363,5.2 l -3.0904,5.19048 0.3704,0.22389 c 3.3374,2.017 35.2956,20.7122 35.4105,20.71479 0.088,0.002 1.168,-1.75235 2.4,-3.89852 z m -46.3215,-9.96377 3.5269,-5.8836 -17.5985,-10.30921 -17.5984,-10.3092 -0.3993,0.43281 c -0.2197,0.23805 -1.9206,2.9794 -3.7799,6.0919 l -3.3805,5.65909 17.6556,10.0684 c 9.7106,5.53762 17.7437,10.08303 17.8514,10.10091 0.1077,0.0179 1.7829,-2.61511 3.7227,-5.8511 z m 55.4921,-5.72174 3.4106,-5.83465 -0.3706,-0.35515 c -0.6392,-0.61249 -34.5817,-20.12485 -35.008,-20.12485 h -0.405 l -3.454,5.75706 -3.4541,5.75705 17.7753,10.3081 c 9.7763,5.66946 17.8472,10.31238 17.9352,10.3176 0.088,0.005 1.6948,-2.6161 3.5706,-5.82516 z m -47.8129,-7.04148 c 1.2748,-2.15224 2.6777,-4.50965 3.1176,-5.23868 l 0.7998,-1.32551 -17.0375,-9.85097 c -9.3707,-5.41804 -17.3483,-10.04938 -17.728,-10.29188 l -0.6903,-0.4409 -3.1017,5.15871 -3.1016,5.15871 0.2106,0.21059 c 0.2867,0.28676 34.8523,20.53484 35.0534,20.53387 0.088,-4.3e-4 1.203,-1.7617 2.4777,-3.91394 z m 42.249,-23.50102 c -9.6446,-5.50831 -17.6747,-10.05045 -17.8448,-10.09363 l -0.3092,-0.0785 -3.3541,5.58559 c -1.8447,3.07208 -3.3236,5.61445 -3.2863,5.64973 0.037,0.0353 8.0446,4.68001 17.7941,10.32164 l 17.7263,10.2575 3.4048,-5.8136 3.4049,-5.8136 z m -33.0891,8.1955 3.4748,-5.79235 -0.4362,-0.40754 c -0.5314,-0.49652 -34.8955,-20.37751 -35.0101,-20.2548 -0.3457,0.36992 -6.8652,11.44243 -6.8622,11.65442 0,0.23042 34.7298,20.5322 35.1975,20.57712 0.089,0.009 1.7251,-2.59106 3.6362,-5.77685 z m 55.8588,-7.12387 2.9592,-5.07622 -0.2678,-0.26461 c -0.2783,-0.275 -34.2252,-19.47406 -34.8787,-19.72608 l -0.371,-0.14303 -3.3049,5.51777 -3.305,5.51778 0.3159,0.11458 c 0.1737,0.063 8.1639,4.61309 17.7559,10.11125 l 17.44,9.99666 0.3486,-0.48594 c 0.1917,-0.26727 1.6802,-2.77024 3.3078,-5.56216 z m -46.8691,-7.82511 c 1.7142,-2.87173 3.0663,-5.26155 3.0047,-5.31072 -0.7876,-0.62854 -35.3003,-20.03184 -35.5078,-19.96269 -0.1575,0.0525 -1.7149,2.47129 -3.461,5.37509 l -3.1747,5.27965 0.2157,0.22302 c 0.1187,0.12266 8.0605,4.76478 17.6486,10.31581 l 17.4327,10.0928 0.3626,-0.39582 c 0.1994,-0.21769 1.7651,-2.74541 3.4792,-5.61714 z m 54.6327,-5.45962 c 1.5777,-2.69343 2.8216,-4.94257 2.7643,-4.99807 -0.057,-0.0555 -7.8803,-4.71709 -17.3843,-10.35908 l -17.28,-10.25816 -0.3547,0.38813 c -0.7498,0.82044 -6.222,10.23809 -6.0493,10.41083 0.438,0.43792 34.9119,19.82404 35.1597,19.77172 0.1516,-0.032 1.5665,-2.26193 3.1443,-4.95537 z m -46.4797,-8.15915 c 1.7854,-2.97005 3.1779,-5.46834 3.0945,-5.55176 -0.083,-0.0834 -8.1174,-4.64423 -17.8532,-10.13516 l -17.7016,-9.9835 -3.2652,5.43666 -3.2653,5.43665 17.8253,10.1515 c 9.8038,5.58332 17.8464,10.12769 17.8722,10.0986 0.026,-0.0291 1.5079,-2.48294 3.2933,-5.45299 z m 58.6705,-13.352 c -0.4112,-0.40283 -34.1128,-19.25569 -34.643,-19.37945 l -0.4878,-0.11389 -3.6,6.05744 c -1.98,3.33159 -3.593,6.17681 -3.5845,6.32272 0.01,0.1459 7.8194,4.88251 17.3576,10.52579 l 17.3421,10.26051 3.9332,-6.71371 3.9332,-6.71371 z m -50.3586,-0.51218 c 1.7632,-2.93935 3.1715,-5.37864 3.1295,-5.42064 -0.2501,-0.25012 -35.2046,-20.91444 -35.2563,-20.84276 -0.5964,0.82677 -6.8822,11.55752 -6.8115,11.62822 0.2396,0.23966 35.3091,19.96325 35.5092,19.97091 0.1228,0.005 1.6658,-2.39638 3.4291,-5.33573 z m 55.199,-7.12325 2.6984,-4.62753 -0.5348,-0.35721 c -1.5996,-1.06845 -33.9162,-19.66653 -34.1621,-19.66017 -0.3805,0.01 -6.0362,9.55565 -5.8009,9.7909 0.3873,0.38729 34.643,19.57697 34.8646,19.53079 0.13,-0.0271 1.4507,-2.13164 2.9348,-4.67678 z m -46.5216,-7.29247 c 1.9885,-3.3 3.6631,-6.09302 3.7213,-6.20671 0.1112,-0.21747 -35.1538,-20.12036 -35.6206,-20.10357 -0.1487,0.005 -1.8108,2.59663 -3.6937,5.75842 l -3.4234,5.7487 9.3434,5.55529 c 21.8129,12.96927 25.6736,15.24542 25.8604,15.24661 0.1083,6.9e-4 1.824,-2.69874 3.8126,-5.99874 z m 52.2053,-2.4 c 0.6332,-1.1 2.0949,-3.61295 3.2482,-5.58434 l 2.097,-3.58433 -13.6601,-7.81886 c -7.513,-4.30037 -14.1937,-8.13392 -14.846,-8.51899 l -1.1859,-0.70013 -0.4524,1.08275 -0.4524,1.08274 -1.3737,1.17585 -1.3737,1.17584 -1.1021,0.20675 -1.1021,0.20675 -1.8663,-0.19507 -1.8664,-0.19507 -1.0138,1.77204 c -0.5577,0.97462 -0.9426,1.84338 -0.8554,1.93057 0.2709,0.27086 34.2712,19.9635 34.468,19.9635 0.1023,0 0.7039,-0.9 1.3371,-2 z m -43.5782,-11.91441 2.866,-4.79087 -0.2313,-0.22887 c -0.6019,-0.59539 -35.0568,-20.3985 -35.2659,-20.26925 -0.1315,0.0813 -1.5744,2.38749 -3.2064,5.12488 l -2.9672,4.97708 0.202,0.20198 c 0.4339,0.43394 35.2607,19.90466 35.4914,19.84228 0.1349,-0.0365 1.535,-2.22225 3.1114,-4.85723 z m 6.056,-10.08076 1.247,-2.07327 -0.4224,-0.81684 c -0.2324,-0.44926 -0.5185,-1.32893 -0.6359,-1.95483 l -0.2135,-1.13799 0.3791,-1.40802 c 0.2086,-0.77441 0.6574,-1.79869 0.9974,-2.27618 l 0.6182,-0.86817 -0.7313,-0.45974 c -1.9338,-1.21572 -31.6998,-18.14482 -31.7603,-18.0633 -0.038,0.0514 -1.4846,2.45967 -3.2143,5.35165 l -3.145,5.25814 0.7458,0.50186 c 1.8236,1.22717 34.428,20.11494 34.6454,20.07008 0.1335,-0.0276 0.804,-0.9831 1.4898,-2.12339 z M 517.12,171.41111 c 0,-7.27589 0.0946,-15.62789 0.21025,-18.56 l 0.21026,-5.33111 -2.21026,0.0131 -2.21025,0.0131 -0.75262,1.60393 -0.75262,1.60393 -1.30318,0.86295 -1.30318,0.86295 h -2.1042 c -1.15731,0 -2.4282,-0.1177 -2.8242,-0.26156 l -0.72,-0.26156 v 16.34156 16.34157 h 6.88 6.88 z m 16.74818,2.13661 c 0.1165,-6.10076 0.21182,-14.54607 0.21182,-18.76735 v -7.67506 l -6.63638,0.2304 c -3.65001,0.12671 -6.6556,0.25602 -6.67909,0.28734 -0.0235,0.0313 -0.11528,8.37295 -0.20399,18.53695 l -0.16129,18.48001 h 6.62855 6.62856 z m 16.09721,9.89229 c -0.10909,-0.66 -0.19993,-9.156 -0.20187,-18.88001 l -0.004,-17.68 -2.16,0.001 c -1.188,7.2e-4 -3.996,0.0949 -6.24,0.20939 l -4.08,0.20808 v 18.67062 18.67062 h 6.44187 6.44187 z M 565.76,165.5547 v -19.08531 l -6.32,0.23288 c -3.476,0.12808 -6.35947,0.27194 -6.40771,0.31969 -0.0482,0.0477 0.0112,8.53133 0.13207,18.85243 l 0.21978,18.76562 h 6.18793 6.18793 z m 15.51319,-0.0347 c -0.12729,-10.516 -0.27776,-19.17193 -0.33438,-19.2354 -0.0566,-0.0635 -2.79734,-0.009 -6.09049,0.12092 l -5.98755,0.23632 0.20962,6.73068 c 0.11528,3.70187 0.20961,12.25146 0.20961,18.99908 v 12.26841 h 6.11231 6.1123 z M 598.08,165.28 v -19.36 h -1.86912 c -1.02802,0 -4.05202,0.0945 -6.72,0.20997 l -4.85088,0.20996 v 19.15004 19.15004 h 6.72 6.72 z m 16.32,-0.16 V 145.6 l -2,0.001 c -1.1,6.5e-4 -4.052,0.0951 -6.56,0.20978 l -4.56,0.20861 v 19.31022 19.31023 h 6.56 6.56 z m 16.96,-0.20902 v -19.72902 l -6.63012,0.2258 c -3.64656,0.1242 -6.6525,0.25426 -6.67987,0.28903 -0.0274,0.0348 -0.11987,8.81121 -0.20557,19.50321 l -0.15581,19.44001 h 6.83569 6.83568 z M 646.08,164.8 v -19.84 h -1.86976 c -1.02837,0 -3.62037,0.0941 -5.76,0.20918 l -3.89024,0.20918 v 19.63082 19.63083 h 5.76 5.76 z m 18.87934,8.24001 C 664.95898,166.66 664.86387,157.66 664.74799,153.04 l -0.2107,-8.4 h -2.77777 c -1.52777,0 -4.96066,0.0945 -7.62864,0.20997 l -4.85088,0.20996 v 19.79004 19.79004 h 7.84 7.84 z M 679.36,164.48 v -20.16 h -2.67084 c -1.46896,0 -3.98896,0.0936 -5.6,0.20792 l -2.92916,0.20792 7.8e-4,12.99208 c 4.4e-4,7.14565 0.0954,16.12409 0.21097,19.95209 l 0.21017,6.96 h 5.38904 5.38904 z m 16.8515,14.16001 c -0.11533,-3.3 -0.2101,-12.44401 -0.2106,-20.32001 L 696,144 l -2.64,0.001 c -1.452,7.2e-4 -4.476,0.0949 -6.72,0.20939 l -4.08,0.20808 0.001,16.51062 c 8e-4,9.08084 0.0948,18.13062 0.20889,20.11062 l 0.20743,3.6 h 6.72171 6.7217 z m 16.74811,-0.32 c -2.2e-4,-3.476 -0.096,-12.71378 -0.21287,-20.5284 l -0.21248,-14.20841 -6.57043,0.21837 c -3.61374,0.12011 -6.60804,0.25597 -6.65399,0.30193 -0.046,0.046 0.006,9.18547 0.11515,20.31003 l 0.19869,20.22648 h 6.66816 6.66816 z m 16.5959,-0.64 c -0.0245,-3.828 -0.13246,-11.12357 -0.24,-16.21237 l -0.19551,-9.25237 -5.88677,15.81237 c -3.23773,8.6968 -5.95313,15.99237 -6.03424,16.21237 l -0.14746,0.4 h 6.27423 6.27424 z m 19.77642,-0.96 c -0.1158,-4.356 -0.21386,-13.03201 -0.21792,-19.28001 l -0.007,-11.36 -5.92979,-4.29047 c -3.26138,-2.35975 -6.19595,-4.62884 -6.52127,-5.04241 l -0.59148,-0.75195 0.44013,-1.51758 0.44012,-1.51759 3.82516,-3.70988 c 2.10383,-2.04043 4.79136,-4.48843 5.97228,-5.44 l 2.14712,-1.73012 -0.20447,-11.01335 c -0.11246,-6.05735 -0.24046,-11.03514 -0.28445,-11.06177 -0.044,-0.02662 -3.64398,0.0137 -7.99998,0.0896 l -7.92,0.13801 v 19.92457 19.92458 l 0.48,0.39836 0.48,0.39837 v 0.65562 c 0,0.36059 -0.1839,0.88296 -0.40867,1.16082 l -0.40867,0.50519 0.11666,20.72 0.11667,20.72001 h 8.34324 8.34325 z M 722.66107,160 l 6.16607,-16.48 -1.93357,-0.106 c -1.06346,-0.0583 -4.00665,-0.006 -6.54042,0.1156 l -4.60686,0.22162 0.2054,3.56439 c 0.11297,1.96042 0.21742,9.46839 0.23212,16.68439 0.0147,7.21601 0.0907,12.97601 0.16896,12.80001 0.0782,-0.176 2.91697,-7.736 6.3083,-16.80001 z M 517.51548,123.16486 517.6,102.00971 516,102.20208 c -0.88,0.1058 -4.084,0.19361 -7.12,0.19514 l -5.52,0.003 v 19.00869 19.00868 l 1.52,-0.46353 1.52,-0.46352 1.10512,0.20156 c 0.60781,0.11086 1.64347,0.4762 2.30146,0.81189 l 1.19634,0.61033 0.77122,1.04295 c 0.42417,0.57362 0.85999,1.29495 0.96849,1.60295 l 0.19728,0.56 h 2.24553 2.24552 z M 534.08,123.04 v -20.96 h -6.56 -6.56 v 6.02744 c 0,3.3151 -0.0955,12.7471 -0.21221,20.96 L 520.53559,144 h 6.7722 6.77221 z m 15.57176,10.02777 c -0.11647,-5.83673 -0.21161,-15.23273 -0.21144,-20.88 l 3.3e-4,-10.26777 -5.84033,0.10694 c -3.21217,0.0588 -5.85945,0.13082 -5.88282,0.16 -0.0234,0.0292 -0.14749,9.37706 -0.27582,20.77306 l -0.23331,20.72 h 6.32757 6.32757 z M 565.76,122.56 v -20.8 h -6.60938 -6.60939 l 0.20809,4.08 c 0.11445,2.244 0.20867,11.604 0.20938,20.8 l 10e-4,16.72 h 6.4 6.4 z m 15.36,-0.16 v -20.64 h -6.08 -6.08 v 20.64 20.64 h 6.08 6.08 z m 16.96,-0.32 v -20.64 h -6.88 -6.88 v 7.62756 c 0,4.19516 0.0954,13.48316 0.21204,20.64 l 0.21204,13.01244 h 6.66796 6.66796 z m 16.42975,14.9889 c 0.11564,-2.93211 0.21039,-12.18411 0.21056,-20.56 l 3.1e-4,-15.2289 -6.72031,0.0924 -6.72031,0.0923 V 121.93236 142.4 h 6.50975 6.50974 z M 631.36,121.6 v -20.48 h -6.72 -6.72 v 20.48 20.48 h 6.72 6.72 z m 14.60961,15.78941 c -0.11529,-2.40383 -0.20961,-11.54783 -0.20961,-20.32 V 101.12 h -5.6 -5.6 v 20.32 20.32 h 5.80961 5.80961 z M 749.00169,141.04 c -0.10612,-0.396 -0.19492,-3.8618 -0.19732,-7.70179 l -0.004,-6.98179 -0.91942,0.65469 c -0.50569,0.36008 -2.6194,2.28522 -4.69715,4.27808 l -3.77772,3.6234 4.61714,3.40299 c 2.53943,1.87164 4.74194,3.41231 4.89447,3.42371 l 0.27732,0.0207 z m -84.46952,-14.05253 c -0.11669,-7.94889 -0.21217,-17.09289 -0.21217,-20.32 V 100.8 h -7.52 -7.52 v 20.32 20.32 h 7.73217 7.73217 z m 14.82783,8.42507 c 0,-3.13911 -0.0955,-12.21111 -0.21217,-20.16 L 678.93566,100.8 h -5.7582 -5.7582 l 0.20939,5.52 c 0.11517,3.036 0.20983,12.108 0.21037,20.16 l 9.8e-4,14.64 h 5.76 5.76 z m 16.53168,-4.74472 c -0.11642,-5.5727 -0.21168,-14.6447 -0.21168,-20.16 V 100.48 h -6.56 -6.56 v 20.16 20.16 h 6.77168 6.77168 z m 16.63973,1.12019 c -0.11627,-4.78059 -0.21141,-13.78059 -0.21141,-20 V 100.48 h -6.76996 -6.76996 l 0.20996,4.85088 c 0.11548,2.66798 0.20996,11.66798 0.20996,20 V 140.48 h 6.77141 6.77142 z M 728.81534,139.6 c -0.51389,-1.35024 -13.13924,-31.37679 -13.17383,-31.33097 -0.0212,0.028 0.0349,7.21497 0.12466,15.97097 l 0.16314,15.92 h 6.54958 6.54958 z m 0.28374,-23.89308 -0.23376,-15.54692 h -6.50052 -6.50053 l 1.06115,2.48 c 0.58363,1.364 3.55384,8.42033 6.60048,15.68072 3.04663,7.2604 5.59954,13.14051 5.67313,13.06692 0.0736,-0.0736 0.0286,-7.12992 -0.1,-15.68072 z m 33.16515,-2.07207 4.34423,-2.16251 3.97577,-1.31754 c 5.06075,-1.67709 9.24182,-2.53015 14.75041,-3.0095 l 4.37464,-0.38068 4.58536,0.38409 c 9.80368,0.82121 19.77009,3.68744 29.01847,8.34541 1.47022,0.74048 2.70566,1.30122 2.74543,1.2461 0.0398,-0.0551 2.40577,-3.94185 5.25779,-8.63719 2.85201,-4.69533 5.36057,-8.620229 5.57458,-8.721997 0.383,-0.182134 -20.56351,-0.0662 -63.21091,0.349843 l -21.68,0.2115 v 9.857054 9.85705 l 2.96,-1.92956 c 1.628,-1.06126 4.9149,-2.90269 7.30423,-4.09207 z M 1414.72,857.76003 c 0,-0.088 0.072,-0.16 0.16,-0.16 0.088,0 0.16,0.072 0.16,0.16 0,0.088 -0.072,0.16 -0.16,0.16 -0.088,0 -0.16,-0.072 -0.16,-0.16 z M 808.9,153.06141 c 0.231,-0.0924 0.507,-0.0811 0.61333,0.0253 0.10634,0.10633 -0.0827,0.18197 -0.42,0.16807 l -0.61333,-0.0253 z"
       id="path1"
       inkscape:label="Grundriss"
       sodipodi:insensitive="true" /><path
       style="display:inline;opacity:0.205;mix-blend-mode:normal;fill:#000000"
       d="m 791.52,1310.207 c -1.232,-0.6845 -32.264,-18.64 -68.96,-39.9011 -80.5667,-46.6792 -116.97409,-67.7714 -219.68,-127.2688 -73.24257,-42.4293 -133.60572,-77.4009 -157.65663,-91.3389 -5.57514,-3.2309 -10.24568,-5.8744 -10.37897,-5.8744 -0.13328,0 -0.87308,0.3054 -1.64398,0.6786 l -1.40165,0.6785 -1.13323,-0.1839 c -1.47158,-0.2388 -2.54494,-0.96 -3.31962,-2.2305 l -0.62353,-1.0227 10e-4,-1.28 0.001,-1.28 1.3876,-2.4 c 0.76317,-1.32 3.8376,-6.432 6.83205,-11.36 4.83473,-7.9565 18.17125,-30.72808 65.78203,-112.31996 7.39441,-12.672 15.07995,-25.82526 17.07897,-29.22946 1.99903,-3.4042 3.63459,-6.3051 3.63459,-6.44645 0,-0.14135 -24.948,-14.98566 -55.44,-32.98736 -30.492,-18.00169 -56.66687,-33.48501 -58.16637,-34.40738 l -2.72637,-1.67702 -0.71363,-1.26974 -0.71363,-1.26974 v -1.33746 -1.33747 l 0.3584,-0.69896 c 0.19712,-0.38443 0.75192,-1.13097 1.23289,-1.65897 0.48098,-0.528 14.31253,-23.568 30.73679,-51.2 16.42426,-27.632 46.9509,-78.968 67.83698,-114.08 20.88608,-35.112 56.26273,-94.584 78.61476,-132.16001 63.84508,-107.32994 81.82057,-137.59592 83.10642,-139.92925 l 1.19542,-2.16924 1.17917,-0.77128 c 0.64854,-0.4242 1.56752,-0.86573 2.04218,-0.98118 l 0.863,-0.2099 1.12652,0.37179 1.12653,0.37178 0.82388,0.97913 0.82389,0.97913 17.18658,9.50406 17.18659,9.50406 1.05931,1.38565 1.05932,1.38565 36.38068,20.95345 c 20.00938,11.52441 36.66869,21.00716 37.02069,21.07278 l 0.64,0.11932 7.66471,-13.20297 c 4.21559,-7.26164 17.64359,-30.29225 29.84,-51.17914 L 744.96,325.55151 v -1.44301 c 0,-0.79366 0.13709,-1.80359 0.30464,-2.24428 0.16755,-0.4407 4.06994,-6.96607 8.67197,-14.50083 l 8.36734,-13.69957 1.42781,-1.34989 1.42781,-1.34988 1.68284,-0.53047 1.68284,-0.53047 1.49738,0.66236 1.49737,0.66236 v 0.33799 0.338 h 1.45028 1.45028 l 1.07704,0.45002 c 0.59238,0.24751 24.59975,13.91176 53.34972,30.36499 78.95945,45.18748 147.46776,84.39524 232.43268,133.02278 42.24,24.175 95.52,54.66803 118.4,67.76228 22.88,13.09425 41.9215,24.10775 42.3145,24.47445 0.393,0.36669 0.7896,0.89594 0.8814,1.1761 0.092,0.28016 0.6751,0.83789 1.2963,1.2394 l 1.1294,0.73002 0.628,1.02998 0.628,1.02999 v 1.47224 c 7e-4,0.80974 -0.1657,1.95094 -0.3696,2.53601 -0.204,0.58507 -9.8705,17.92256 -21.4812,38.52775 -11.6107,20.6052 -25.289,44.88 -30.3962,53.944 -5.1073,9.064 -12.4528,22.096 -16.3235,28.96 -3.8707,6.864 -7.5279,13.36756 -8.1271,14.45236 l -1.0895,1.97235 0.2541,0.15284 c 5.5226,3.32085 72.882,41.88464 74.2699,42.52013 1.1086,0.50761 8.3806,4.68032 16.16,9.27269 7.7794,4.59237 20.4083,11.95462 28.0643,16.36055 7.656,4.40593 14.2577,8.3119 14.6704,8.67993 0.4127,0.36803 0.9527,1.058 1.2,1.53326 l 0.4496,0.86411 v 1.16652 1.16652 l -0.5375,0.90996 -0.5376,0.90996 -1.0119,0.54498 -1.012,0.54498 -1.5705,-0.15221 -1.5705,-0.15221 -8.7438,-5.03847 -8.7437,-5.03847 -0.3763,0.15278 c -0.2069,0.084 -12.8264,22.30733 -28.0433,49.38512 -15.217,27.07778 -41.7974,74.36033 -59.0677,105.07233 -17.2702,30.712 -55.207,98.17596 -84.304,149.91996 -29.0969,51.744 -58.9388,104.808 -66.3153,117.92 -7.3764,13.112 -13.4066,24.056 -13.4003,24.32 0.01,0.264 0.1014,1.2 0.2114,2.08 l 0.2,1.6 -0.7589,1.12 -0.759,1.12 -1.3127,0.4575 -1.3128,0.4575 -2.1229,-0.5747 -2.1228,-0.5746 -15.43397,-9.0997 c -8.48866,-5.0048 -15.79393,-9.4427 -16.23393,-9.8621 -0.44,-0.4194 -16.136,-9.8173 -34.88,-20.8843 -18.744,-11.067 -36.45063,-21.5263 -39.34807,-23.2429 l -5.26807,-3.121 -0.426,0.5822 c -0.2343,0.3202 -3.42502,5.9101 -7.09049,12.4221 -3.66548,6.512 -9.18205,16.304 -12.25906,21.76 -3.077,5.456 -9.16382,16.256 -13.52627,24 -4.36244,7.744 -10.81244,19.192 -14.33332,25.44 -3.52088,6.248 -13.09162,23.24 -21.26831,37.76 -8.1767,14.52 -15.36107,27.2196 -15.96528,28.2212 l -1.09855,1.8211 -1.06606,0.6589 -1.06606,0.6588 h -0.74874 -0.74874 l -1.20756,1.1792 -1.20756,1.1792 -1.84593,0.1147 -1.84593,0.1147 z m 10.41335,-22.2655 7.763,-12.4423 1.3872,-0.8377 1.3872,-0.8377 34.59836,-61.3795 c 19.02911,-33.7588 34.54494,-61.4331 34.47963,-61.4984 -0.13679,-0.1368 -9.95592,-5.9488 -47.30874,-28.0025 -14.696,-8.6768 -39.032,-23.047 -54.08,-31.9337 -15.048,-8.8868 -39.24,-23.1734 -53.76,-31.748 -14.52,-8.5746 -43.464,-25.6674 -64.32,-37.984 -20.856,-12.3166 -57.504,-33.95857 -81.44,-48.09328 -81.11612,-47.90079 -112.26845,-66.29865 -131.79418,-77.83467 l -19.47417,-11.50556 -0.25004,0.26982 c -0.13753,0.1484 -3.48513,5.81383 -7.43912,12.58983 -18.6123,31.89614 -51.99887,89.07582 -61.93891,106.07996 -6.07012,10.384 -11.35429,19.672 -11.74259,20.64 -0.38831,0.968 -2.46638,4.6239 -4.61794,8.1242 l -3.91193,6.3641 0.42444,0.3964 c 0.23344,0.218 16.91244,9.9394 37.06444,21.6033 39.86847,23.0756 36.92038,21.368 183.68,106.3909 104.9101,60.778 124.39808,72.0677 192.15833,111.3204 l 40.63833,23.5412 0.36684,-0.3902 c 0.20176,-0.2146 3.86019,-5.9893 8.12985,-12.8326 z m 207.22865,-91.3234 c 7.7115,-13.7259 59.7241,-106.2289 144.3452,-256.71426 21.8226,-38.808 52.753,-93.81289 68.7342,-122.23308 15.9812,-28.42019 29.113,-51.89219 29.1817,-52.16 l 0.125,-0.48693 -2.6541,-1.58949 c -19.9121,-11.92533 -58.419,-34.30671 -99.4452,-57.80065 l -4.9513,-2.83536 -0.2095,0.23275 c -0.1153,0.12801 -20.0811,35.51275 -44.3684,78.63275 -24.2874,43.12 -47.3238,84.016 -51.192,90.88 -3.8682,6.86401 -10.5621,18.74401 -14.8754,26.40001 -4.3132,7.656 -10.0735,17.88 -12.8007,22.72 -2.7272,4.84 -32.49409,57.67015 -66.14867,117.40036 l -61.19015,108.6003 0.26366,0.2445 c 0.24663,0.2287 67.23402,39.8171 80.58366,47.6236 3.344,1.9555 10.544,6.2089 16,9.4522 5.456,3.2432 10.064,5.9082 10.24,5.9222 l 0.32,0.025 z m 179.8618,-383.19427 c -1.041,-2.21377 -17.8238,-44.42568 -17.8238,-44.83038 v -0.42831 l 1.2,-0.34632 c 0.66,-0.19047 12.8353,-3.11474 27.0563,-6.49837 l 25.8563,-6.15206 0.2683,0.28772 c 0.4282,0.45904 10.5791,19.2987 10.5791,19.63427 0,0.32188 -46.0447,39.37345 -46.4242,39.37345 -0.1226,0 -0.443,-0.468 -0.712,-1.04 z m 22.9199,-21.47755 c 11.207,-9.48066 20.3763,-17.3833 20.3763,-17.56142 0,-0.17813 -1.8825,-3.80699 -4.1833,-8.06413 l -4.1833,-7.74025 -24.3767,5.82472 -24.3767,5.82473 0.039,0.43695 c 0.022,0.24032 3.3853,8.78895 7.4749,18.99695 4.0896,10.208 7.5633,18.89155 7.7192,19.29677 l 0.2835,0.73676 0.4253,-0.25676 c 0.2339,-0.14122 9.5946,-8.01367 20.8015,-17.49432 z M 861.48436,1067.2197 C 849.87351,1026.676 827.45576,948.35984 811.66713,893.18384 795.87851,838.00783 782.85448,792.74709 782.72485,792.60441 l -0.23569,-0.25942 -36.92458,9.31855 c -20.30852,5.1252 -42.82858,10.81428 -50.04458,12.64242 -7.216,1.82813 -44.8,11.31735 -83.52,21.08716 -38.72,9.76981 -80.408,20.29004 -92.64,23.3783 -12.232,3.08825 -35.30321,8.89043 -51.26935,12.89371 l -29.02936,7.27871 0.0694,0.22967 c 0.0693,0.22956 5.22571,3.28641 86.78935,51.4511 23.936,14.13461 60.584,35.7765 81.44,48.09309 20.856,12.31659 49.872,29.452 64.48,38.0787 14.608,8.6267 37.216,21.9779 50.24,29.6693 13.024,7.6915 36.064,21.2976 51.2,30.2358 46.22062,27.2945 63.70698,37.6218 86.87391,51.3071 12.22865,7.2237 22.28052,13.0875 22.3375,13.0305 0.057,-0.057 -9.39619,-33.2757 -21.00705,-73.8194 z m 45.87478,38.2841 c 12.75734,-22.6633 107.78116,-191.32895 140.80126,-249.91997 2.7773,-4.928 8.5786,-15.224 12.8918,-22.88 4.3133,-7.656 11.0068,-19.536 14.8745,-26.4 29.4423,-52.25049 56.8467,-100.92442 57.1733,-101.54741 0.2155,-0.41107 0.3369,-0.80237 0.2697,-0.86956 -0.067,-0.0672 -2.5629,0.50912 -5.5459,1.28069 -2.9831,0.77156 -32.3518,8.1914 -65.2638,16.48853 -32.912,8.29714 -63.728,16.07662 -68.48,17.28774 -4.752,1.21112 -42.984,10.86634 -84.96,21.45604 -41.976,10.5897 -85.57043,21.58868 -96.87652,24.44218 -11.30609,2.85349 -20.6313,5.26294 -20.72269,5.35433 -0.0914,0.0914 0.25569,1.59296 0.77128,3.33681 0.86022,2.90949 36.71796,128.16039 80.06043,279.65062 9.66814,33.792 17.65269,61.6441 17.74346,61.8936 l 0.16502,0.4535 0.26308,-0.2935 c 0.1447,-0.1615 7.72048,-13.5416 16.83508,-29.7336 z M 434.24,876.06384 c 0,-0.088 -0.072,-0.16 -0.16,-0.16 -0.088,0 -0.16,0.072 -0.16,0.16 0,0.088 0.072,0.16 0.16,0.16 0.088,0 0.16,-0.072 0.16,-0.16 z m -1.93344,-15.04001 c 5.01198,-8.57217 36.97224,-63.30938 112.10601,-192 6.67905,-11.44 18.15612,-31.096 25.50461,-43.68 C 590.407,590.2558 651.70701,485.26557 666.83125,459.3564 674.25006,446.64732 680.32,436.11981 680.32,435.96195 c 0,-0.15787 -2.34,-1.62996 -5.2,-3.27132 -2.86,-1.64136 -12.616,-7.25126 -21.68,-12.46645 -9.064,-5.21519 -24.30503,-13.98372 -33.86896,-19.48563 -9.56393,-5.50191 -17.43216,-9.95651 -17.48497,-9.8991 -0.0528,0.0574 3.04532,12.34437 6.88473,27.30437 3.83941,14.96 7.05709,27.58121 7.1504,28.04712 l 0.16965,0.84712 -1.02543,0.17159 c -0.56398,0.0944 -13.43807,1.07652 -28.60908,2.18255 l -27.58367,2.01096 -0.19597,-0.19597 -0.19597,-0.19597 7.05114,-29.7137 c 3.87813,-16.34253 7.16638,-30.0737 7.30722,-30.5137 l 0.25608,-0.8 13.52078,-0.16 13.52078,-0.16 -14.03084,-8.06797 c -7.71696,-4.43738 -14.24068,-8.14849 -14.49715,-8.24691 l -0.46631,-0.17894 -41.16451,69.20691 c -39.4064,66.25113 -68.78163,115.63494 -164.32143,276.24692 -23.76539,39.952 -44.9573,75.57234 -47.09314,79.15631 -2.13584,3.58396 -3.88335,6.6298 -3.88335,6.76853 0,0.13873 6.80391,4.40639 15.11979,9.4837 8.31589,5.0773 15.57573,9.63171 16.13299,10.1209 0.55726,0.48919 14.45336,8.82642 30.88021,18.52718 16.42686,9.70076 34.04301,20.12705 39.14701,23.16954 l 9.28,5.53179 0.43972,-0.059 0.43972,-0.059 z m 19.30464,5.7466 c 7.42984,-1.86169 17.3968,-4.37521 22.1488,-5.58559 4.752,-1.21039 17.784,-4.50583 28.96,-7.32321 11.176,-2.81737 42.352,-10.68188 69.28,-17.47667 26.928,-6.79479 57.528,-14.51588 68,-17.15798 10.472,-2.6421 24.08,-6.08154 30.24,-7.64321 6.16,-1.56167 30.928,-7.81619 55.04,-13.89893 24.112,-6.08274 46.27886,-11.68045 49.2597,-12.43935 l 5.41969,-1.37983 0.11089,-0.33266 c 0.061,-0.18296 -9.67748,-34.51837 -21.64103,-76.30091 C 746.4657,665.44954 724.93368,590.22383 710.58033,540.06383 696.22697,489.90382 684.36222,448.58079 684.21422,448.23487 l -0.26911,-0.62895 -0.49506,0.78895 c -0.27228,0.43392 -6.54172,11.15695 -13.93209,23.82895 -7.39036,12.672 -33.99357,58.248 -59.11823,101.28001 -25.12466,43.032 -51.73414,88.608 -59.13218,101.28 -7.39804,12.672 -19.16929,32.832 -26.15833,44.8 -50.87595,87.11976 -87.31297,149.55795 -87.65713,150.20853 l -0.40654,0.76852 0.52843,-0.20278 c 0.29063,-0.11153 6.60738,-1.72598 14.03722,-3.58767 z m 352.35392,-88.92902 c 7.93918,-2.01433 37.90688,-9.58184 66.59488,-16.81668 28.688,-7.23484 58.064,-14.65061 65.28,-16.4795 7.216,-1.82888 37.672,-9.51935 67.68,-17.08994 30.008,-7.57058 64.28,-16.22157 76.16,-19.22441 11.88,-3.00284 28.26,-7.13084 36.4,-9.17332 8.14,-2.04249 14.7999,-3.80364 14.7998,-3.91367 -3e-4,-0.23014 -437.96015,-252.30374 -438.64772,-252.46948 l -0.45388,-0.10942 0.1849,0.58942 c 0.56347,1.79619 41.50772,144.773 80.39817,280.74942 8.88458,31.064 16.2276,56.732 16.31782,57.04 0.0902,0.308 0.31864,0.56 0.5076,0.56 0.18895,0 6.83925,-1.64809 14.77843,-3.66242 z m 365.57748,-137.67638 28.1553,-49.9788 0.3512,-1.63778 0.3513,-1.63778 8.8382,-15.68079 c 4.8611,-8.62444 8.857,-15.90387 8.8799,-16.17652 l 0.042,-0.49573 -24.16,-13.82965 c -13.288,-7.60631 -42.232,-24.17175 -64.32,-36.81209 -22.088,-12.64033 -48.008,-27.47754 -57.6,-32.97157 -9.592,-5.49403 -31.48,-18.02224 -48.64,-27.84046 -32.62532,-18.66683 -66.24931,-37.90979 -105.12,-60.16003 -26.19065,-14.99197 -76.56718,-43.82232 -117.12,-67.02745 -15.136,-8.66112 -27.76074,-15.96326 -28.05497,-16.22697 l -0.53497,-0.47948 -0.47648,0.74694 c -0.26207,0.41082 -17.78089,30.3922 -38.93071,66.62528 l -38.45422,65.87833 0.26568,0.25844 c 0.14612,0.14215 64.20167,37.04574 142.34567,82.00797 78.144,44.96224 178.872,102.92107 223.84,128.7974 l 81.76,47.04787 0.2137,-0.21417 c 0.1175,-0.11779 12.8835,-22.70462 28.3689,-50.19296 z M 587.84,446.273 c 13.464,-0.99226 24.53484,-1.85408 24.60187,-1.91517 0.067,-0.0611 -2.82737,-11.60024 -6.432,-25.64254 l -6.55387,-25.53147 -11.78443,-0.2369 c -6.48144,-0.13029 -11.85243,-0.16891 -11.93552,-0.0858 -0.11621,0.1162 -12.06705,49.92196 -13.02209,54.27021 l -0.20481,0.9325 0.42542,0.007 c 0.23399,0.004 11.44143,-0.80521 24.90543,-1.79746 z"
       id="path2"
       inkscape:label="Decke" /><path
       style="display:inline;fill:#000000"
       d="M 1029.461,386.2883 C 897.5606,310.96469 789.3806,249.09966 789.06103,248.81045 c -0.31956,-0.2892 -0.58103,-0.76919 -0.58103,-1.06663 0,-0.62564 0.97243,-1.6 1.59683,-1.6 0.23454,0 108.56362,61.74 240.73127,137.2 l 240.3049,137.2 0.3164,0.67953 0.3164,0.67952 -0.3641,0.68048 -0.3642,0.68047 -0.8688,-0.0118 -0.8687,-0.0118 z"
       id="path3"
       inkscape:label="Leinwand" /></g><g
     inkscape:groupmode="layer"
     id="layer1"
     inkscape:label="KinoReff"
     style="display:inline"><g
       inkscape:groupmode="layer"
       id="g11"
       inkscape:label="KinoReff_Lautsprecher_Bass"><path
         style="fill:#000000;fill-opacity:0.40000001;stroke:#000000;stroke-opacity:1"
         d="m 998.26768,351.91667 48.37882,27.5707 -27.3106,43.43687 -48.37883,-28.35101 z"
         id="path11"
         sodipodi:nodetypes="ccccc" /><g
         inkscape:groupmode="layer"
         id="g5"
         inkscape:label="KinoReff_Lautsprecher Kopie"><path
           style="fill:#000000;fill-opacity:0.40000001;stroke:#000000;stroke-opacity:1"
           d="m 906.19192,297.55556 48.37879,27.5707 -27.31061,43.43687 -48.37879,-28.35101 z"
           id="path5"
           sodipodi:nodetypes="ccccc" /></g><g
         inkscape:groupmode="layer"
         id="g27"
         inkscape:label="KinoReff_Lautsprecher Kopie Kopie"><path
           style="fill:#000000;fill-opacity:0.40000001;stroke:#000000;stroke-opacity:1"
           d="m 1098.2036,412.32113 48.3787,27.5707 -27.3106,43.43687 -48.3788,-28.35101 z"
           id="path27"
           sodipodi:nodetypes="ccccc" /></g></g><g
       inkscape:groupmode="layer"
       id="layer9"
       inkscape:label="KinoReff_Lautsprecher_Bass_Symbole"
       style="display:inline"><path
         style="fill:none;stroke:#000000;stroke-width:1px;stroke-linecap:butt;stroke-linejoin:miter;stroke-opacity:1"
         d="m 885.11588,339.5255 38.46025,23.1691 -1.05048,-22.66454 4.88923,-7.86717 -15.30663,-9.20301 -4.94538,7.95096 z"
         id="path11086"
         sodipodi:nodetypes="ccccccc" /><text
         xml:space="preserve"
         style="font-style:normal;font-weight:normal;font-size:17.4677px;line-height:1.25;font-family:sans-serif;fill:#000000;fill-opacity:1;stroke:none;stroke-width:0.436691"
         x="902.83148"
         y="349.45776"
         id="text12999"
         transform="scale(1.002296,0.99770927)"><tspan
           sodipodi:role="line"
           id="tspan12997"
           x="902.83148"
           y="349.45776"
           style="stroke-width:0.436691">B</tspan></text></g><g
       inkscape:groupmode="layer"
       id="g19212"
       inkscape:label="KinoReff_Lautsprecher_Bass_Symbole Kopie"
       style="display:inline"><path
         style="fill:none;stroke:#000000;stroke-width:1px;stroke-linecap:butt;stroke-linejoin:miter;stroke-opacity:1"
         d="m 978.66948,394.11553 38.46022,23.1691 -1.0505,-22.66454 4.8893,-7.86717 -15.3067,-9.20301 -4.9453,7.95096 z"
         id="path19206"
         sodipodi:nodetypes="ccccccc" /><text
         xml:space="preserve"
         style="font-style:normal;font-weight:normal;font-size:17.4677px;line-height:1.25;font-family:sans-serif;fill:#000000;fill-opacity:1;stroke:none;stroke-width:0.436691"
         x="995.24268"
         y="403.75958"
         id="text19210"
         transform="scale(1.002296,0.99770926)"><tspan
           sodipodi:role="line"
           id="tspan19208"
           x="995.24268"
           y="403.75958"
           style="stroke-width:0.436691">B</tspan></text></g><g
       inkscape:groupmode="layer"
       id="g19220"
       inkscape:label="KinoReff_Lautsprecher_Bass_Symbole Kopie Kopie"
       style="display:inline"><path
         style="fill:none;stroke:#000000;stroke-width:1px;stroke-linecap:butt;stroke-linejoin:miter;stroke-opacity:1"
         d="m 1079.5249,454.86083 38.4603,23.1691 -1.0505,-22.66454 4.8893,-7.86717 -15.3067,-9.20301 -4.9453,7.95096 z"
         id="path19214"
         sodipodi:nodetypes="ccccccc" /><text
         xml:space="preserve"
         style="font-style:normal;font-weight:normal;font-size:17.4677px;line-height:1.25;font-family:sans-serif;fill:#000000;fill-opacity:1;stroke:none;stroke-width:0.436691"
         x="1095.6697"
         y="465.13388"
         id="text19218"
         transform="scale(1.002296,0.99770926)"><tspan
           sodipodi:role="line"
           id="tspan19216"
           x="1095.6697"
           y="465.13388"
           style="stroke-width:0.436691">B</tspan></text></g><g
       inkscape:groupmode="layer"
       id="layer3"
       inkscape:label="KinoReff_Lautsprecher_Center"><path
         style="fill:#000000;fill-opacity:0.4;stroke:#000000;stroke-opacity:1"
         d="m 933.38988,372.06852 11.03515,-17.65624 34.7363,19.97605 -11.56248,18.27914 z"
         id="path13"
         sodipodi:nodetypes="ccccc" /><g
         inkscape:groupmode="layer"
         id="g25"
         inkscape:label="KinoReff_Lautsprecher_Center Kopie"><path
           style="fill:#000000;fill-opacity:0.4;stroke:#000000;stroke-opacity:1"
           d="m 1028.4761,427.97995 11.0352,-17.65624 25.5441,14.71554 9.1873,5.10399 -11.5576,18.43566 z"
           id="path25"
           sodipodi:nodetypes="cccccc" /></g></g><g
       inkscape:groupmode="layer"
       id="layer8"
       inkscape:label="KinoReff_Lautsprecher_Center_Symbol"><g
         inkscape:groupmode="layer"
         id="g2424"
         inkscape:label="KinoReff_Lautsprecher_Center_Symbol Kopie"><path
           style="fill:none;stroke:#000000;stroke-width:1px;stroke-linecap:butt;stroke-linejoin:miter;stroke-opacity:1"
           d="m 1038.0911,429.60596 18.3998,10.82928 -0.9975,-11.74244 2.547,-3.94763 -5.9262,-3.58859 -2.5872,4.01625 z"
           id="path2422" /><text
           xml:space="preserve"
           style="font-style:normal;font-weight:normal;font-size:10.1634px;line-height:1.25;font-family:sans-serif;fill:#000000;fill-opacity:1;stroke:none;stroke-width:0.254084"
           x="1106.9503"
           y="411.60388"
           id="text18212"
           transform="scale(0.94563953,1.0574854)"><tspan
             sodipodi:role="line"
             id="tspan18210"
             x="1106.9503"
             y="411.60388"
             style="stroke-width:0.254084">C</tspan></text></g><path
         style="fill:none;stroke:#000000;stroke-width:1px;stroke-linecap:butt;stroke-linejoin:miter;stroke-opacity:1"
         d="m 943.026,375.14126 18.39982,10.82928 -0.81633,-11.62079 2.36585,-4.06928 -5.92619,-3.58859 -2.5872,4.01625 z"
         id="path2420"
         sodipodi:nodetypes="ccccccc" /><text
         xml:space="preserve"
         style="font-style:normal;font-weight:normal;font-size:10.8842px;line-height:1.25;font-family:sans-serif;fill:#000000;fill-opacity:1;stroke:none;stroke-width:0.272105"
         x="921.66876"
         y="392.74716"
         id="text15085"
         transform="scale(1.0322719,0.96873702)"><tspan
           sodipodi:role="line"
           id="tspan15083"
           x="921.66876"
           y="392.74716"
           style="stroke-width:0.272105">C</tspan></text></g><g
       inkscape:groupmode="layer"
       id="layer4"
       inkscape:label="KinoReff_Lautsprecher_Legende"
       transform="translate(96.373657,-351.65348)"><g
         inkscape:groupmode="layer"
         id="g26"
         inkscape:label="KinoReff_Lautsprecher_Center Kopie Kopie"><path
           style="fill:url(#pattern26);fill-opacity:1;stroke:#000000;stroke-opacity:1"
           d="m 1071.5132,542.37769 -0.3678,-50.02602 75.2229,0.18391 0.9196,49.47427 z"
           id="path26"
           sodipodi:nodetypes="ccccc" /></g><g
         inkscape:groupmode="layer"
         id="g12"
         inkscape:label="KinoReff_Lautsprecher Kopie Kopie Kopie"><path
           style="fill:url(#pattern12);fill-opacity:1;stroke:#000000;stroke-opacity:1"
           d="m 1070.4509,435.3893 77.438,0.35065 -0.4588,46.37958 -76.3345,-0.0275 z"
           id="path12"
           sodipodi:nodetypes="ccccc" /></g><g
         inkscape:groupmode="layer"
         id="layer5"
         inkscape:label="Texte_Legende"
         transform="translate(-96.373657,351.65348)"><text
           xml:space="preserve"
           style="fill:#ececec;stroke:#000000;stroke-opacity:1"
           x="1260.5822"
           y="102.25907"
           id="text27"><tspan
             sodipodi:role="line"
             x="1260.5822"
             y="102.25907"
             id="tspan30">Bass Lautsprecher</tspan><tspan
             sodipodi:role="line"
             x="1260.5822"
             y="117.25907"
             id="tspan32">Modell:</tspan></text><text
           xml:space="preserve"
           style="fill:#ececec;stroke:#000000;stroke-opacity:1"
           x="1264.6283"
           y="159.64186"
           id="text28"><tspan
             sodipodi:role="line"
             x="1264.6283"
             y="159.64186"
             id="tspan29">Center Lautsprecher</tspan><tspan
             sodipodi:role="line"
             x="1264.6283"
             y="174.64186"
             id="tspan33">Modell:</tspan></text></g></g></g></svg>
