<?xml version="1.0" encoding="UTF-8" standalone="no"?>
<!-- Created with Inkscape (http://www.inkscape.org/) -->

<svg
   width="210mm"
   height="296.99997mm"
   viewBox="0 0 793.70081 1122.5196"
   version="1.1"
   id="svg1"
   xml:space="preserve"
   inkscape:export-filename="Nils_wants_you_A3_hoch.png"
   inkscape:export-xdpi="96"
   inkscape:export-ydpi="96"
   xmlns:inkscape="http://www.inkscape.org/namespaces/inkscape"
   xmlns:sodipodi="http://sodipodi.sourceforge.net/DTD/sodipodi-0.dtd"
   xmlns:xlink="http://www.w3.org/1999/xlink"
   xmlns="http://www.w3.org/2000/svg"
   xmlns:svg="http://www.w3.org/2000/svg"><sodipodi:namedview
     id="namedview1"
     pagecolor="#505050"
     bordercolor="#ffffff"
     borderopacity="1"
     inkscape:showpageshadow="0"
     inkscape:pageopacity="0"
     inkscape:pagecheckerboard="1"
     inkscape:deskcolor="#505050"
     inkscape:document-units="mm" /><defs
     id="defs1" /><g
     inkscape:label="Ebene 1"
     inkscape:groupmode="layer"
     id="layer1"><path
       d="m 35.63814,865.01644 h 7.541915 v 7.54191 H 35.63814 Z m 7.541915,0 h 7.541914 v 7.54191 h -7.541914 z m 7.541914,0 h 7.54192 v 7.54191 h -7.54192 z m 7.54192,0 h 7.541914 v 7.54191 h -7.541914 z m 7.541914,0 h 7.541915 v 7.54191 h -7.541915 z m 7.541915,0 h 7.541919 v 7.54191 h -7.541919 z m 7.541919,0 h 7.541915 v 7.54191 h -7.541915 z m 15.083829,0 h 7.541924 v 7.54191 h -7.541924 z m 7.541924,0 h 7.54191 v 7.54191 h -7.54191 z m 52.7934,0 h 7.54192 v 7.54191 h -7.54192 z m 22.62575,0 h 7.54192 v 7.54191 h -7.54192 z m 7.54192,0 h 7.54192 v 7.54191 h -7.54192 z m 15.08383,0 h 7.54191 v 7.54191 h -7.54191 z m 7.54191,0 h 7.54192 v 7.54191 h -7.54192 z m 7.54192,0 h 7.54192 v 7.54191 h -7.54192 z m 7.54192,0 h 7.54191 v 7.54191 h -7.54191 z m 7.54191,0 h 7.54192 v 7.54191 h -7.54192 z m 7.54192,0 h 7.54192 v 7.54191 h -7.54192 z m 7.54192,0 h 7.54191 v 7.54191 h -7.54191 z m -211.17365,7.54191 h 7.541915 v 7.54192 H 35.63814 Z m 45.251497,0 h 7.541915 v 7.54192 h -7.541915 z m 105.586823,0 h 7.54192 v 7.54192 h -7.54192 z m 15.08383,0 h 7.54191 v 7.54192 h -7.54191 z m 45.2515,0 h 7.54191 v 7.54192 h -7.54191 z m -211.17365,7.54192 h 7.541915 v 7.54192 H 35.63814 Z m 15.083829,0 h 7.54192 v 7.54192 h -7.54192 z m 7.54192,0 h 7.541914 v 7.54192 h -7.541914 z m 7.541914,0 h 7.541915 v 7.54192 h -7.541915 z m 15.083834,0 h 7.541915 v 7.54192 h -7.541915 z m 15.083829,0 h 7.541924 v 7.54192 h -7.541924 z m 22.625754,0 h 7.54191 v 7.54192 h -7.54191 z m 7.54191,0 h 7.54192 v 7.54192 h -7.54192 z m 7.54192,0 h 7.54191 v 7.54192 h -7.54191 z m 7.54191,0 h 7.54192 v 7.54192 h -7.54192 z m 30.16767,0 h 7.54191 v 7.54192 h -7.54191 z m 7.54191,0 h 7.54192 v 7.54192 h -7.54192 z m 22.62575,0 h 7.54191 v 7.54192 h -7.54191 z m 15.08383,0 h 7.54192 v 7.54192 h -7.54192 z m 7.54192,0 h 7.54191 v 7.54192 h -7.54191 z m 7.54191,0 h 7.54192 v 7.54192 h -7.54192 z m 15.08384,0 h 7.54191 v 7.54192 h -7.54191 z m -211.17365,7.54192 h 7.541915 v 7.54191 H 35.63814 Z m 15.083829,0 h 7.54192 v 7.54191 h -7.54192 z m 7.54192,0 h 7.541914 v 7.54191 h -7.541914 z m 7.541914,0 h 7.541915 v 7.54191 h -7.541915 z m 15.083834,0 h 7.541915 v 7.54191 h -7.541915 z m 15.083829,0 h 7.541924 v 7.54191 h -7.541924 z m 7.541924,0 h 7.54191 v 7.54191 h -7.54191 z m 15.08383,0 h 7.54191 v 7.54191 h -7.54191 z m 30.16766,0 h 7.54191 v 7.54191 h -7.54191 z m 15.08383,0 h 7.54192 v 7.54191 h -7.54192 z m 7.54192,0 h 7.54191 v 7.54191 h -7.54191 z m 7.54191,0 h 7.54192 v 7.54191 h -7.54192 z m 22.62575,0 h 7.54191 v 7.54191 h -7.54191 z m 15.08383,0 h 7.54192 v 7.54191 h -7.54192 z m 7.54192,0 h 7.54191 v 7.54191 h -7.54191 z m 7.54191,0 h 7.54192 v 7.54191 h -7.54192 z m 15.08384,0 h 7.54191 v 7.54191 h -7.54191 z M 35.63814,895.1841 h 7.541915 v 7.54192 H 35.63814 Z m 15.083829,0 h 7.54192 v 7.54192 h -7.54192 z m 7.54192,0 h 7.541914 v 7.54192 h -7.541914 z m 7.541914,0 h 7.541915 v 7.54192 h -7.541915 z m 15.083834,0 h 7.541915 v 7.54192 h -7.541915 z m 15.083829,0 h 7.541924 v 7.54192 h -7.541924 z m 7.541924,0 h 7.54191 v 7.54192 h -7.54191 z m 7.54191,0 h 7.54192 v 7.54192 h -7.54192 z m 7.54192,0 h 7.54191 v 7.54192 h -7.54191 z m 15.08383,0 h 7.54191 v 7.54192 h -7.54191 z m 7.54191,0 h 7.54192 v 7.54192 h -7.54192 z m 7.54192,0 h 7.54191 v 7.54192 h -7.54191 z m 7.54191,0 h 7.54192 v 7.54192 h -7.54192 z m 22.62575,0 h 7.54192 v 7.54192 h -7.54192 z m 22.62575,0 h 7.54191 v 7.54192 h -7.54191 z m 15.08383,0 h 7.54192 v 7.54192 h -7.54192 z m 7.54192,0 h 7.54191 v 7.54192 h -7.54191 z m 7.54191,0 h 7.54192 v 7.54192 h -7.54192 z m 15.08384,0 h 7.54191 v 7.54192 h -7.54191 z m -211.17365,7.54192 h 7.541915 v 7.54192 H 35.63814 Z m 45.251497,0 h 7.541915 v 7.54192 h -7.541915 z m 22.625753,0 h 7.54191 v 7.54192 h -7.54191 z m 22.62574,0 h 7.54192 v 7.54192 h -7.54192 z m 15.08383,0 h 7.54192 v 7.54192 h -7.54192 z m 15.08383,0 h 7.54192 v 7.54192 h -7.54192 z m 15.08384,0 h 7.54191 v 7.54192 h -7.54191 z m 7.54191,0 h 7.54192 v 7.54192 h -7.54192 z m 22.62575,0 h 7.54191 v 7.54192 h -7.54191 z m 45.2515,0 h 7.54191 v 7.54192 h -7.54191 z m -211.17365,7.54192 h 7.541915 v 7.54191 H 35.63814 Z m 7.541915,0 h 7.541914 v 7.54191 h -7.541914 z m 7.541914,0 h 7.54192 v 7.54191 h -7.54192 z m 7.54192,0 h 7.541914 v 7.54191 h -7.541914 z m 7.541914,0 h 7.541915 v 7.54191 h -7.541915 z m 7.541915,0 h 7.541919 v 7.54191 h -7.541919 z m 7.541919,0 h 7.541915 v 7.54191 h -7.541915 z m 15.083829,0 h 7.541924 v 7.54191 h -7.541924 z m 15.083834,0 h 7.54192 v 7.54191 h -7.54192 z m 15.08383,0 h 7.54192 v 7.54191 h -7.54192 z m 15.08383,0 h 7.54192 v 7.54191 h -7.54192 z m 15.08383,0 h 7.54192 v 7.54191 h -7.54192 z m 15.08384,0 h 7.54191 v 7.54191 h -7.54191 z m 15.08383,0 h 7.54192 v 7.54191 h -7.54192 z m 15.08383,0 h 7.54191 v 7.54191 h -7.54191 z m 7.54191,0 h 7.54192 v 7.54191 h -7.54192 z m 7.54192,0 h 7.54192 v 7.54191 h -7.54192 z m 7.54192,0 h 7.54191 v 7.54191 h -7.54191 z m 7.54191,0 h 7.54192 v 7.54191 h -7.54192 z m 7.54192,0 h 7.54192 v 7.54191 h -7.54192 z m 7.54192,0 h 7.54191 v 7.54191 h -7.54191 z m -143.2964,7.54191 h 7.54191 v 7.54191 h -7.54191 z m 15.08383,0 h 7.54191 v 7.54191 h -7.54191 z m 15.08383,0 h 7.54191 v 7.54191 h -7.54191 z m 7.54191,0 h 7.54192 v 7.54191 h -7.54192 z m 7.54192,0 h 7.54191 v 7.54191 h -7.54191 z m 7.54191,0 h 7.54192 v 7.54191 h -7.54192 z m 7.54192,0 h 7.54192 v 7.54191 h -7.54192 z m 7.54192,0 h 7.54191 v 7.54191 h -7.54191 z m 7.54191,0 h 7.54192 v 7.54191 h -7.54192 z m -143.2964,7.54191 h 7.541915 v 7.54192 H 35.63814 Z m 7.541915,0 h 7.541914 v 7.54192 h -7.541914 z m 7.541914,0 h 7.54192 v 7.54192 h -7.54192 z m 7.54192,0 h 7.541914 v 7.54192 h -7.541914 z m 22.625748,0 h 7.541915 v 7.54192 h -7.541915 z m 15.083829,0 h 7.541924 v 7.54192 h -7.541924 z m 37.709584,0 h 7.54191 v 7.54192 h -7.54191 z m 7.54191,0 h 7.54192 v 7.54192 h -7.54192 z m 7.54192,0 h 7.54191 v 7.54192 h -7.54191 z m 7.54191,0 h 7.54192 v 7.54192 h -7.54192 z m 7.54192,0 h 7.54192 v 7.54192 h -7.54192 z m 7.54192,0 h 7.54191 v 7.54192 h -7.54191 z m 22.62575,0 h 7.54191 v 7.54192 h -7.54191 z m 22.62574,0 h 7.54192 v 7.54192 h -7.54192 z m 7.54192,0 h 7.54191 v 7.54192 h -7.54191 z m 7.54191,0 h 7.54192 v 7.54192 h -7.54192 z m 15.08384,0 h 7.54191 v 7.54192 h -7.54191 z m -203.631735,7.54192 h 7.541914 v 7.54192 h -7.541914 z m 7.541914,0 h 7.54192 v 7.54192 h -7.54192 z m 22.625749,0 h 7.541919 v 7.54192 h -7.541919 z m 30.167672,0 h 7.54191 v 7.54192 h -7.54191 z m 67.87724,0 h 7.54191 v 7.54192 h -7.54191 z m 7.54191,0 h 7.54192 v 7.54192 h -7.54192 z m 15.08384,0 h 7.54191 v 7.54192 h -7.54191 z m 7.54191,0 h 7.54191 v 7.54192 h -7.54191 z m 7.54191,0 h 7.54192 v 7.54192 h -7.54192 z m 7.54192,0 h 7.54192 v 7.54192 h -7.54192 z m 30.16767,0 h 7.54191 v 7.54192 h -7.54191 z M 80.889637,940.4356 h 7.541915 v 7.54191 h -7.541915 z m 15.083829,0 h 7.541924 v 7.54191 h -7.541924 z m 45.251494,0 h 7.54192 v 7.54191 h -7.54192 z m 30.16767,0 h 7.54191 v 7.54191 h -7.54191 z m 15.08383,0 h 7.54192 v 7.54191 h -7.54192 z m 7.54192,0 h 7.54191 v 7.54191 h -7.54191 z m 7.54191,0 h 7.54191 v 7.54191 h -7.54191 z m 30.16766,0 h 7.54192 v 7.54191 h -7.54192 z m 7.54192,0 h 7.54192 v 7.54191 h -7.54192 z m -196.089815,7.54191 h 7.541914 v 7.54192 h -7.541914 z m 15.083834,0 h 7.541914 v 7.54192 h -7.541914 z m 15.083829,0 h 7.541919 v 7.54192 h -7.541919 z m 22.625748,0 h 7.541924 v 7.54192 h -7.541924 z m 22.625754,0 h 7.54191 v 7.54192 h -7.54191 z m 7.54191,0 h 7.54192 v 7.54192 h -7.54192 z m 7.54192,0 h 7.54191 v 7.54192 h -7.54191 z m 7.54191,0 h 7.54192 v 7.54192 h -7.54192 z m 7.54192,0 h 7.54191 v 7.54192 h -7.54191 z m 37.70958,0 h 7.54192 v 7.54192 h -7.54192 z m 30.16766,0 h 7.54192 v 7.54192 h -7.54192 z m 30.16767,0 h 7.54191 v 7.54192 h -7.54191 z m -165.922153,7.54192 h 7.541915 v 7.54192 h -7.541915 z m 7.541915,0 h 7.541914 v 7.54192 h -7.541914 z m 15.083838,0 h 7.54191 v 7.54192 h -7.54191 z m 15.08383,0 h 7.54191 v 7.54192 h -7.54191 z m 45.25149,0 h 7.54192 v 7.54192 h -7.54192 z m 15.08383,0 h 7.54192 v 7.54192 h -7.54192 z m 45.2515,0 h 7.54191 v 7.54192 h -7.54191 z m 7.54191,0 h 7.54192 v 7.54192 h -7.54192 z m -181.005981,7.54192 h 7.54192 v 7.54191 h -7.54192 z m 7.54192,0 h 7.541914 v 7.54191 h -7.541914 z m 30.167663,0 h 7.541914 v 7.54191 h -7.541914 z m 7.541914,0 h 7.541924 v 7.54191 h -7.541924 z m 7.541924,0 h 7.54191 v 7.54191 h -7.54191 z m 7.54191,0 h 7.54192 v 7.54191 h -7.54192 z m 7.54192,0 h 7.54191 v 7.54191 h -7.54191 z m 15.08383,0 h 7.54191 v 7.54191 h -7.54191 z m 15.08383,0 h 7.54191 v 7.54191 h -7.54191 z m 7.54191,0 h 7.54192 v 7.54191 h -7.54192 z m 7.54192,0 h 7.54192 v 7.54191 h -7.54192 z m 7.54192,0 h 7.54191 v 7.54191 h -7.54191 z m 7.54191,0 h 7.54192 v 7.54191 h -7.54192 z m 22.62575,0 h 7.54191 v 7.54191 h -7.54191 z m 30.16766,0 h 7.54192 v 7.54191 h -7.54192 z m 7.54192,0 h 7.54192 v 7.54191 h -7.54192 z m 7.54192,0 h 7.54191 v 7.54191 h -7.54191 z m -203.631735,7.54191 h 7.541914 v 7.54192 h -7.541914 z m 7.541914,0 h 7.54192 v 7.54192 h -7.54192 z m 15.083834,0 h 7.541915 v 7.54192 h -7.541915 z m 15.083834,0 h 7.541915 v 7.54192 h -7.541915 z m 30.167663,0 h 7.54192 v 7.54192 h -7.54192 z m 15.08383,0 h 7.54192 v 7.54192 h -7.54192 z m 15.08383,0 h 7.54192 v 7.54192 h -7.54192 z m 30.16767,0 h 7.54191 v 7.54192 h -7.54191 z m 7.54191,0 h 7.54192 v 7.54192 h -7.54192 z m 7.54192,0 h 7.54192 v 7.54192 h -7.54192 z m 7.54192,0 h 7.54191 v 7.54192 h -7.54191 z m 7.54191,0 h 7.54191 v 7.54192 h -7.54191 z m 30.16766,0 h 7.54192 v 7.54192 h -7.54192 z m 7.54192,0 h 7.54192 v 7.54192 h -7.54192 z m 7.54192,0 h 7.54191 v 7.54192 h -7.54191 z m -150.838324,7.54192 h 7.541924 v 7.54191 h -7.541924 z m 30.167664,0 h 7.54192 v 7.54191 h -7.54192 z m 7.54192,0 h 7.54191 v 7.54191 h -7.54191 z m 15.08383,0 h 7.54191 v 7.54191 h -7.54191 z m 7.54191,0 h 7.54192 v 7.54191 h -7.54192 z m 30.16767,0 h 7.54192 v 7.54191 h -7.54192 z m 22.62574,0 h 7.54192 v 7.54191 h -7.54192 z m 30.16767,0 h 7.54192 v 7.54191 h -7.54192 z m -203.63173,7.54191 h 7.541915 v 7.54192 H 35.63814 Z m 7.541915,0 h 7.541914 v 7.54192 h -7.541914 z m 22.625748,0 h 7.541915 v 7.54192 h -7.541915 z m 15.083834,0 h 7.541915 v 7.54192 h -7.541915 z m 7.541915,0 h 7.541914 v 7.54192 h -7.541914 z m 30.167668,0 h 7.54191 v 7.54192 h -7.54191 z m 52.79341,0 h 7.54191 v 7.54192 h -7.54191 z m 15.08383,0 h 7.54192 v 7.54192 h -7.54192 z m 7.54192,0 h 7.54191 v 7.54192 h -7.54191 z m 15.08382,0 h 7.54192 v 7.54192 h -7.54192 z m 7.54192,0 h 7.54192 v 7.54192 h -7.54192 z m 7.54192,0 h 7.54191 v 7.54192 h -7.54191 z m 15.08383,0 h 7.54192 v 7.54192 h -7.54192 z m -196.089815,7.54192 h 7.541914 v 7.54189 h -7.541914 z m 15.083834,0 h 7.541914 v 7.54189 h -7.541914 z m 15.083829,0 h 7.541919 v 7.54189 h -7.541919 z m 22.625748,0 h 7.541924 v 7.54189 h -7.541924 z m 15.083834,0 h 7.54192 v 7.54189 h -7.54192 z m 15.08383,0 h 7.54192 v 7.54189 h -7.54192 z m 7.54192,0 h 7.54191 v 7.54189 h -7.54191 z m 15.08383,0 h 7.54191 v 7.54189 h -7.54191 z m 22.62575,0 h 7.54191 v 7.54189 h -7.54191 z m 15.08383,0 h 7.54192 v 7.54189 h -7.54192 z m 7.54192,0 h 7.54191 v 7.54189 h -7.54191 z m 15.08382,0 h 7.54192 v 7.54189 h -7.54192 z m 15.08384,0 h 7.54191 v 7.54189 h -7.54191 z m 7.54191,0 h 7.54192 v 7.54189 h -7.54192 z m 7.54192,0 h 7.54192 v 7.54189 h -7.54192 z m -203.63173,7.54189 h 7.541915 v 7.5419 H 35.63814 Z m 15.083829,0 h 7.54192 v 7.5419 h -7.54192 z m 22.625749,0 h 7.541919 v 7.5419 h -7.541919 z m 7.541919,0 h 7.541915 v 7.5419 h -7.541915 z m 30.167663,0 h 7.54192 v 7.5419 h -7.54192 z m 7.54192,0 h 7.54191 v 7.5419 h -7.54191 z m 7.54191,0 h 7.54192 v 7.5419 h -7.54192 z m 22.62575,0 h 7.54191 v 7.5419 h -7.54191 z m 7.54191,0 h 7.54192 v 7.5419 h -7.54192 z m 7.54192,0 h 7.54192 v 7.5419 h -7.54192 z m 7.54192,0 h 7.54191 v 7.5419 h -7.54191 z m 60.33532,0 h 7.54192 v 7.5419 h -7.54192 z m -173.464061,7.5419 h 7.541914 v 7.542 h -7.541914 z m 15.083829,0 h 7.541919 v 7.542 h -7.541919 z m 15.083834,0 h 7.541914 v 7.542 h -7.541914 z m 7.541914,0 h 7.541924 v 7.542 h -7.541924 z m 15.083834,0 h 7.54192 v 7.542 h -7.54192 z m 15.08383,0 h 7.54192 v 7.542 h -7.54192 z m 22.62575,0 h 7.54191 v 7.542 h -7.54191 z m 7.54191,0 h 7.54192 v 7.542 h -7.54192 z m 7.54192,0 h 7.54192 v 7.542 h -7.54192 z m 30.16767,0 h 7.54191 v 7.542 h -7.54191 z m 7.54191,0 h 7.54191 v 7.542 h -7.54191 z m 15.08383,0 h 7.54192 v 7.542 h -7.54192 z m 15.08383,0 h 7.54192 v 7.542 h -7.54192 z m -188.547895,7.542 h 7.541914 v 7.5419 h -7.541914 z m 7.541914,0 h 7.54192 v 7.5419 h -7.54192 z m 15.083834,0 h 7.541915 v 7.5419 h -7.541915 z m 15.083834,0 h 7.541915 v 7.5419 h -7.541915 z m 15.083829,0 h 7.541924 v 7.5419 h -7.541924 z m 7.541924,0 h 7.54191 v 7.5419 h -7.54191 z m 15.08383,0 h 7.54191 v 7.5419 h -7.54191 z m 7.54191,0 h 7.54192 v 7.5419 h -7.54192 z m 7.54192,0 h 7.54191 v 7.5419 h -7.54191 z m 22.62574,0 h 7.54192 v 7.5419 h -7.54192 z m 7.54192,0 h 7.54192 v 7.5419 h -7.54192 z m 7.54192,0 h 7.54191 v 7.5419 h -7.54191 z m 15.08383,0 h 7.54192 v 7.5419 h -7.54192 z m 7.54192,0 h 7.54191 v 7.5419 h -7.54191 z m 7.54191,0 h 7.54191 v 7.5419 h -7.54191 z m 7.54191,0 h 7.54192 v 7.5419 h -7.54192 z m 7.54192,0 h 7.54192 v 7.5419 h -7.54192 z m 7.54192,0 h 7.54191 v 7.5419 h -7.54191 z m 7.54191,0 h 7.54192 v 7.5419 h -7.54192 z m -135.754484,7.5419 h 7.541924 v 7.5419 h -7.541924 z m 30.167664,0 h 7.54192 v 7.5419 h -7.54192 z m 7.54192,0 h 7.54191 v 7.5419 h -7.54191 z m 7.54191,0 h 7.54192 v 7.5419 h -7.54192 z m 15.08383,0 h 7.54192 v 7.5419 h -7.54192 z m 30.16767,0 h 7.54192 v 7.5419 h -7.54192 z m 30.16766,0 h 7.54192 v 7.5419 h -7.54192 z m 7.54192,0 h 7.54191 v 7.5419 h -7.54191 z m 7.54191,0 h 7.54192 v 7.5419 h -7.54192 z m 7.54192,0 h 7.54192 v 7.5419 h -7.54192 z m 7.54192,0 h 7.54191 v 7.5419 h -7.54191 z m -211.17365,7.5419 h 7.541915 v 7.5419 H 35.63814 Z m 7.541915,0 h 7.541914 v 7.5419 h -7.541914 z m 7.541914,0 h 7.54192 v 7.5419 h -7.54192 z m 7.54192,0 h 7.541914 v 7.5419 h -7.541914 z m 7.541914,0 h 7.541915 v 7.5419 h -7.541915 z m 7.541915,0 h 7.541919 v 7.5419 h -7.541919 z m 7.541919,0 h 7.541915 v 7.5419 h -7.541915 z m 22.625753,0 h 7.54191 v 7.5419 h -7.54191 z m 7.54191,0 h 7.54192 v 7.5419 h -7.54192 z m 7.54192,0 h 7.54191 v 7.5419 h -7.54191 z m 7.54191,0 h 7.54192 v 7.5419 h -7.54192 z m 7.54192,0 h 7.54191 v 7.5419 h -7.54191 z m 30.16766,0 h 7.54192 v 7.5419 h -7.54192 z m 7.54192,0 h 7.54191 v 7.5419 h -7.54191 z m 7.54191,0 h 7.54192 v 7.5419 h -7.54192 z m 7.54192,0 h 7.54192 v 7.5419 h -7.54192 z m 15.08383,0 h 7.54191 v 7.5419 h -7.54191 z m 15.08383,0 h 7.54192 v 7.5419 h -7.54192 z m 7.54192,0 h 7.54191 v 7.5419 h -7.54191 z m 15.08383,0 h 7.54192 v 7.5419 h -7.54192 z m -203.63173,7.5419 h 7.541915 v 7.5419 H 35.63814 Z m 45.251497,0 h 7.541915 v 7.5419 h -7.541915 z m 30.167663,0 h 7.54192 v 7.5419 h -7.54192 z m 37.70958,0 h 7.54191 v 7.5419 h -7.54191 z m 37.70958,0 h 7.54192 v 7.5419 h -7.54192 z m 30.16766,0 h 7.54192 v 7.5419 h -7.54192 z m 7.54192,0 h 7.54191 v 7.5419 h -7.54191 z m 15.08383,0 h 7.54192 v 7.5419 h -7.54192 z m 7.54192,0 h 7.54191 v 7.5419 h -7.54191 z m -211.17365,7.5419 h 7.541915 v 7.5419 H 35.63814 Z m 15.083829,0 h 7.54192 v 7.5419 h -7.54192 z m 7.54192,0 h 7.541914 v 7.5419 h -7.541914 z m 7.541914,0 h 7.541915 v 7.5419 h -7.541915 z m 15.083834,0 h 7.541915 v 7.5419 h -7.541915 z m 22.625753,0 h 7.54191 v 7.5419 h -7.54191 z m 7.54191,0 h 7.54192 v 7.5419 h -7.54192 z m 15.08383,0 h 7.54192 v 7.5419 h -7.54192 z m 15.08383,0 h 7.54192 v 7.5419 h -7.54192 z m 22.62575,0 h 7.54192 v 7.5419 h -7.54192 z m 22.62575,0 h 7.54192 v 7.5419 h -7.54192 z m 7.54192,0 h 7.54191 v 7.5419 h -7.54191 z m 7.54191,0 h 7.54191 v 7.5419 h -7.54191 z m 7.54191,0 h 7.54192 v 7.5419 h -7.54192 z m 7.54192,0 h 7.54192 v 7.5419 h -7.54192 z m 15.08383,0 h 7.54192 v 7.5419 h -7.54192 z m -196.08981,7.5419 h 7.541915 v 7.542 H 35.63814 Z m 15.083829,0 h 7.54192 v 7.542 h -7.54192 z m 7.54192,0 h 7.541914 v 7.542 h -7.541914 z m 7.541914,0 h 7.541915 v 7.542 h -7.541915 z m 15.083834,0 h 7.541915 v 7.542 h -7.541915 z m 15.083829,0 h 7.541924 v 7.542 h -7.541924 z m 7.541924,0 h 7.54191 v 7.542 h -7.54191 z m 15.08383,0 h 7.54191 v 7.542 h -7.54191 z m 7.54191,0 h 7.54192 v 7.542 h -7.54192 z m 15.08383,0 h 7.54192 v 7.542 h -7.54192 z m 7.54192,0 h 7.54191 v 7.542 h -7.54191 z m 7.54191,0 h 7.54192 v 7.542 h -7.54192 z m 7.54192,0 h 7.54192 v 7.542 h -7.54192 z m 7.54192,0 h 7.54191 v 7.542 h -7.54191 z m 15.08383,0 h 7.54192 v 7.542 h -7.54192 z m 7.54192,0 h 7.54191 v 7.542 h -7.54191 z m 15.08382,0 h 7.54192 v 7.542 h -7.54192 z m 7.54192,0 h 7.54192 v 7.542 h -7.54192 z m 7.54192,0 h 7.54191 v 7.542 h -7.54191 z m 22.62575,0 h 7.54191 v 7.542 h -7.54191 z m -211.17365,7.542 h 7.541915 v 7.5419 H 35.63814 Z m 15.083829,0 h 7.54192 v 7.5419 h -7.54192 z m 7.54192,0 h 7.541914 v 7.5419 h -7.541914 z m 7.541914,0 h 7.541915 v 7.5419 h -7.541915 z m 15.083834,0 h 7.541915 v 7.5419 h -7.541915 z m 15.083829,0 h 7.541924 v 7.5419 h -7.541924 z m 7.541924,0 h 7.54191 v 7.5419 h -7.54191 z m 15.08383,0 h 7.54191 v 7.5419 h -7.54191 z m 15.08383,0 h 7.54191 v 7.5419 h -7.54191 z m 30.16766,0 h 7.54192 v 7.5419 h -7.54192 z m 7.54192,0 h 7.54191 v 7.5419 h -7.54191 z m 7.54191,0 h 7.54192 v 7.5419 h -7.54192 z m 7.54192,0 h 7.54192 v 7.5419 h -7.54192 z m 22.62574,0 h 7.54192 v 7.5419 h -7.54192 z m 22.62575,0 h 7.54192 v 7.5419 h -7.54192 z m 15.08384,0 h 7.54191 v 7.5419 h -7.54191 z m -211.17365,7.5419 h 7.541915 v 7.5419 H 35.63814 Z m 45.251497,0 h 7.541915 v 7.5419 h -7.541915 z m 15.083829,0 h 7.541924 v 7.5419 h -7.541924 z m 15.083834,0 h 7.54192 v 7.5419 h -7.54192 z m 7.54192,0 h 7.54191 v 7.5419 h -7.54191 z m 22.62574,0 h 7.54192 v 7.5419 h -7.54192 z m 7.54192,0 h 7.54191 v 7.5419 h -7.54191 z m 37.70958,0 h 7.54192 v 7.5419 h -7.54192 z m 7.54192,0 h 7.54191 v 7.5419 h -7.54191 z m 15.08382,0 h 7.54192 v 7.5419 h -7.54192 z m 15.08384,0 h 7.54191 v 7.5419 h -7.54191 z m 15.08383,0 h 7.54192 v 7.5419 h -7.54192 z m -203.63173,7.5419 h 7.541915 v 7.5419 H 35.63814 Z m 7.541915,0 h 7.541914 v 7.5419 h -7.541914 z m 7.541914,0 h 7.54192 v 7.5419 h -7.54192 z m 7.54192,0 h 7.541914 v 7.5419 h -7.541914 z m 7.541914,0 h 7.541915 v 7.5419 h -7.541915 z m 7.541915,0 h 7.541919 v 7.5419 h -7.541919 z m 7.541919,0 h 7.541915 v 7.5419 h -7.541915 z m 15.083829,0 h 7.541924 v 7.5419 h -7.541924 z m 7.541924,0 h 7.54191 v 7.5419 h -7.54191 z m 7.54191,0 h 7.54192 v 7.5419 h -7.54192 z m 15.08383,0 h 7.54192 v 7.5419 h -7.54192 z m 15.08383,0 h 7.54192 v 7.5419 h -7.54192 z m 30.16767,0 h 7.54191 v 7.5419 h -7.54191 z m 7.54191,0 h 7.54192 v 7.5419 h -7.54192 z m 7.54192,0 h 7.54192 v 7.5419 h -7.54192 z m 7.54192,0 h 7.54191 v 7.5419 h -7.54191 z m 22.62574,0 h 7.54192 v 7.5419 h -7.54192 z m 22.62575,0 h 7.54192 v 7.5419 h -7.54192 z"
       stroke="transparent"
       fill="#000000"
       id="path1"
       style="stroke-width:0.443642" /><image
       width="793.65741"
       height="353.53833"
       preserveAspectRatio="none"
       xlink:href="Wahlplakat_STuRa_Nils_HD_Personen.png"
       id="image1"
       x="0"
       y="75.590553" /><image
       width="794.0412"
       height="227.4597"
       preserveAspectRatio="none"
       xlink:href="Wahlplakat_STuRa_Nils_HD_Schriftzug.png"
       id="image1-3"
       x="0"
       y="566.92914" /></g></svg>
