<?xml version="1.0" encoding="UTF-8" standalone="no"?>
<!-- Created with Inkscape (http://www.inkscape.org/) -->

<svg
   width="296.99997mm"
   height="210mm"
   viewBox="0 0 1122.5196 793.70081"
   version="1.1"
   id="svg1"
   xml:space="preserve"
   xmlns:inkscape="http://www.inkscape.org/namespaces/inkscape"
   xmlns:sodipodi="http://sodipodi.sourceforge.net/DTD/sodipodi-0.dtd"
   xmlns:xlink="http://www.w3.org/1999/xlink"
   xmlns="http://www.w3.org/2000/svg"
   xmlns:svg="http://www.w3.org/2000/svg"><sodipodi:namedview
     id="namedview1"
     pagecolor="#505050"
     bordercolor="#ffffff"
     borderopacity="1"
     inkscape:showpageshadow="0"
     inkscape:pageopacity="0"
     inkscape:pagecheckerboard="1"
     inkscape:deskcolor="#505050"
     inkscape:document-units="mm" /><defs
     id="defs1" /><g
     inkscape:label="Ebene 1"
     inkscape:groupmode="layer"
     id="layer1"><image
       width="1122.5211"
       height="631.41809"
       preserveAspectRatio="none"
       xlink:href="file:///C:/Users/klaus/Downloads/Wahlplakat_STuRa_Nils_HD.png"
       id="image1"
       x="0"
       y="0" /><path
       d="m 45.511282,649.32226 h 4.1326 v 4.1326 h -4.1326 z m 4.1326,0 h 4.1326 v 4.1326 h -4.1326 z m 4.1326,0 h 4.132601 v 4.1326 h -4.132601 z m 4.132601,0 h 4.1326 v 4.1326 h -4.1326 z m 4.1326,0 h 4.1326 v 4.1326 h -4.1326 z m 4.1326,0 h 4.132601 v 4.1326 h -4.132601 z m 4.132601,0 h 4.132599 v 4.1326 h -4.132599 z m 8.2652,0 h 4.132602 v 4.1326 h -4.132602 z m 4.132602,0 h 4.132599 v 4.1326 h -4.132599 z m 28.928204,0 h 4.1326 v 4.1326 h -4.1326 z m 12.3978,0 h 4.1326 v 4.1326 h -4.1326 z m 4.1326,0 h 4.1326 v 4.1326 h -4.1326 z m 8.2652,0 h 4.1326 v 4.1326 h -4.1326 z m 4.1326,0 h 4.1326 v 4.1326 h -4.1326 z m 4.1326,0 h 4.1326 v 4.1326 h -4.1326 z m 4.1326,0 h 4.1326 v 4.1326 h -4.1326 z m 4.1326,0 h 4.1326 v 4.1326 h -4.1326 z m 4.1326,0 h 4.1326 v 4.1326 h -4.1326 z m 4.1326,0 h 4.1326 v 4.1326 h -4.1326 z m -115.712808,4.1326 h 4.1326 v 4.13259 h -4.1326 z m 24.795602,0 h 4.132599 v 4.13259 h -4.132599 z m 57.856406,0 h 4.1326 v 4.13259 h -4.1326 z m 8.2652,0 h 4.1326 v 4.13259 h -4.1326 z m 24.7956,0 h 4.1326 v 4.13259 h -4.1326 z m -115.712808,4.13259 h 4.1326 v 4.13261 h -4.1326 z m 8.2652,0 h 4.132601 v 4.13261 h -4.132601 z m 4.132601,0 h 4.1326 v 4.13261 h -4.1326 z m 4.1326,0 h 4.1326 v 4.13261 h -4.1326 z m 8.265201,0 h 4.132599 v 4.13261 h -4.132599 z m 8.2652,0 h 4.132602 v 4.13261 h -4.132602 z m 12.397801,0 h 4.132599 v 4.13261 h -4.132599 z m 4.132599,0 h 4.132602 v 4.13261 h -4.132602 z m 4.132602,0 h 4.132604 v 4.13261 h -4.132604 z m 4.132604,0 h 4.1326 v 4.13261 h -4.1326 z m 16.5304,0 h 4.1326 v 4.13261 h -4.1326 z m 4.1326,0 h 4.1326 v 4.13261 h -4.1326 z m 12.3978,0 h 4.1326 v 4.13261 h -4.1326 z m 8.2652,0 h 4.1326 v 4.13261 h -4.1326 z m 4.1326,0 h 4.1326 v 4.13261 h -4.1326 z m 4.1326,0 h 4.1326 v 4.13261 h -4.1326 z m 8.2652,0 h 4.1326 v 4.13261 h -4.1326 z m -115.712808,4.13261 h 4.1326 v 4.1326 h -4.1326 z m 8.2652,0 h 4.132601 v 4.1326 h -4.132601 z m 4.132601,0 h 4.1326 v 4.1326 h -4.1326 z m 4.1326,0 h 4.1326 v 4.1326 h -4.1326 z m 8.265201,0 h 4.132599 v 4.1326 h -4.132599 z m 8.2652,0 h 4.132602 v 4.1326 h -4.132602 z m 4.132602,0 h 4.132599 v 4.1326 h -4.132599 z m 8.265199,0 h 4.132599 v 4.1326 h -4.132599 z m 16.530405,0 h 4.1326 v 4.1326 h -4.1326 z m 8.2652,0 h 4.1326 v 4.1326 h -4.1326 z m 4.1326,0 h 4.1326 v 4.1326 h -4.1326 z m 4.1326,0 h 4.1326 v 4.1326 h -4.1326 z m 12.3978,0 h 4.1326 v 4.1326 h -4.1326 z m 8.2652,0 h 4.1326 v 4.1326 h -4.1326 z m 4.1326,0 h 4.1326 v 4.1326 h -4.1326 z m 4.1326,0 h 4.1326 v 4.1326 h -4.1326 z m 8.2652,0 h 4.1326 v 4.1326 h -4.1326 z m -115.712808,4.1326 h 4.1326 v 4.1326 h -4.1326 z m 8.2652,0 h 4.132601 v 4.1326 h -4.132601 z m 4.132601,0 h 4.1326 v 4.1326 h -4.1326 z m 4.1326,0 h 4.1326 v 4.1326 h -4.1326 z m 8.265201,0 h 4.132599 v 4.1326 h -4.132599 z m 8.2652,0 h 4.132602 v 4.1326 h -4.132602 z m 4.132602,0 h 4.132599 v 4.1326 h -4.132599 z m 4.132599,0 h 4.1326 v 4.1326 h -4.1326 z m 4.1326,0 h 4.132599 v 4.1326 h -4.132599 z m 8.265201,0 h 4.132604 v 4.1326 h -4.132604 z m 4.132604,0 h 4.1326 v 4.1326 h -4.1326 z m 4.1326,0 h 4.1326 v 4.1326 h -4.1326 z m 4.1326,0 h 4.1326 v 4.1326 h -4.1326 z m 12.3978,0 h 4.1326 v 4.1326 h -4.1326 z m 12.3978,0 h 4.1326 v 4.1326 h -4.1326 z m 8.2652,0 h 4.1326 v 4.1326 h -4.1326 z m 4.1326,0 h 4.1326 v 4.1326 h -4.1326 z m 4.1326,0 h 4.1326 v 4.1326 h -4.1326 z m 8.2652,0 h 4.1326 v 4.1326 h -4.1326 z m -115.712808,4.1326 h 4.1326 v 4.1326 h -4.1326 z m 24.795602,0 h 4.132599 v 4.1326 h -4.132599 z m 12.397802,0 h 4.132599 v 4.1326 h -4.132599 z m 12.397798,0 h 4.132602 v 4.1326 h -4.132602 z m 8.265206,0 h 4.1326 v 4.1326 h -4.1326 z m 8.2652,0 h 4.1326 v 4.1326 h -4.1326 z m 8.2652,0 h 4.1326 v 4.1326 h -4.1326 z m 4.1326,0 h 4.1326 v 4.1326 h -4.1326 z m 12.3978,0 h 4.1326 v 4.1326 h -4.1326 z m 24.7956,0 h 4.1326 v 4.1326 h -4.1326 z m -115.712808,4.1326 h 4.1326 v 4.13259 h -4.1326 z m 4.1326,0 h 4.1326 v 4.13259 h -4.1326 z m 4.1326,0 h 4.132601 v 4.13259 h -4.132601 z m 4.132601,0 h 4.1326 v 4.13259 h -4.1326 z m 4.1326,0 h 4.1326 v 4.13259 h -4.1326 z m 4.1326,0 h 4.132601 v 4.13259 h -4.132601 z m 4.132601,0 h 4.132599 v 4.13259 h -4.132599 z m 8.2652,0 h 4.132602 v 4.13259 h -4.132602 z m 8.265201,0 h 4.1326 v 4.13259 h -4.1326 z m 8.265199,0 h 4.132602 v 4.13259 h -4.132602 z m 8.265206,0 h 4.1326 v 4.13259 h -4.1326 z m 8.2652,0 h 4.1326 v 4.13259 h -4.1326 z m 8.2652,0 h 4.1326 v 4.13259 h -4.1326 z m 8.2652,0 h 4.1326 v 4.13259 h -4.1326 z m 8.2652,0 h 4.1326 v 4.13259 h -4.1326 z m 4.1326,0 h 4.1326 v 4.13259 h -4.1326 z m 4.1326,0 h 4.1326 v 4.13259 h -4.1326 z m 4.1326,0 h 4.1326 v 4.13259 h -4.1326 z m 4.1326,0 h 4.1326 v 4.13259 h -4.1326 z m 4.1326,0 h 4.1326 v 4.13259 h -4.1326 z m 4.1326,0 h 4.1326 v 4.13259 h -4.1326 z m -78.519404,4.13259 h 4.132599 v 4.1326 h -4.132599 z m 8.265199,0 h 4.132599 v 4.1326 h -4.132599 z m 8.265201,0 h 4.132604 v 4.1326 h -4.132604 z m 4.132604,0 h 4.1326 v 4.1326 h -4.1326 z m 4.1326,0 h 4.1326 v 4.1326 h -4.1326 z m 4.1326,0 h 4.1326 v 4.1326 h -4.1326 z m 4.1326,0 h 4.1326 v 4.1326 h -4.1326 z m 4.1326,0 h 4.1326 v 4.1326 h -4.1326 z m 4.1326,0 h 4.1326 v 4.1326 h -4.1326 z m -78.519408,4.1326 h 4.1326 v 4.13261 h -4.1326 z m 4.1326,0 h 4.1326 v 4.13261 h -4.1326 z m 4.1326,0 h 4.132601 v 4.13261 h -4.132601 z m 4.132601,0 h 4.1326 v 4.13261 h -4.1326 z m 12.397801,0 h 4.132599 v 4.13261 h -4.132599 z m 8.2652,0 h 4.132602 v 4.13261 h -4.132602 z m 20.663002,0 h 4.132604 v 4.13261 h -4.132604 z m 4.132604,0 h 4.1326 v 4.13261 h -4.1326 z m 4.1326,0 h 4.1326 v 4.13261 h -4.1326 z m 4.1326,0 h 4.1326 v 4.13261 h -4.1326 z m 4.1326,0 h 4.1326 v 4.13261 h -4.1326 z m 4.1326,0 h 4.1326 v 4.13261 h -4.1326 z m 12.3978,0 h 4.1326 v 4.13261 h -4.1326 z m 12.3978,0 h 4.1326 v 4.13261 h -4.1326 z m 4.1326,0 h 4.1326 v 4.13261 h -4.1326 z m 4.1326,0 h 4.1326 v 4.13261 h -4.1326 z m 8.2652,0 h 4.1326 v 4.13261 h -4.1326 z m -111.580208,4.13261 h 4.1326 v 4.1326 h -4.1326 z m 4.1326,0 h 4.132601 v 4.1326 h -4.132601 z m 12.397801,0 h 4.132601 v 4.1326 h -4.132601 z m 16.530403,0 h 4.132599 v 4.1326 h -4.132599 z m 37.193404,0 h 4.1326 v 4.1326 h -4.1326 z m 4.1326,0 h 4.1326 v 4.1326 h -4.1326 z m 8.2652,0 h 4.1326 v 4.1326 h -4.1326 z m 4.1326,0 h 4.1326 v 4.1326 h -4.1326 z m 4.1326,0 h 4.1326 v 4.1326 h -4.1326 z m 4.1326,0 h 4.1326 v 4.1326 h -4.1326 z m 16.5304,0 h 4.1326 v 4.1326 h -4.1326 z m -90.917206,4.1326 h 4.132599 v 4.1326 h -4.132599 z m 8.2652,0 h 4.132602 v 4.1326 h -4.132602 z m 24.795606,0 h 4.1326 v 4.1326 h -4.1326 z m 16.5304,0 h 4.1326 v 4.1326 h -4.1326 z m 8.2652,0 h 4.1326 v 4.1326 h -4.1326 z m 4.1326,0 h 4.1326 v 4.1326 h -4.1326 z m 4.1326,0 h 4.1326 v 4.1326 h -4.1326 z m 16.5304,0 h 4.1326 v 4.1326 h -4.1326 z m 4.1326,0 h 4.1326 v 4.1326 h -4.1326 z m -107.447608,4.1326 h 4.1326 v 4.1326 h -4.1326 z m 8.265201,0 h 4.1326 v 4.1326 h -4.1326 z m 8.2652,0 h 4.132601 v 4.1326 h -4.132601 z m 12.397801,0 h 4.132602 v 4.1326 h -4.132602 z m 12.397801,0 h 4.132599 v 4.1326 h -4.132599 z m 4.132599,0 h 4.132602 v 4.1326 h -4.132602 z m 4.132602,0 h 4.132604 v 4.1326 h -4.132604 z m 4.132604,0 h 4.1326 v 4.1326 h -4.1326 z m 4.1326,0 h 4.1326 v 4.1326 h -4.1326 z m 20.663,0 h 4.1326 v 4.1326 h -4.1326 z m 16.5304,0 h 4.1326 v 4.1326 h -4.1326 z m 16.5304,0 h 4.1326 v 4.1326 h -4.1326 z m -90.917206,4.1326 h 4.132599 v 4.1326 h -4.132599 z m 4.132599,0 h 4.132601 v 4.1326 h -4.132601 z m 8.265203,0 h 4.132599 v 4.1326 h -4.132599 z m 8.265199,0 h 4.132599 v 4.1326 h -4.132599 z m 24.795605,0 h 4.1326 v 4.1326 h -4.1326 z m 8.2652,0 h 4.1326 v 4.1326 h -4.1326 z m 24.7956,0 h 4.1326 v 4.1326 h -4.1326 z m 4.1326,0 h 4.1326 v 4.1326 h -4.1326 z m -99.182408,4.1326 h 4.132601 v 4.1326 h -4.132601 z m 4.132601,0 h 4.1326 v 4.1326 h -4.1326 z m 16.5304,0 h 4.132601 v 4.1326 h -4.132601 z m 4.132601,0 h 4.132602 v 4.1326 h -4.132602 z m 4.132602,0 h 4.132599 v 4.1326 h -4.132599 z m 4.132599,0 h 4.1326 v 4.1326 h -4.1326 z m 4.1326,0 h 4.132599 v 4.1326 h -4.132599 z m 8.265201,0 h 4.132604 v 4.1326 h -4.132604 z m 8.265204,0 h 4.1326 v 4.1326 h -4.1326 z m 4.1326,0 h 4.1326 v 4.1326 h -4.1326 z m 4.1326,0 h 4.1326 v 4.1326 h -4.1326 z m 4.1326,0 h 4.1326 v 4.1326 h -4.1326 z m 4.1326,0 h 4.1326 v 4.1326 h -4.1326 z m 12.3978,0 h 4.1326 v 4.1326 h -4.1326 z m 16.5304,0 h 4.1326 v 4.1326 h -4.1326 z m 4.1326,0 h 4.1326 v 4.1326 h -4.1326 z m 4.1326,0 h 4.1326 v 4.1326 h -4.1326 z m -111.580208,4.1326 h 4.1326 v 4.1326 h -4.1326 z m 4.1326,0 h 4.132601 v 4.1326 h -4.132601 z m 8.265201,0 h 4.1326 v 4.1326 h -4.1326 z m 8.265201,0 h 4.132599 v 4.1326 h -4.132599 z m 16.530401,0 h 4.1326 v 4.1326 h -4.1326 z m 8.265199,0 h 4.132602 v 4.1326 h -4.132602 z m 8.265206,0 h 4.1326 v 4.1326 h -4.1326 z m 16.5304,0 h 4.1326 v 4.1326 h -4.1326 z m 4.1326,0 h 4.1326 v 4.1326 h -4.1326 z m 4.1326,0 h 4.1326 v 4.1326 h -4.1326 z m 4.1326,0 h 4.1326 v 4.1326 h -4.1326 z m 4.1326,0 h 4.1326 v 4.1326 h -4.1326 z m 16.5304,0 h 4.1326 v 4.1326 h -4.1326 z m 4.1326,0 h 4.1326 v 4.1326 h -4.1326 z m 4.1326,0 h 4.1326 v 4.1326 h -4.1326 z m -82.652006,4.1326 h 4.132602 v 4.1326 h -4.132602 z m 16.5304,0 h 4.132602 v 4.1326 h -4.132602 z m 4.132602,0 h 4.132604 v 4.1326 h -4.132604 z m 8.265204,0 h 4.1326 v 4.1326 h -4.1326 z m 4.1326,0 h 4.1326 v 4.1326 h -4.1326 z m 16.5304,0 h 4.1326 v 4.1326 h -4.1326 z m 12.3978,0 h 4.1326 v 4.1326 h -4.1326 z m 16.5304,0 h 4.1326 v 4.1326 h -4.1326 z m -111.580208,4.1326 h 4.1326 v 4.1326 h -4.1326 z m 4.1326,0 h 4.1326 v 4.1326 h -4.1326 z m 12.397801,0 h 4.1326 v 4.1326 h -4.1326 z m 8.265201,0 h 4.132599 v 4.1326 h -4.132599 z m 4.132599,0 h 4.132601 v 4.1326 h -4.132601 z m 16.530402,0 h 4.132599 v 4.1326 h -4.132599 z m 28.928205,0 h 4.1326 v 4.1326 h -4.1326 z m 8.2652,0 h 4.1326 v 4.1326 h -4.1326 z m 4.1326,0 h 4.1326 v 4.1326 h -4.1326 z m 8.2652,0 h 4.1326 v 4.1326 h -4.1326 z m 4.1326,0 h 4.1326 v 4.1326 h -4.1326 z m 4.1326,0 h 4.1326 v 4.1326 h -4.1326 z m 8.2652,0 h 4.1326 v 4.1326 h -4.1326 z m -107.447608,4.1326 h 4.1326 v 4.1326 h -4.1326 z m 8.265201,0 h 4.1326 v 4.1326 h -4.1326 z m 8.2652,0 h 4.132601 v 4.1326 h -4.132601 z m 12.397801,0 h 4.132602 v 4.1326 h -4.132602 z m 8.265201,0 h 4.1326 v 4.1326 h -4.1326 z m 8.265199,0 h 4.132602 v 4.1326 h -4.132602 z m 4.132602,0 h 4.132604 v 4.1326 h -4.132604 z m 8.265204,0 h 4.1326 v 4.1326 h -4.1326 z m 12.3978,0 h 4.1326 v 4.1326 h -4.1326 z m 8.2652,0 h 4.1326 v 4.1326 h -4.1326 z m 4.1326,0 h 4.1326 v 4.1326 h -4.1326 z m 8.2652,0 h 4.1326 v 4.1326 h -4.1326 z m 8.2652,0 h 4.1326 v 4.1326 h -4.1326 z m 4.1326,0 h 4.1326 v 4.1326 h -4.1326 z m 4.1326,0 h 4.1326 v 4.1326 h -4.1326 z m -111.580208,4.1326 h 4.1326 v 4.1326 h -4.1326 z m 8.2652,0 h 4.132601 v 4.1326 h -4.132601 z m 12.397801,0 h 4.132601 v 4.1326 h -4.132601 z m 4.132601,0 h 4.132599 v 4.1326 h -4.132599 z m 16.530401,0 h 4.1326 v 4.1326 h -4.1326 z m 4.1326,0 h 4.132599 v 4.1326 h -4.132599 z m 4.132599,0 h 4.132602 v 4.1326 h -4.132602 z m 12.397806,0 h 4.1326 v 4.1326 h -4.1326 z m 4.1326,0 h 4.1326 v 4.1326 h -4.1326 z m 4.1326,0 h 4.1326 v 4.1326 h -4.1326 z m 4.1326,0 h 4.1326 v 4.1326 h -4.1326 z m 33.0608,0 h 4.1326 v 4.1326 h -4.1326 z m -95.049807,4.1326 h 4.1326 v 4.1326 h -4.1326 z m 8.2652,0 h 4.132601 v 4.1326 h -4.132601 z m 8.2652,0 h 4.132601 v 4.1326 h -4.132601 z m 4.132601,0 h 4.132602 v 4.1326 h -4.132602 z m 8.265201,0 h 4.1326 v 4.1326 h -4.1326 z m 8.265199,0 h 4.132602 v 4.1326 h -4.132602 z m 12.397806,0 h 4.1326 v 4.1326 h -4.1326 z m 4.1326,0 h 4.1326 v 4.1326 h -4.1326 z m 4.1326,0 h 4.1326 v 4.1326 h -4.1326 z m 16.5304,0 h 4.1326 v 4.1326 h -4.1326 z m 4.1326,0 h 4.1326 v 4.1326 h -4.1326 z m 8.2652,0 h 4.1326 v 4.1326 h -4.1326 z m 8.2652,0 h 4.1326 v 4.1326 h -4.1326 z m -103.315008,4.1326 h 4.1326 v 4.1326 h -4.1326 z m 4.1326,0 h 4.132601 v 4.1326 h -4.132601 z m 8.265201,0 h 4.1326 v 4.1326 h -4.1326 z m 8.265201,0 h 4.132599 v 4.1326 h -4.132599 z m 8.2652,0 h 4.132602 v 4.1326 h -4.132602 z m 4.132602,0 h 4.132599 v 4.1326 h -4.132599 z m 8.265199,0 h 4.132599 v 4.1326 h -4.132599 z m 4.132599,0 h 4.132602 v 4.1326 h -4.132602 z m 4.132602,0 h 4.132604 v 4.1326 h -4.132604 z m 12.397804,0 h 4.1326 v 4.1326 h -4.1326 z m 4.1326,0 h 4.1326 v 4.1326 h -4.1326 z m 4.1326,0 h 4.1326 v 4.1326 h -4.1326 z m 8.2652,0 h 4.1326 v 4.1326 h -4.1326 z m 4.1326,0 h 4.1326 v 4.1326 h -4.1326 z m 4.1326,0 h 4.1326 v 4.1326 h -4.1326 z m 4.1326,0 h 4.1326 v 4.1326 h -4.1326 z m 4.1326,0 h 4.1326 v 4.1326 h -4.1326 z m 4.1326,0 h 4.1326 v 4.1326 h -4.1326 z m 4.1326,0 h 4.1326 v 4.1326 h -4.1326 z m -74.386806,4.1326 h 4.132602 v 4.1326 h -4.132602 z m 16.5304,0 h 4.132602 v 4.1326 h -4.132602 z m 4.132602,0 h 4.132604 v 4.1326 h -4.132604 z m 4.132604,0 h 4.1326 v 4.1326 h -4.1326 z m 8.2652,0 h 4.1326 v 4.1326 h -4.1326 z m 16.5304,0 h 4.1326 v 4.1326 h -4.1326 z m 16.5304,0 h 4.1326 v 4.1326 h -4.1326 z m 4.1326,0 h 4.1326 v 4.1326 h -4.1326 z m 4.1326,0 h 4.1326 v 4.1326 h -4.1326 z m 4.1326,0 h 4.1326 v 4.1326 h -4.1326 z m 4.1326,0 h 4.1326 v 4.1326 h -4.1326 z m -115.712808,4.1326 h 4.1326 v 4.1326 h -4.1326 z m 4.1326,0 h 4.1326 v 4.1326 h -4.1326 z m 4.1326,0 h 4.132601 v 4.1326 h -4.132601 z m 4.132601,0 h 4.1326 v 4.1326 h -4.1326 z m 4.1326,0 h 4.1326 v 4.1326 h -4.1326 z m 4.1326,0 h 4.132601 v 4.1326 h -4.132601 z m 4.132601,0 h 4.132599 v 4.1326 h -4.132599 z m 12.397802,0 h 4.132599 v 4.1326 h -4.132599 z m 4.132599,0 h 4.1326 v 4.1326 h -4.1326 z m 4.1326,0 h 4.132599 v 4.1326 h -4.132599 z m 4.132599,0 h 4.132602 v 4.1326 h -4.132602 z m 4.132602,0 h 4.132604 v 4.1326 h -4.132604 z m 16.530404,0 h 4.1326 v 4.1326 h -4.1326 z m 4.1326,0 h 4.1326 v 4.1326 h -4.1326 z m 4.1326,0 h 4.1326 v 4.1326 h -4.1326 z m 4.1326,0 h 4.1326 v 4.1326 h -4.1326 z m 8.2652,0 h 4.1326 v 4.1326 h -4.1326 z m 8.2652,0 h 4.1326 v 4.1326 h -4.1326 z m 4.1326,0 h 4.1326 v 4.1326 h -4.1326 z m 8.2652,0 h 4.1326 v 4.1326 h -4.1326 z m -111.580208,4.1326 h 4.1326 v 4.1326 h -4.1326 z m 24.795602,0 h 4.132599 v 4.1326 h -4.132599 z m 16.530401,0 h 4.1326 v 4.1326 h -4.1326 z m 20.663005,0 h 4.1326 v 4.1326 h -4.1326 z m 20.663,0 h 4.1326 v 4.1326 h -4.1326 z m 16.5304,0 h 4.1326 v 4.1326 h -4.1326 z m 4.1326,0 h 4.1326 v 4.1326 h -4.1326 z m 8.2652,0 h 4.1326 v 4.1326 h -4.1326 z m 4.1326,0 h 4.1326 v 4.1326 h -4.1326 z m -115.712808,4.1326 h 4.1326 v 4.1326 h -4.1326 z m 8.2652,0 h 4.132601 v 4.1326 h -4.132601 z m 4.132601,0 h 4.1326 v 4.1326 h -4.1326 z m 4.1326,0 h 4.1326 v 4.1326 h -4.1326 z m 8.265201,0 h 4.132599 v 4.1326 h -4.132599 z m 12.397802,0 h 4.132599 v 4.1326 h -4.132599 z m 4.132599,0 h 4.1326 v 4.1326 h -4.1326 z m 8.265199,0 h 4.132602 v 4.1326 h -4.132602 z m 8.265206,0 h 4.1326 v 4.1326 h -4.1326 z m 12.3978,0 h 4.1326 v 4.1326 h -4.1326 z m 12.3978,0 h 4.1326 v 4.1326 h -4.1326 z m 4.1326,0 h 4.1326 v 4.1326 h -4.1326 z m 4.1326,0 h 4.1326 v 4.1326 h -4.1326 z m 4.1326,0 h 4.1326 v 4.1326 h -4.1326 z m 4.1326,0 h 4.1326 v 4.1326 h -4.1326 z m 8.2652,0 h 4.1326 v 4.1326 h -4.1326 z m -107.447608,4.1326 h 4.1326 v 4.1326 h -4.1326 z m 8.2652,0 h 4.132601 v 4.1326 h -4.132601 z m 4.132601,0 h 4.1326 v 4.1326 h -4.1326 z m 4.1326,0 h 4.1326 v 4.1326 h -4.1326 z m 8.265201,0 h 4.132599 v 4.1326 h -4.132599 z m 8.2652,0 h 4.132602 v 4.1326 h -4.132602 z m 4.132602,0 h 4.132599 v 4.1326 h -4.132599 z m 8.265199,0 h 4.132599 v 4.1326 h -4.132599 z m 4.132599,0 h 4.132602 v 4.1326 h -4.132602 z m 8.265206,0 h 4.1326 v 4.1326 h -4.1326 z m 4.1326,0 h 4.1326 v 4.1326 h -4.1326 z m 4.1326,0 h 4.1326 v 4.1326 h -4.1326 z m 4.1326,0 h 4.1326 v 4.1326 h -4.1326 z m 4.1326,0 h 4.1326 v 4.1326 h -4.1326 z m 8.2652,0 h 4.1326 v 4.1326 h -4.1326 z m 4.1326,0 h 4.1326 v 4.1326 h -4.1326 z m 8.2652,0 h 4.1326 v 4.1326 h -4.1326 z m 4.1326,0 h 4.1326 v 4.1326 h -4.1326 z m 4.1326,0 h 4.1326 v 4.1326 h -4.1326 z m 12.3978,0 h 4.1326 v 4.1326 h -4.1326 z m -115.712808,4.1326 h 4.1326 v 4.1326 h -4.1326 z m 8.2652,0 h 4.132601 v 4.1326 h -4.132601 z m 4.132601,0 h 4.1326 v 4.1326 h -4.1326 z m 4.1326,0 h 4.1326 v 4.1326 h -4.1326 z m 8.265201,0 h 4.132599 v 4.1326 h -4.132599 z m 8.2652,0 h 4.132602 v 4.1326 h -4.132602 z m 4.132602,0 h 4.132599 v 4.1326 h -4.132599 z m 8.265199,0 h 4.132599 v 4.1326 h -4.132599 z m 8.265201,0 h 4.132604 v 4.1326 h -4.132604 z m 16.530404,0 h 4.1326 v 4.1326 h -4.1326 z m 4.1326,0 h 4.1326 v 4.1326 h -4.1326 z m 4.1326,0 h 4.1326 v 4.1326 h -4.1326 z m 4.1326,0 h 4.1326 v 4.1326 h -4.1326 z m 12.3978,0 h 4.1326 v 4.1326 h -4.1326 z m 12.3978,0 h 4.1326 v 4.1326 h -4.1326 z m 8.2652,0 h 4.1326 v 4.1326 h -4.1326 z m -115.712808,4.1326 h 4.1326 v 4.1326 h -4.1326 z m 24.795602,0 h 4.132599 v 4.1326 h -4.132599 z m 8.2652,0 h 4.132602 v 4.1326 h -4.132602 z m 8.265201,0 h 4.1326 v 4.1326 h -4.1326 z m 4.1326,0 h 4.132599 v 4.1326 h -4.132599 z m 12.397805,0 h 4.1326 v 4.1326 h -4.1326 z m 4.1326,0 h 4.1326 v 4.1326 h -4.1326 z m 20.663,0 h 4.1326 v 4.1326 h -4.1326 z m 4.1326,0 h 4.1326 v 4.1326 h -4.1326 z m 8.2652,0 h 4.1326 v 4.1326 h -4.1326 z m 8.2652,0 h 4.1326 v 4.1326 h -4.1326 z m 8.2652,0 h 4.1326 v 4.1326 h -4.1326 z m -111.580208,4.1326 h 4.1326 v 4.1326 h -4.1326 z m 4.1326,0 h 4.1326 v 4.1326 h -4.1326 z m 4.1326,0 h 4.132601 v 4.1326 h -4.132601 z m 4.132601,0 h 4.1326 v 4.1326 h -4.1326 z m 4.1326,0 h 4.1326 v 4.1326 h -4.1326 z m 4.1326,0 h 4.132601 v 4.1326 h -4.132601 z m 4.132601,0 h 4.132599 v 4.1326 h -4.132599 z m 8.2652,0 h 4.132602 v 4.1326 h -4.132602 z m 4.132602,0 h 4.132599 v 4.1326 h -4.132599 z m 4.132599,0 h 4.1326 v 4.1326 h -4.1326 z m 8.265199,0 h 4.132602 v 4.1326 h -4.132602 z m 8.265206,0 h 4.1326 v 4.1326 h -4.1326 z m 16.5304,0 h 4.1326 v 4.1326 h -4.1326 z m 4.1326,0 h 4.1326 v 4.1326 h -4.1326 z m 4.1326,0 h 4.1326 v 4.1326 h -4.1326 z m 4.1326,0 h 4.1326 v 4.1326 h -4.1326 z m 12.3978,0 h 4.1326 v 4.1326 h -4.1326 z m 12.3978,0 h 4.1326 v 4.1326 h -4.1326 z"
       stroke="transparent"
       fill="#000000"
       id="path1"
       style="stroke-width:0.243094" /></g></svg>
