<?xml version="1.0" encoding="UTF-8" standalone="no"?>
<svg
   version="1.1"
   width="500"
   height="500"
   viewBox="0 0 527 527"
   preserveAspectRatio="xMinYMin"
   id="svg1"
   sodipodi:docname="exported_qrcode_image (1).svg"
   inkscape:export-filename="QR-Code_Onlinewahlen_HFU.svg"
   inkscape:export-xdpi="96"
   inkscape:export-ydpi="96"
   xmlns:inkscape="http://www.inkscape.org/namespaces/inkscape"
   xmlns:sodipodi="http://sodipodi.sourceforge.net/DTD/sodipodi-0.dtd"
   xmlns="http://www.w3.org/2000/svg"
   xmlns:svg="http://www.w3.org/2000/svg">
  <defs
     id="defs1" />
  <sodipodi:namedview
     id="namedview1"
     pagecolor="#505050"
     bordercolor="#ffffff"
     borderopacity="1"
     inkscape:showpageshadow="0"
     inkscape:pageopacity="0"
     inkscape:pagecheckerboard="1"
     inkscape:deskcolor="#505050"
     showgrid="false" />
  <path
     d="M 17,17 H 34 V 34 H 17 Z m 17,0 H 51 V 34 H 34 Z m 17,0 H 68 V 34 H 51 Z m 17,0 H 85 V 34 H 68 Z m 17,0 h 17 V 34 H 85 Z m 17,0 h 17 v 17 h -17 z m 17,0 h 17 v 17 h -17 z m 34,0 h 17 v 17 h -17 z m 17,0 h 17 v 17 h -17 z m 119,0 h 17 v 17 h -17 z m 51,0 h 17 v 17 h -17 z m 17,0 h 17 v 17 h -17 z m 34,0 h 17 v 17 h -17 z m 17,0 h 17 v 17 h -17 z m 17,0 h 17 v 17 h -17 z m 17,0 h 17 v 17 h -17 z m 17,0 h 17 v 17 h -17 z m 17,0 h 17 v 17 h -17 z m 17,0 h 17 V 34 H 493 Z M 17,34 H 34 V 51 H 17 Z m 102,0 h 17 v 17 h -17 z m 238,0 h 17 v 17 h -17 z m 34,0 h 17 v 17 h -17 z m 102,0 h 17 V 51 H 493 Z M 17,51 H 34 V 68 H 17 Z m 34,0 H 68 V 68 H 51 Z m 17,0 H 85 V 68 H 68 Z m 17,0 h 17 V 68 H 85 Z m 34,0 h 17 v 17 h -17 z m 34,0 h 17 v 17 h -17 z m 51,0 h 17 v 17 h -17 z m 17,0 h 17 v 17 h -17 z m 17,0 h 17 v 17 h -17 z m 17,0 h 17 v 17 h -17 z m 68,0 h 17 v 17 h -17 z m 17,0 h 17 v 17 h -17 z m 51,0 h 17 v 17 h -17 z m 34,0 h 17 v 17 h -17 z m 17,0 h 17 v 17 h -17 z m 17,0 h 17 v 17 h -17 z m 34,0 h 17 V 68 H 493 Z M 17,68 H 34 V 85 H 17 Z m 34,0 H 68 V 85 H 51 Z m 17,0 H 85 V 85 H 68 Z m 17,0 h 17 V 85 H 85 Z m 34,0 h 17 v 17 h -17 z m 34,0 h 17 v 17 h -17 z m 17,0 h 17 v 17 h -17 z m 34,0 h 17 v 17 h -17 z m 68,0 h 17 v 17 h -17 z m 34,0 h 17 v 17 h -17 z m 17,0 h 17 v 17 h -17 z m 17,0 h 17 v 17 h -17 z m 51,0 h 17 v 17 h -17 z m 34,0 h 17 v 17 h -17 z m 17,0 h 17 v 17 h -17 z m 17,0 h 17 v 17 h -17 z m 34,0 h 17 V 85 H 493 Z M 17,85 h 17 v 17 H 17 Z m 34,0 h 17 v 17 H 51 Z m 17,0 h 17 v 17 H 68 Z m 17,0 h 17 v 17 H 85 Z m 34,0 h 17 v 17 h -17 z m 34,0 h 17 v 17 h -17 z m 17,0 h 17 v 17 h -17 z m 17,0 h 17 v 17 h -17 z m 17,0 h 17 v 17 h -17 z m 34,0 h 17 v 17 h -17 z m 17,0 h 17 v 17 h -17 z m 17,0 h 17 v 17 h -17 z m 17,0 h 17 v 17 h -17 z m 51,0 h 17 v 17 h -17 z m 51,0 h 17 v 17 h -17 z m 34,0 h 17 v 17 h -17 z m 17,0 h 17 v 17 h -17 z m 17,0 h 17 v 17 h -17 z m 34,0 h 17 v 17 H 493 Z M 17,102 h 17 v 17 H 17 Z m 102,0 h 17 v 17 h -17 z m 51,0 h 17 v 17 h -17 z m 51,0 h 17 v 17 h -17 z m 34,0 h 17 v 17 h -17 z m 34,0 h 17 v 17 h -17 z m 34,0 h 17 v 17 h -17 z m 17,0 h 17 v 17 h -17 z m 51,0 h 17 v 17 h -17 z m 102,0 h 17 v 17 H 493 Z M 17,119 h 17 v 17 H 17 Z m 17,0 h 17 v 17 H 34 Z m 17,0 h 17 v 17 H 51 Z m 17,0 h 17 v 17 H 68 Z m 17,0 h 17 v 17 H 85 Z m 17,0 h 17 v 17 h -17 z m 17,0 h 17 v 17 h -17 z m 34,0 h 17 v 17 h -17 z m 34,0 h 17 v 17 h -17 z m 34,0 h 17 v 17 h -17 z m 34,0 h 17 v 17 h -17 z m 34,0 h 17 v 17 h -17 z m 34,0 h 17 v 17 h -17 z m 34,0 h 17 v 17 h -17 z m 34,0 h 17 v 17 h -17 z m 17,0 h 17 v 17 h -17 z m 17,0 h 17 v 17 h -17 z m 17,0 h 17 v 17 h -17 z m 17,0 h 17 v 17 h -17 z m 17,0 h 17 v 17 h -17 z m 17,0 h 17 v 17 h -17 z m -323,17 h 17 v 17 h -17 z m 34,0 h 17 v 17 h -17 z m 34,0 h 17 v 17 h -17 z m 17,0 h 17 v 17 h -17 z m 17,0 h 17 v 17 h -17 z m 17,0 h 17 v 17 h -17 z m 17,0 h 17 v 17 h -17 z m 17,0 h 17 v 17 h -17 z m 17,0 h 17 v 17 H 340 Z M 17,153 h 17 v 17 H 17 Z m 17,0 h 17 v 17 H 34 Z m 17,0 h 17 v 17 H 51 Z m 17,0 h 17 v 17 H 68 Z m 51,0 h 17 v 17 h -17 z m 34,0 h 17 v 17 h -17 z m 85,0 h 17 v 17 h -17 z m 17,0 h 17 v 17 h -17 z m 17,0 h 17 v 17 h -17 z m 17,0 h 17 v 17 h -17 z m 17,0 h 17 v 17 h -17 z m 17,0 h 17 v 17 h -17 z m 51,0 h 17 v 17 h -17 z m 51,0 h 17 v 17 h -17 z m 17,0 h 17 v 17 h -17 z m 17,0 h 17 v 17 h -17 z m 34,0 h 17 v 17 H 493 Z M 34,170 h 17 v 17 H 34 Z m 17,0 h 17 v 17 H 51 Z m 51,0 h 17 v 17 h -17 z m 68,0 h 17 v 17 h -17 z m 153,0 h 17 v 17 h -17 z m 17,0 h 17 v 17 h -17 z m 34,0 h 17 v 17 h -17 z m 17,0 h 17 v 17 h -17 z m 17,0 h 17 v 17 h -17 z m 17,0 h 17 v 17 h -17 z m 68,0 h 17 v 17 h -17 z m -374,17 h 17 v 17 h -17 z m 34,0 h 17 v 17 h -17 z m 102,0 h 17 v 17 h -17 z m 68,0 h 17 v 17 h -17 z m 34,0 h 17 v 17 h -17 z m 17,0 h 17 v 17 h -17 z m 17,0 h 17 v 17 h -17 z m 68,0 h 17 v 17 h -17 z m 17,0 h 17 v 17 H 476 Z M 34,204 h 17 v 17 H 34 Z m 34,0 h 17 v 17 H 68 Z m 34,0 h 17 v 17 h -17 z m 51,0 h 17 v 17 h -17 z m 51,0 h 17 v 17 h -17 z m 17,0 h 17 v 17 h -17 z m 17,0 h 17 v 17 h -17 z m 17,0 h 17 v 17 h -17 z m 17,0 h 17 v 17 h -17 z m 85,0 h 17 v 17 h -17 z m 68,0 h 17 v 17 h -17 z m 68,0 h 17 v 17 h -17 z m -374,17 h 17 v 17 h -17 z m 17,0 h 17 v 17 h -17 z m 34,0 h 17 v 17 h -17 z m 34,0 h 17 v 17 h -17 z m 102,0 h 17 v 17 h -17 z m 34,0 h 17 v 17 h -17 z m 102,0 h 17 v 17 h -17 z m 17,0 h 17 v 17 H 459 Z M 51,238 h 17 v 17 H 51 Z m 17,0 h 17 v 17 H 68 Z m 68,0 h 17 v 17 h -17 z m 17,0 h 17 v 17 h -17 z m 17,0 h 17 v 17 h -17 z m 17,0 h 17 v 17 h -17 z m 17,0 h 17 v 17 h -17 z m 34,0 h 17 v 17 h -17 z m 34,0 h 17 v 17 h -17 z m 17,0 h 17 v 17 h -17 z m 17,0 h 17 v 17 h -17 z m 17,0 h 17 v 17 h -17 z m 17,0 h 17 v 17 h -17 z m 51,0 h 17 v 17 h -17 z m 68,0 h 17 v 17 h -17 z m 17,0 h 17 v 17 h -17 z m 17,0 h 17 v 17 H 493 Z M 34,255 h 17 v 17 H 34 Z m 17,0 h 17 v 17 H 51 Z m 34,0 h 17 v 17 H 85 Z m 34,0 h 17 v 17 h -17 z m 68,0 h 17 v 17 h -17 z m 34,0 h 17 v 17 h -17 z m 34,0 h 17 v 17 h -17 z m 68,0 h 17 v 17 h -17 z m 17,0 h 17 v 17 h -17 z m 17,0 h 17 v 17 h -17 z m 17,0 h 17 v 17 h -17 z m 17,0 h 17 v 17 h -17 z m 68,0 h 17 v 17 h -17 z m 17,0 h 17 v 17 h -17 z m 17,0 h 17 v 17 h -17 z m -340,17 h 17 v 17 h -17 z m 68,0 h 17 v 17 h -17 z m 17,0 h 17 v 17 h -17 z m 34,0 h 17 v 17 h -17 z m 17,0 h 17 v 17 h -17 z m 68,0 h 17 v 17 h -17 z m 51,0 h 17 v 17 h -17 z m 68,0 h 17 v 17 H 476 Z M 17,289 h 17 v 17 H 17 Z m 17,0 h 17 v 17 H 34 Z m 51,0 h 17 v 17 H 85 Z m 34,0 h 17 v 17 h -17 z m 17,0 h 17 v 17 h -17 z m 68,0 h 17 v 17 h -17 z m 119,0 h 17 v 17 h -17 z m 34,0 h 17 v 17 h -17 z m 17,0 h 17 v 17 h -17 z m 34,0 h 17 v 17 h -17 z m 17,0 h 17 v 17 h -17 z m 17,0 h 17 v 17 h -17 z m 34,0 h 17 v 17 H 476 Z M 34,306 h 17 v 17 H 34 Z m 34,0 h 17 v 17 H 68 Z m 34,0 h 17 v 17 h -17 z m 51,0 h 17 v 17 h -17 z m 34,0 h 17 v 17 h -17 z m 34,0 h 17 v 17 h -17 z m 17,0 h 17 v 17 h -17 z m 34,0 h 17 v 17 h -17 z m 51,0 h 17 v 17 h -17 z m 34,0 h 17 v 17 h -17 z m 17,0 h 17 v 17 h -17 z m 34,0 h 17 v 17 h -17 z m 34,0 h 17 v 17 h -17 z m 17,0 h 17 v 17 h -17 z m 17,0 h 17 v 17 H 476 Z M 17,323 h 17 v 17 H 17 Z m 34,0 h 17 v 17 H 51 Z m 51,0 h 17 v 17 h -17 z m 17,0 h 17 v 17 h -17 z m 68,0 h 17 v 17 h -17 z m 17,0 h 17 v 17 h -17 z m 17,0 h 17 v 17 h -17 z m 51,0 h 17 v 17 h -17 z m 17,0 h 17 v 17 h -17 z m 17,0 h 17 v 17 h -17 z m 17,0 h 17 v 17 h -17 z m 136,0 h 17 v 17 H 459 Z M 68,340 h 17 v 17 H 68 Z m 34,0 h 17 v 17 h -17 z m 34,0 h 17 v 17 h -17 z m 17,0 h 17 v 17 h -17 z m 34,0 h 17 v 17 h -17 z m 34,0 h 17 v 17 h -17 z m 51,0 h 17 v 17 h -17 z m 17,0 h 17 v 17 h -17 z m 17,0 h 17 v 17 h -17 z m 68,0 h 17 v 17 h -17 z m 17,0 h 17 v 17 h -17 z m 34,0 h 17 v 17 h -17 z m 34,0 h 17 v 17 H 459 Z M 34,357 h 17 v 17 H 34 Z m 17,0 h 17 v 17 H 51 Z m 34,0 h 17 v 17 H 85 Z m 34,0 h 17 v 17 h -17 z m 34,0 h 17 v 17 h -17 z m 17,0 h 17 v 17 h -17 z m 34,0 h 17 v 17 h -17 z m 17,0 h 17 v 17 h -17 z m 17,0 h 17 v 17 h -17 z m 51,0 h 17 v 17 h -17 z m 17,0 h 17 v 17 h -17 z m 17,0 h 17 v 17 h -17 z m 34,0 h 17 v 17 h -17 z m 17,0 h 17 v 17 h -17 z m 17,0 h 17 v 17 h -17 z m 17,0 h 17 v 17 h -17 z m 17,0 h 17 v 17 h -17 z m 17,0 h 17 v 17 h -17 z m 17,0 h 17 v 17 h -17 z m -306,17 h 17 v 17 h -17 z m 68,0 h 17 v 17 h -17 z m 17,0 h 17 v 17 h -17 z m 17,0 h 17 v 17 h -17 z m 34,0 h 17 v 17 h -17 z m 68,0 h 17 v 17 h -17 z m 68,0 h 17 v 17 h -17 z m 17,0 h 17 v 17 h -17 z m 17,0 h 17 v 17 h -17 z m 17,0 h 17 v 17 h -17 z m 17,0 h 17 v 17 H 493 Z M 17,391 h 17 v 17 H 17 Z m 17,0 h 17 v 17 H 34 Z m 17,0 h 17 v 17 H 51 Z m 17,0 h 17 v 17 H 68 Z m 17,0 h 17 v 17 H 85 Z m 17,0 h 17 v 17 h -17 z m 17,0 h 17 v 17 h -17 z m 51,0 h 17 v 17 h -17 z m 17,0 h 17 v 17 h -17 z m 17,0 h 17 v 17 h -17 z m 17,0 h 17 v 17 h -17 z m 17,0 h 17 v 17 h -17 z m 68,0 h 17 v 17 h -17 z m 17,0 h 17 v 17 h -17 z m 17,0 h 17 v 17 h -17 z m 17,0 h 17 v 17 h -17 z m 34,0 h 17 v 17 h -17 z m 34,0 h 17 v 17 h -17 z m 17,0 h 17 v 17 h -17 z m 34,0 h 17 v 17 H 476 Z M 17,408 h 17 v 17 H 17 Z m 102,0 h 17 v 17 h -17 z m 68,0 h 17 v 17 h -17 z m 85,0 h 17 v 17 h -17 z m 85,0 h 17 v 17 h -17 z m 68,0 h 17 v 17 h -17 z m 17,0 h 17 v 17 h -17 z m 34,0 h 17 v 17 h -17 z m 17,0 h 17 v 17 H 493 Z M 17,425 h 17 v 17 H 17 Z m 34,0 h 17 v 17 H 51 Z m 17,0 h 17 v 17 H 68 Z m 17,0 h 17 v 17 H 85 Z m 34,0 h 17 v 17 h -17 z m 51,0 h 17 v 17 h -17 z m 17,0 h 17 v 17 h -17 z m 34,0 h 17 v 17 h -17 z m 34,0 h 17 v 17 h -17 z m 51,0 h 17 v 17 h -17 z m 51,0 h 17 v 17 h -17 z m 17,0 h 17 v 17 h -17 z m 17,0 h 17 v 17 h -17 z m 17,0 h 17 v 17 h -17 z m 17,0 h 17 v 17 h -17 z m 34,0 h 17 v 17 H 459 Z M 17,442 h 17 v 17 H 17 Z m 34,0 h 17 v 17 H 51 Z m 17,0 h 17 v 17 H 68 Z m 17,0 h 17 v 17 H 85 Z m 34,0 h 17 v 17 h -17 z m 34,0 h 17 v 17 h -17 z m 17,0 h 17 v 17 h -17 z m 34,0 h 17 v 17 h -17 z m 17,0 h 17 v 17 h -17 z m 34,0 h 17 v 17 h -17 z m 17,0 h 17 v 17 h -17 z m 17,0 h 17 v 17 h -17 z m 17,0 h 17 v 17 h -17 z m 17,0 h 17 v 17 h -17 z m 34,0 h 17 v 17 h -17 z m 17,0 h 17 v 17 h -17 z m 34,0 h 17 v 17 h -17 z m 17,0 h 17 v 17 h -17 z m 17,0 h 17 v 17 h -17 z m 51,0 h 17 v 17 H 493 Z M 17,459 h 17 v 17 H 17 Z m 34,0 h 17 v 17 H 51 Z m 17,0 h 17 v 17 H 68 Z m 17,0 h 17 v 17 H 85 Z m 34,0 h 17 v 17 h -17 z m 34,0 h 17 v 17 h -17 z m 17,0 h 17 v 17 h -17 z m 34,0 h 17 v 17 h -17 z m 34,0 h 17 v 17 h -17 z m 68,0 h 17 v 17 h -17 z m 17,0 h 17 v 17 h -17 z m 17,0 h 17 v 17 h -17 z m 17,0 h 17 v 17 h -17 z m 51,0 h 17 v 17 h -17 z m 51,0 h 17 v 17 h -17 z m 34,0 h 17 v 17 H 493 Z M 17,476 h 17 v 17 H 17 Z m 102,0 h 17 v 17 h -17 z m 34,0 h 17 v 17 h -17 z m 34,0 h 17 v 17 h -17 z m 17,0 h 17 v 17 h -17 z m 51,0 h 17 v 17 h -17 z m 17,0 h 17 v 17 h -17 z m 85,0 h 17 v 17 h -17 z m 17,0 h 17 v 17 h -17 z m 34,0 h 17 v 17 h -17 z m 34,0 h 17 v 17 h -17 z m 34,0 h 17 v 17 H 476 Z M 17,493 h 17 v 17 H 17 Z m 17,0 h 17 v 17 H 34 Z m 17,0 h 17 v 17 H 51 Z m 17,0 h 17 v 17 H 68 Z m 17,0 h 17 v 17 H 85 Z m 17,0 h 17 v 17 h -17 z m 17,0 h 17 v 17 h -17 z m 34,0 h 17 v 17 h -17 z m 17,0 h 17 v 17 h -17 z m 17,0 h 17 v 17 h -17 z m 34,0 h 17 v 17 h -17 z m 34,0 h 17 v 17 h -17 z m 68,0 h 17 v 17 h -17 z m 17,0 h 17 v 17 h -17 z m 17,0 h 17 v 17 h -17 z m 17,0 h 17 v 17 h -17 z m 51,0 h 17 v 17 h -17 z m 51,0 h 17 v 17 h -17 z"
     stroke="transparent"
     fill="#000000"
     id="path1" />
</svg>
