<?xml version="1.0" encoding="UTF-8" standalone="no"?>
<!-- Created with Inkscape (http://www.inkscape.org/) -->

<svg
   width="210mm"
   height="297mm"
   viewBox="0 0 210 297"
   version="1.1"
   id="svg1"
   xml:space="preserve"
   inkscape:export-filename="Rastergrafik.png"
   inkscape:export-xdpi="96"
   inkscape:export-ydpi="96"
   xmlns:inkscape="http://www.inkscape.org/namespaces/inkscape"
   xmlns:sodipodi="http://sodipodi.sourceforge.net/DTD/sodipodi-0.dtd"
   xmlns:xlink="http://www.w3.org/1999/xlink"
   xmlns="http://www.w3.org/2000/svg"
   xmlns:svg="http://www.w3.org/2000/svg"><sodipodi:namedview
     id="namedview1"
     pagecolor="#505050"
     bordercolor="#ffffff"
     borderopacity="1"
     inkscape:showpageshadow="0"
     inkscape:pageopacity="0"
     inkscape:pagecheckerboard="1"
     inkscape:deskcolor="#505050"
     inkscape:document-units="mm" /><defs
     id="defs1" /><g
     inkscape:label="Ebene 1"
     inkscape:groupmode="layer"
     id="layer1"><image
       width="1218.6036"
       height="650.88617"
       preserveAspectRatio="none"
       xlink:href="file:///C:/Users/klaus/Downloads/hieronymus-bosch_1500-1505_the-garden-of-earthly-delights.jpg"
       id="image1"
       x="-958.86151"
       y="-293.72168"
       style="fill:#ffffff" /><path
       style="display:inline;opacity:0.7;fill:#ffffff;stroke-width:0.661458;stroke-linecap:square;stroke-linejoin:bevel;paint-order:markers fill stroke"
       d="M -13.580017,-12.322608 -12.825571,100.8442 242.93141,61.86452 243.18289,-22.381879 Z"
       id="path1" /><text
       xml:space="preserve"
       style="font-size:11.2889px;line-height:0;font-family:serif;-inkscape-font-specification:serif;fill:#000000;stroke-width:0.661458;stroke-linecap:square;stroke-linejoin:bevel;paint-order:markers fill stroke"
       x="5.2009554"
       y="16.025141"
       id="text1"><tspan
         sodipodi:role="line"
         id="tspan1"
         style="font-size:11.2889px;stroke-width:0.661458"
         x="5.2009554"
         y="16.025141">Damit die Hochschule nicht so bleibt.</tspan></text><path
       d="m 3.7583881,47.139004 h 1.37977 v 1.37977 h -1.37977 z m 1.37977,0 h 1.37977 v 1.37977 h -1.37977 z m 1.37977,0 h 1.37977 v 1.37977 h -1.37977 z m 1.37977,0 h 1.37976 v 1.37977 h -1.37976 z m 1.37976,0 h 1.3797699 v 1.37977 H 9.2774581 Z m 1.3797699,0 h 1.37977 v 1.37977 h -1.37977 z m 1.37977,0 h 1.37977 v 1.37977 h -1.37977 z m 2.75954,0 h 1.37977 v 1.37977 h -1.37977 z m 1.37977,0 h 1.37977 v 1.37977 h -1.37977 z m 9.65837,0 h 1.37977 v 1.37977 h -1.37977 z m 4.13931,0 h 1.37977 v 1.37977 h -1.37977 z m 1.37977,0 h 1.37977 v 1.37977 h -1.37977 z m 2.75953,0 h 1.37977 v 1.37977 h -1.37977 z m 1.37977,0 h 1.37977 v 1.37977 h -1.37977 z m 1.37977,0 h 1.37977 v 1.37977 h -1.37977 z m 1.37977,0 h 1.37976 v 1.37977 h -1.37976 z m 1.37976,0 h 1.37978 v 1.37977 h -1.37978 z m 1.37978,0 h 1.37976 v 1.37977 h -1.37976 z m 1.37976,0 h 1.37977 v 1.37977 h -1.37977 z m -38.6335099,1.37977 h 1.37977 v 1.37977 h -1.37977 z m 8.2786099,0 h 1.37977 v 1.37977 h -1.37977 z m 19.31676,0 h 1.37977 v 1.37977 h -1.37977 z m 2.75953,0 h 1.37977 v 1.37977 h -1.37977 z m 8.27861,0 h 1.37977 v 1.37977 h -1.37977 z m -38.6335099,1.37977 h 1.37977 v 1.37976 h -1.37977 z m 2.75954,0 h 1.37977 v 1.37976 h -1.37977 z m 1.37977,0 h 1.37976 v 1.37976 h -1.37976 z m 1.37976,0 h 1.3797699 v 1.37976 H 9.2774581 Z m 2.7595399,0 h 1.37977 v 1.37976 h -1.37977 z m 2.75954,0 h 1.37977 v 1.37976 h -1.37977 z m 4.1393,0 h 1.37977 v 1.37976 h -1.37977 z m 1.37977,0 h 1.37977 v 1.37976 h -1.37977 z m 1.37977,0 h 1.37977 v 1.37976 h -1.37977 z m 1.37977,0 h 1.37977 v 1.37976 h -1.37977 z m 5.51907,0 h 1.37977 v 1.37976 h -1.37977 z m 1.37977,0 h 1.37977 v 1.37976 h -1.37977 z m 4.1393,0 h 1.37977 v 1.37976 h -1.37977 z m 2.75954,0 h 1.37977 v 1.37976 h -1.37977 z m 1.37977,0 h 1.37976 v 1.37976 h -1.37976 z m 1.37976,0 h 1.37978 v 1.37976 h -1.37978 z m 2.75954,0 h 1.37977 v 1.37976 h -1.37977 z m -38.6335099,1.37976 h 1.37977 v 1.37977 h -1.37977 z m 2.75954,0 h 1.37977 v 1.37977 h -1.37977 z m 1.37977,0 h 1.37976 v 1.37977 h -1.37976 z m 1.37976,0 h 1.3797699 v 1.37977 H 9.2774581 Z m 2.7595399,0 h 1.37977 v 1.37977 h -1.37977 z m 2.75954,0 h 1.37977 v 1.37977 h -1.37977 z m 1.37977,0 h 1.37977 v 1.37977 h -1.37977 z m 2.75953,0 h 1.37977 v 1.37977 h -1.37977 z m 5.51908,0 h 1.37976 v 1.37977 h -1.37976 z m 2.75953,0 h 1.37977 v 1.37977 h -1.37977 z m 1.37977,0 h 1.37977 v 1.37977 h -1.37977 z m 1.37977,0 h 1.37977 v 1.37977 h -1.37977 z m 4.1393,0 h 1.37977 v 1.37977 h -1.37977 z m 2.75954,0 h 1.37977 v 1.37977 h -1.37977 z m 1.37977,0 h 1.37976 v 1.37977 h -1.37976 z m 1.37976,0 h 1.37978 v 1.37977 h -1.37978 z m 2.75954,0 h 1.37977 v 1.37977 h -1.37977 z m -38.6335099,1.37977 h 1.37977 v 1.37977 h -1.37977 z m 2.75954,0 h 1.37977 v 1.37977 h -1.37977 z m 1.37977,0 h 1.37976 v 1.37977 h -1.37976 z m 1.37976,0 h 1.3797699 v 1.37977 H 9.2774581 Z m 2.7595399,0 h 1.37977 v 1.37977 h -1.37977 z m 2.75954,0 h 1.37977 v 1.37977 h -1.37977 z m 1.37977,0 h 1.37977 v 1.37977 h -1.37977 z m 1.37977,0 h 1.37976 v 1.37977 h -1.37976 z m 1.37976,0 h 1.37977 v 1.37977 h -1.37977 z m 2.75954,0 h 1.37977 v 1.37977 h -1.37977 z m 1.37977,0 h 1.37977 v 1.37977 h -1.37977 z m 1.37977,0 h 1.37976 v 1.37977 h -1.37976 z m 1.37976,0 h 1.37977 v 1.37977 h -1.37977 z m 4.13931,0 h 1.37977 v 1.37977 h -1.37977 z m 4.1393,0 h 1.37977 v 1.37977 h -1.37977 z m 2.75954,0 h 1.37977 v 1.37977 h -1.37977 z m 1.37977,0 h 1.37976 v 1.37977 h -1.37976 z m 1.37976,0 h 1.37978 v 1.37977 h -1.37978 z m 2.75954,0 h 1.37977 v 1.37977 h -1.37977 z m -38.6335099,1.37977 h 1.37977 v 1.37977 h -1.37977 z m 8.2786099,0 h 1.37977 v 1.37977 h -1.37977 z m 4.13931,0 h 1.37977 v 1.37977 h -1.37977 z m 4.1393,0 h 1.37977 v 1.37977 h -1.37977 z m 2.75954,0 h 1.37977 v 1.37977 h -1.37977 z m 2.75953,0 h 1.37977 v 1.37977 h -1.37977 z m 2.75954,0 h 1.37977 v 1.37977 h -1.37977 z m 1.37977,0 h 1.37977 v 1.37977 h -1.37977 z m 4.1393,0 h 1.37977 v 1.37977 h -1.37977 z m 8.27861,0 h 1.37977 v 1.37977 h -1.37977 z m -38.6335099,1.37977 h 1.37977 v 1.37977 h -1.37977 z m 1.37977,0 h 1.37977 v 1.37977 h -1.37977 z m 1.37977,0 h 1.37977 v 1.37977 h -1.37977 z m 1.37977,0 h 1.37976 v 1.37977 h -1.37976 z m 1.37976,0 h 1.3797699 v 1.37977 H 9.2774581 Z m 1.3797699,0 h 1.37977 v 1.37977 h -1.37977 z m 1.37977,0 h 1.37977 v 1.37977 h -1.37977 z m 2.75954,0 h 1.37977 v 1.37977 h -1.37977 z m 2.75954,0 h 1.37976 v 1.37977 h -1.37976 z m 2.75953,0 h 1.37977 v 1.37977 h -1.37977 z m 2.75954,0 h 1.37977 v 1.37977 h -1.37977 z m 2.75953,0 h 1.37977 v 1.37977 h -1.37977 z m 2.75954,0 h 1.37977 v 1.37977 h -1.37977 z m 2.75954,0 h 1.37977 v 1.37977 h -1.37977 z m 2.75953,0 h 1.37977 v 1.37977 h -1.37977 z m 1.37977,0 h 1.37977 v 1.37977 h -1.37977 z m 1.37977,0 h 1.37977 v 1.37977 h -1.37977 z m 1.37977,0 h 1.37976 v 1.37977 h -1.37976 z m 1.37976,0 h 1.37978 v 1.37977 h -1.37978 z m 1.37978,0 h 1.37976 v 1.37977 h -1.37976 z m 1.37976,0 h 1.37977 v 1.37977 h -1.37977 z m -26.21559,1.37977 h 1.37977 v 1.37977 h -1.37977 z m 2.75953,0 h 1.37977 v 1.37977 h -1.37977 z m 2.75954,0 h 1.37977 v 1.37977 h -1.37977 z m 1.37977,0 h 1.37977 v 1.37977 h -1.37977 z m 1.37977,0 h 1.37976 v 1.37977 h -1.37976 z m 1.37976,0 h 1.37977 v 1.37977 h -1.37977 z m 1.37977,0 h 1.37977 v 1.37977 h -1.37977 z m 1.37977,0 h 1.37977 v 1.37977 h -1.37977 z m 1.37977,0 h 1.37977 v 1.37977 h -1.37977 z m -26.2155999,1.37977 h 1.37977 v 1.37976 h -1.37977 z m 1.37977,0 h 1.37977 v 1.37976 h -1.37977 z m 1.37977,0 h 1.37977 v 1.37976 h -1.37977 z m 1.37977,0 h 1.37976 v 1.37976 h -1.37976 z m 4.1392999,0 h 1.37977 v 1.37976 h -1.37977 z m 2.75954,0 h 1.37977 v 1.37976 h -1.37977 z m 6.89884,0 h 1.37977 v 1.37976 h -1.37977 z m 1.37977,0 h 1.37977 v 1.37976 h -1.37977 z m 1.37977,0 h 1.37976 v 1.37976 h -1.37976 z m 1.37976,0 h 1.37977 v 1.37976 h -1.37977 z m 1.37977,0 h 1.37977 v 1.37976 h -1.37977 z m 1.37977,0 h 1.37977 v 1.37976 h -1.37977 z m 4.13931,0 h 1.37976 v 1.37976 h -1.37976 z m 4.1393,0 h 1.37977 v 1.37976 h -1.37977 z m 1.37977,0 h 1.37976 v 1.37976 h -1.37976 z m 1.37976,0 h 1.37978 v 1.37976 h -1.37978 z m 2.75954,0 h 1.37977 v 1.37976 h -1.37977 z m -37.2537399,1.37976 h 1.37977 v 1.37977 h -1.37977 z m 1.37977,0 h 1.37977 v 1.37977 h -1.37977 z m 4.1392999,0 h 1.37977 v 1.37977 h -1.37977 z m 5.51908,0 h 1.37977 v 1.37977 h -1.37977 z m 12.41791,0 h 1.37977 v 1.37977 h -1.37977 z m 1.37977,0 h 1.37977 v 1.37977 h -1.37977 z m 2.75954,0 h 1.37976 v 1.37977 h -1.37976 z m 1.37976,0 h 1.37977 v 1.37977 h -1.37977 z m 1.37977,0 h 1.37977 v 1.37977 h -1.37977 z m 1.37977,0 h 1.37977 v 1.37977 h -1.37977 z m 5.51907,0 h 1.37977 v 1.37977 h -1.37977 z m -30.3549,1.37977 h 1.37977 v 1.37977 h -1.37977 z m 2.75954,0 h 1.37977 v 1.37977 h -1.37977 z m 8.27861,0 h 1.37977 v 1.37977 h -1.37977 z m 5.51907,0 h 1.37977 v 1.37977 h -1.37977 z m 2.75954,0 h 1.37977 v 1.37977 h -1.37977 z m 1.37977,0 h 1.37976 v 1.37977 h -1.37976 z m 1.37976,0 h 1.37977 v 1.37977 h -1.37977 z m 5.51907,0 h 1.37978 v 1.37977 h -1.37978 z m 1.37978,0 h 1.37976 v 1.37977 h -1.37976 z m -35.8739799,1.37977 h 1.37977 v 1.37977 h -1.37977 z m 2.75954,0 h 1.37976 v 1.37977 h -1.37976 z m 2.7595299,0 h 1.37977 v 1.37977 h -1.37977 z m 4.13931,0 h 1.37977 v 1.37977 h -1.37977 z m 4.1393,0 h 1.37977 v 1.37977 h -1.37977 z m 1.37977,0 h 1.37977 v 1.37977 h -1.37977 z m 1.37977,0 h 1.37977 v 1.37977 h -1.37977 z m 1.37977,0 h 1.37977 v 1.37977 h -1.37977 z m 1.37977,0 h 1.37976 v 1.37977 h -1.37976 z m 6.89884,0 h 1.37977 v 1.37977 h -1.37977 z m 5.51907,0 h 1.37977 v 1.37977 h -1.37977 z m 5.51907,0 h 1.37977 v 1.37977 h -1.37977 z m -30.3549,1.37977 h 1.37977 v 1.37977 h -1.37977 z m 1.37977,0 h 1.37977 v 1.37977 h -1.37977 z m 2.75954,0 h 1.37977 v 1.37977 h -1.37977 z m 2.75953,0 h 1.37977 v 1.37977 h -1.37977 z m 8.27861,0 h 1.37977 v 1.37977 h -1.37977 z m 2.75954,0 h 1.37977 v 1.37977 h -1.37977 z m 8.27861,0 h 1.37976 v 1.37977 h -1.37976 z m 1.37976,0 h 1.37978 v 1.37977 h -1.37978 z m -33.1144299,1.37977 h 1.37977 v 1.37976 h -1.37977 z m 1.37977,0 h 1.37976 v 1.37976 h -1.37976 z m 5.5190699,0 h 1.37977 v 1.37976 h -1.37977 z m 1.37977,0 h 1.37977 v 1.37976 h -1.37977 z m 1.37977,0 h 1.37977 v 1.37976 h -1.37977 z m 1.37977,0 h 1.37976 v 1.37976 h -1.37976 z m 1.37976,0 h 1.37977 v 1.37976 h -1.37977 z m 2.75954,0 h 1.37977 v 1.37976 h -1.37977 z m 2.75954,0 h 1.37976 v 1.37976 h -1.37976 z m 1.37976,0 h 1.37977 v 1.37976 h -1.37977 z m 1.37977,0 h 1.37977 v 1.37976 h -1.37977 z m 1.37977,0 h 1.37977 v 1.37976 h -1.37977 z m 1.37977,0 h 1.37977 v 1.37976 h -1.37977 z m 4.1393,0 h 1.37977 v 1.37976 h -1.37977 z m 5.51907,0 h 1.37978 v 1.37976 h -1.37978 z m 1.37978,0 h 1.37976 v 1.37976 h -1.37976 z m 1.37976,0 h 1.37977 v 1.37976 h -1.37977 z m -37.2537399,1.37976 h 1.37977 v 1.37978 h -1.37977 z m 1.37977,0 h 1.37977 v 1.37978 h -1.37977 z m 2.75953,0 h 1.3797699 v 1.37978 H 9.2774581 Z m 2.7595399,0 h 1.37977 v 1.37978 h -1.37977 z m 5.51908,0 h 1.37976 v 1.37978 h -1.37976 z m 2.75953,0 h 1.37977 v 1.37978 h -1.37977 z m 2.75954,0 h 1.37977 v 1.37978 h -1.37977 z m 5.51907,0 h 1.37977 v 1.37978 h -1.37977 z m 1.37977,0 h 1.37977 v 1.37978 h -1.37977 z m 1.37977,0 h 1.37977 v 1.37978 h -1.37977 z m 1.37977,0 h 1.37976 v 1.37978 h -1.37976 z m 1.37976,0 h 1.37977 v 1.37978 h -1.37977 z m 5.51907,0 h 1.37978 v 1.37978 h -1.37978 z m 1.37978,0 h 1.37976 v 1.37978 h -1.37976 z m 1.37976,0 h 1.37977 v 1.37978 h -1.37977 z m -27.59536,1.37978 h 1.37977 v 1.37976 h -1.37977 z m 5.51907,0 h 1.37977 v 1.37976 h -1.37977 z m 1.37977,0 h 1.37977 v 1.37976 h -1.37977 z m 2.75954,0 h 1.37976 v 1.37976 h -1.37976 z m 1.37976,0 h 1.37977 v 1.37976 h -1.37977 z m 5.51908,0 h 1.37977 v 1.37976 h -1.37977 z m 4.1393,0 h 1.37977 v 1.37976 h -1.37977 z m 5.51908,0 h 1.37976 v 1.37976 h -1.37976 z m -37.2537499,1.37976 h 1.37977 v 1.37977 h -1.37977 z m 1.37977,0 h 1.37977 v 1.37977 h -1.37977 z m 4.1393,0 h 1.3797699 v 1.37977 H 9.2774581 Z m 2.7595399,0 h 1.37977 v 1.37977 h -1.37977 z m 1.37977,0 h 1.37977 v 1.37977 h -1.37977 z m 5.51907,0 h 1.37977 v 1.37977 h -1.37977 z m 9.65838,0 h 1.37977 v 1.37977 h -1.37977 z m 2.75954,0 h 1.37977 v 1.37977 h -1.37977 z m 1.37977,0 h 1.37976 v 1.37977 h -1.37976 z m 2.75953,0 h 1.37977 v 1.37977 h -1.37977 z m 1.37977,0 h 1.37977 v 1.37977 h -1.37977 z m 1.37977,0 h 1.37976 v 1.37977 h -1.37976 z m 2.75954,0 h 1.37976 v 1.37977 h -1.37976 z m -35.8739799,1.37977 h 1.37977 v 1.37977 h -1.37977 z m 2.75954,0 h 1.37976 v 1.37977 h -1.37976 z m 2.7595299,0 h 1.37977 v 1.37977 h -1.37977 z m 4.13931,0 h 1.37977 v 1.37977 h -1.37977 z m 2.75954,0 h 1.37976 v 1.37977 h -1.37976 z m 2.75953,0 h 1.37977 v 1.37977 h -1.37977 z m 1.37977,0 h 1.37977 v 1.37977 h -1.37977 z m 2.75954,0 h 1.37976 v 1.37977 h -1.37976 z m 4.1393,0 h 1.37977 v 1.37977 h -1.37977 z m 2.75954,0 h 1.37977 v 1.37977 h -1.37977 z m 1.37977,0 h 1.37976 v 1.37977 h -1.37976 z m 2.75953,0 h 1.37977 v 1.37977 h -1.37977 z m 2.75954,0 h 1.37976 v 1.37977 h -1.37976 z m 1.37976,0 h 1.37978 v 1.37977 h -1.37978 z m 1.37978,0 h 1.37976 v 1.37977 h -1.37976 z m -37.2537499,1.37977 h 1.37977 v 1.37977 h -1.37977 z m 2.75954,0 h 1.37977 v 1.37977 h -1.37977 z m 4.1392999,0 h 1.37977 v 1.37977 h -1.37977 z m 1.37977,0 h 1.37977 v 1.37977 h -1.37977 z m 5.51908,0 h 1.37976 v 1.37977 h -1.37976 z m 1.37976,0 h 1.37977 v 1.37977 h -1.37977 z m 1.37977,0 h 1.37977 v 1.37977 h -1.37977 z m 4.13931,0 h 1.37976 v 1.37977 h -1.37976 z m 1.37976,0 h 1.37977 v 1.37977 h -1.37977 z m 1.37977,0 h 1.37977 v 1.37977 h -1.37977 z m 1.37977,0 h 1.37977 v 1.37977 h -1.37977 z m 11.03814,0 h 1.37978 v 1.37977 h -1.37978 z m -31.7346599,1.37977 h 1.37976 v 1.37976 h -1.37976 z m 2.7595299,0 h 1.37977 v 1.37976 h -1.37977 z m 2.75954,0 h 1.37977 v 1.37976 h -1.37977 z m 1.37977,0 h 1.37977 v 1.37976 h -1.37977 z m 2.75954,0 h 1.37976 v 1.37976 h -1.37976 z m 2.75953,0 h 1.37977 v 1.37976 h -1.37977 z m 4.13931,0 h 1.37976 v 1.37976 h -1.37976 z m 1.37976,0 h 1.37977 v 1.37976 h -1.37977 z m 1.37977,0 h 1.37977 v 1.37976 h -1.37977 z m 5.51908,0 h 1.37976 v 1.37976 h -1.37976 z m 1.37976,0 h 1.37977 v 1.37976 h -1.37977 z m 2.75954,0 h 1.37977 v 1.37976 h -1.37977 z m 2.75953,0 h 1.37978 v 1.37976 h -1.37978 z m -34.4941999,1.37976 h 1.37977 v 1.37977 h -1.37977 z m 1.37977,0 h 1.37977 v 1.37977 h -1.37977 z m 2.75953,0 h 1.3797699 v 1.37977 H 9.2774581 Z m 2.7595399,0 h 1.37977 v 1.37977 h -1.37977 z m 2.75954,0 h 1.37977 v 1.37977 h -1.37977 z m 1.37977,0 h 1.37977 v 1.37977 h -1.37977 z m 2.75953,0 h 1.37977 v 1.37977 h -1.37977 z m 1.37977,0 h 1.37977 v 1.37977 h -1.37977 z m 1.37977,0 h 1.37977 v 1.37977 h -1.37977 z m 4.1393,0 h 1.37977 v 1.37977 h -1.37977 z m 1.37977,0 h 1.37977 v 1.37977 h -1.37977 z m 1.37977,0 h 1.37977 v 1.37977 h -1.37977 z m 2.75954,0 h 1.37977 v 1.37977 h -1.37977 z m 1.37977,0 h 1.37976 v 1.37977 h -1.37976 z m 1.37976,0 h 1.37977 v 1.37977 h -1.37977 z m 1.37977,0 h 1.37977 v 1.37977 h -1.37977 z m 1.37977,0 h 1.37977 v 1.37977 h -1.37977 z m 1.37977,0 h 1.37976 v 1.37977 h -1.37976 z m 1.37976,0 h 1.37978 v 1.37977 h -1.37978 z m -24.83582,1.37977 h 1.37977 v 1.37977 h -1.37977 z m 5.51907,0 h 1.37977 v 1.37977 h -1.37977 z m 1.37977,0 h 1.37977 v 1.37977 h -1.37977 z m 1.37977,0 h 1.37977 v 1.37977 h -1.37977 z m 2.75953,0 h 1.37977 v 1.37977 h -1.37977 z m 5.51908,0 h 1.37977 v 1.37977 h -1.37977 z m 5.51907,0 h 1.37977 v 1.37977 h -1.37977 z m 1.37977,0 h 1.37976 v 1.37977 h -1.37976 z m 1.37976,0 h 1.37978 v 1.37977 h -1.37978 z m 1.37978,0 h 1.37976 v 1.37977 h -1.37976 z m 1.37976,0 h 1.37977 v 1.37977 h -1.37977 z m -38.6335099,1.37977 h 1.37977 v 1.37977 h -1.37977 z m 1.37977,0 h 1.37977 v 1.37977 h -1.37977 z m 1.37977,0 h 1.37977 v 1.37977 h -1.37977 z m 1.37977,0 h 1.37976 v 1.37977 h -1.37976 z m 1.37976,0 h 1.3797699 v 1.37977 H 9.2774581 Z m 1.3797699,0 h 1.37977 v 1.37977 h -1.37977 z m 1.37977,0 h 1.37977 v 1.37977 h -1.37977 z m 4.13931,0 h 1.37977 v 1.37977 h -1.37977 z m 1.37977,0 h 1.37976 v 1.37977 h -1.37976 z m 1.37976,0 h 1.37977 v 1.37977 h -1.37977 z m 1.37977,0 h 1.37977 v 1.37977 h -1.37977 z m 1.37977,0 h 1.37977 v 1.37977 h -1.37977 z m 5.51907,0 h 1.37977 v 1.37977 h -1.37977 z m 1.37977,0 h 1.37977 v 1.37977 h -1.37977 z m 1.37977,0 h 1.37977 v 1.37977 h -1.37977 z m 1.37977,0 h 1.37977 v 1.37977 h -1.37977 z m 2.75953,0 h 1.37977 v 1.37977 h -1.37977 z m 2.75954,0 h 1.37977 v 1.37977 h -1.37977 z m 1.37977,0 h 1.37976 v 1.37977 h -1.37976 z m 2.75954,0 h 1.37976 v 1.37977 h -1.37976 z m -37.2537499,1.37977 h 1.37977 v 1.37977 h -1.37977 z m 8.2786099,0 h 1.37977 v 1.37977 h -1.37977 z m 5.51908,0 h 1.37976 v 1.37977 h -1.37976 z m 6.89884,0 h 1.37976 v 1.37977 h -1.37976 z m 6.89884,0 h 1.37977 v 1.37977 h -1.37977 z m 5.51907,0 h 1.37977 v 1.37977 h -1.37977 z m 1.37977,0 h 1.37976 v 1.37977 h -1.37976 z m 2.75954,0 h 1.37976 v 1.37977 h -1.37976 z m 1.37976,0 h 1.37977 v 1.37977 h -1.37977 z m -38.6335099,1.37977 h 1.37977 v 1.37977 h -1.37977 z m 2.75954,0 h 1.37977 v 1.37977 h -1.37977 z m 1.37977,0 h 1.37976 v 1.37977 h -1.37976 z m 1.37976,0 h 1.3797699 v 1.37977 H 9.2774581 Z m 2.7595399,0 h 1.37977 v 1.37977 h -1.37977 z m 4.13931,0 h 1.37977 v 1.37977 h -1.37977 z m 1.37977,0 h 1.37976 v 1.37977 h -1.37976 z m 2.75953,0 h 1.37977 v 1.37977 h -1.37977 z m 2.75954,0 h 1.37977 v 1.37977 h -1.37977 z m 4.1393,0 h 1.37977 v 1.37977 h -1.37977 z m 4.13931,0 h 1.37977 v 1.37977 h -1.37977 z m 1.37977,0 h 1.37976 v 1.37977 h -1.37976 z m 1.37976,0 h 1.37977 v 1.37977 h -1.37977 z m 1.37977,0 h 1.37977 v 1.37977 h -1.37977 z m 1.37977,0 h 1.37977 v 1.37977 h -1.37977 z m 2.75953,0 h 1.37978 v 1.37977 h -1.37978 z m -35.8739699,1.37977 h 1.37977 v 1.37976 h -1.37977 z m 2.75954,0 h 1.37977 v 1.37976 h -1.37977 z m 1.37977,0 h 1.37976 v 1.37976 h -1.37976 z m 1.37976,0 h 1.3797699 v 1.37976 H 9.2774581 Z m 2.7595399,0 h 1.37977 v 1.37976 h -1.37977 z m 2.75954,0 h 1.37977 v 1.37976 h -1.37977 z m 1.37977,0 h 1.37977 v 1.37976 h -1.37977 z m 2.75953,0 h 1.37977 v 1.37976 h -1.37977 z m 1.37977,0 h 1.37977 v 1.37976 h -1.37977 z m 2.75954,0 h 1.37977 v 1.37976 h -1.37977 z m 1.37977,0 h 1.37976 v 1.37976 h -1.37976 z m 1.37976,0 h 1.37977 v 1.37976 h -1.37977 z m 1.37977,0 h 1.37977 v 1.37976 h -1.37977 z m 1.37977,0 h 1.37977 v 1.37976 h -1.37977 z m 2.75954,0 h 1.37977 v 1.37976 h -1.37977 z m 1.37977,0 h 1.37976 v 1.37976 h -1.37976 z m 2.75953,0 h 1.37977 v 1.37976 h -1.37977 z m 1.37977,0 h 1.37977 v 1.37976 h -1.37977 z m 1.37977,0 h 1.37976 v 1.37976 h -1.37976 z m 4.1393,0 h 1.37977 v 1.37976 h -1.37977 z m -38.6335099,1.37976 h 1.37977 v 1.37978 h -1.37977 z m 2.75954,0 h 1.37977 v 1.37978 h -1.37977 z m 1.37977,0 h 1.37976 v 1.37978 h -1.37976 z m 1.37976,0 h 1.3797699 v 1.37978 H 9.2774581 Z m 2.7595399,0 h 1.37977 v 1.37978 h -1.37977 z m 2.75954,0 h 1.37977 v 1.37978 h -1.37977 z m 1.37977,0 h 1.37977 v 1.37978 h -1.37977 z m 2.75953,0 h 1.37977 v 1.37978 h -1.37977 z m 2.75954,0 h 1.37977 v 1.37978 h -1.37977 z m 5.51907,0 h 1.37977 v 1.37978 h -1.37977 z m 1.37977,0 h 1.37977 v 1.37978 h -1.37977 z m 1.37977,0 h 1.37977 v 1.37978 h -1.37977 z m 1.37977,0 h 1.37977 v 1.37978 h -1.37977 z m 4.1393,0 h 1.37977 v 1.37978 h -1.37977 z m 4.1393,0 h 1.37978 v 1.37978 h -1.37978 z m 2.75954,0 h 1.37977 v 1.37978 h -1.37977 z m -38.6335099,1.37978 h 1.37977 v 1.37976 h -1.37977 z m 8.2786099,0 h 1.37977 v 1.37976 h -1.37977 z m 2.75954,0 h 1.37977 v 1.37976 h -1.37977 z m 2.75954,0 h 1.37976 v 1.37976 h -1.37976 z m 1.37976,0 h 1.37977 v 1.37976 h -1.37977 z m 4.13931,0 h 1.37977 v 1.37976 h -1.37977 z m 1.37977,0 h 1.37976 v 1.37976 h -1.37976 z m 6.89884,0 h 1.37977 v 1.37976 h -1.37977 z m 1.37977,0 h 1.37976 v 1.37976 h -1.37976 z m 2.75953,0 h 1.37977 v 1.37976 h -1.37977 z m 2.75954,0 h 1.37976 v 1.37976 h -1.37976 z m 2.75954,0 h 1.37976 v 1.37976 h -1.37976 z m -37.2537499,1.37976 h 1.37977 v 1.37977 h -1.37977 z m 1.37977,0 h 1.37977 v 1.37977 h -1.37977 z m 1.37977,0 h 1.37977 v 1.37977 h -1.37977 z m 1.37977,0 h 1.37976 v 1.37977 h -1.37976 z m 1.37976,0 h 1.3797699 v 1.37977 H 9.2774581 Z m 1.3797699,0 h 1.37977 v 1.37977 h -1.37977 z m 1.37977,0 h 1.37977 v 1.37977 h -1.37977 z m 2.75954,0 h 1.37977 v 1.37977 h -1.37977 z m 1.37977,0 h 1.37977 v 1.37977 h -1.37977 z m 1.37977,0 h 1.37976 v 1.37977 h -1.37976 z m 2.75953,0 h 1.37977 v 1.37977 h -1.37977 z m 2.75954,0 h 1.37977 v 1.37977 h -1.37977 z m 5.51907,0 h 1.37977 v 1.37977 h -1.37977 z m 1.37977,0 h 1.37977 v 1.37977 h -1.37977 z m 1.37977,0 h 1.37977 v 1.37977 h -1.37977 z m 1.37977,0 h 1.37976 v 1.37977 h -1.37976 z m 4.1393,0 h 1.37977 v 1.37977 h -1.37977 z m 4.13931,0 h 1.37976 v 1.37977 h -1.37976 z"
       stroke="transparent"
       fill="#000000"
       id="path1-9"
       style="stroke-width:0.0811629" /><text
       xml:space="preserve"
       style="font-size:8.46667px;line-height:0;font-family:serif;-inkscape-font-specification:serif;fill:#000000;stroke-width:0.661458;stroke-linecap:square;stroke-linejoin:bevel;paint-order:markers fill stroke"
       x="65.511002"
       y="38.602455"
       id="text2"><tspan
         sodipodi:role="line"
         id="tspan2"
         style="font-size:8.46667px;stroke-width:0.661458"
         x="65.511002"
         y="38.602455">28.05.-10.06. Wahlen</tspan></text></g></svg>
